<svg width="512" height="512" viewBox="0 0 512 512" fill="none" xmlns="http://www.w3.org/2000/svg">
<path d="M112.225 455.637L451.637 116.225C457.882 109.98 451.545 93.5063 437.495 79.4559C423.442 65.4033 406.97 59.0689 400.725 65.3134L61.3134 404.725C55.068 410.971 61.4054 427.444 75.4559 441.495C89.5063 455.545 105.981 461.881 112.225 455.637Z" fill="#FFCD00"/>
<path d="M451.637 404.725L112.225 65.3134C105.98 59.068 89.5063 65.4054 75.4558 79.4558C61.4054 93.5063 55.0689 109.981 61.3134 116.225L400.725 455.637C406.971 461.882 423.444 455.545 437.495 441.495C451.545 427.444 457.882 410.971 451.637 404.725Z" fill="#FFCD00"/>
</svg>
