<svg width="120" height="120" viewBox="0 0 120 120" fill="none" xmlns="http://www.w3.org/2000/svg">
<rect width="120" height="120" rx="5" fill="#21CE99"/>
<path d="M74.0546 85.5611C73.7942 85.0533 73.6054 84.4218 73.4882 83.6666C72.121 85.19 70.3437 85.9517 68.1562 85.9517C66.0858 85.9517 64.3671 85.3528 62.9999 84.1549C61.6457 82.9569 60.9687 81.4465 60.9687 79.6236C60.9687 77.384 61.7955 75.6653 63.4491 74.4674C65.1158 73.2694 67.5181 72.664 70.6562 72.651H73.2538V71.44C73.2538 70.4635 72.9999 69.6822 72.4921 69.0963C71.9973 68.5103 71.2095 68.2174 70.1288 68.2174C69.1783 68.2174 68.4296 68.4452 67.8827 68.901C67.3489 69.3567 67.0819 69.9817 67.0819 70.776H61.4374C61.4374 69.552 61.815 68.4192 62.5702 67.3775C63.3254 66.3359 64.3931 65.522 65.7733 64.9361C67.1536 64.3372 68.703 64.0377 70.4218 64.0377C73.026 64.0377 75.0898 64.6952 76.6132 66.0103C78.1496 67.3124 78.9179 69.1484 78.9179 71.5181V80.6783C78.9309 82.6835 79.2108 84.2004 79.7577 85.2291V85.5611H74.0546ZM69.3866 81.6353C70.22 81.6353 70.9882 81.453 71.6913 81.0885C72.3944 80.7109 72.9153 80.2095 73.2538 79.5845V75.9517H71.1444C68.3189 75.9517 66.815 76.9283 66.6327 78.8814L66.6132 79.2135C66.6132 79.9166 66.8606 80.496 67.3554 80.9517C67.8502 81.4075 68.5273 81.6353 69.3866 81.6353Z" fill="white"/>
<path d="M90.8319 77.5728L94.7382 64.4283H100.793L92.2968 88.8424L91.828 89.9556C90.565 92.7161 88.4817 94.0963 85.578 94.0963C84.7577 94.0963 83.9244 93.9726 83.078 93.7252V89.4478L83.9374 89.4674C85.0051 89.4674 85.7994 89.3046 86.3202 88.9791C86.8541 88.6536 87.2707 88.1132 87.5702 87.358L88.2343 85.6197L80.8319 64.4283H86.9062L90.8319 77.5728Z" fill="white"/>
<path fill-rule="evenodd" clip-rule="evenodd" d="M76.1247 43.7787C76.1379 48.9661 74.9194 53.1359 72.4691 56.288C70.0188 59.4609 66.8041 61.0525 62.825 61.0626C58.8666 61.0727 55.7278 59.7265 53.4084 57.0241L53.4533 74.649L53.2187 74.6496V86.0377H41.9687V83.1425C39.7647 85.2553 36.884 86.3162 33.3267 86.3253C29.41 86.3353 26.2081 84.7392 23.7207 81.5372C21.2542 78.3352 20.0144 74.1508 20.0012 68.9842L20.0001 68.5467C19.9869 63.3592 21.2055 59.1894 23.6558 56.0373C26.106 52.8644 29.3208 51.2729 33.2999 51.2627C36.8479 51.2537 39.7374 52.3343 41.9687 54.5045V26.0377H53.2187V30.1941C55.5192 27.4085 58.7123 26.0105 62.7982 26C66.7148 25.9901 69.9168 27.5861 72.4041 30.7881C74.8706 33.9902 76.1105 38.1745 76.1236 43.3412L76.1247 43.7787ZM41.9687 59.7132C40.2509 57.3401 37.8446 56.1574 34.7499 56.1653C31.9166 56.1725 29.711 57.2719 28.1333 59.4634C26.5555 61.655 25.7721 64.8965 25.783 69.1882C25.7928 73.0215 26.5921 76.0195 28.1809 78.1821C29.7698 80.3447 31.96 81.4225 34.7517 81.4154C37.8814 81.4074 40.287 80.2022 41.9687 77.7998V59.7132ZM70.3418 43.1371C70.3321 39.3038 69.5328 36.3058 67.9439 34.1432C66.3551 31.9806 64.1648 30.9028 61.3732 30.9099C57.7065 30.9193 55.0336 32.5719 53.3545 35.8679L53.3941 51.3991C55.1313 54.5822 57.7916 56.1691 61.375 56.16C64.2083 56.1528 66.4138 55.0534 67.9916 52.8619C69.5694 50.6704 70.3528 47.4288 70.3418 43.1371ZM46.9687 46.0377V66.0377H48.9687V46.0377H46.9687Z" fill="white"/>
</svg>
