<svg width="81" height="69" viewBox="0 0 81 69" fill="none" xmlns="http://www.w3.org/2000/svg">
<path d="M54.0859 59.5234C53.8255 59.0156 53.6367 58.3841 53.5195 57.6289C52.1523 59.1523 50.375 59.9141 48.1875 59.9141C46.1172 59.9141 44.3984 59.3151 43.0312 58.1172C41.6771 56.9193 41 55.4089 41 53.5859C41 51.3464 41.8268 49.6276 43.4805 48.4297C45.1471 47.2318 47.5495 46.6263 50.6875 46.6133H53.2852V45.4023C53.2852 44.4258 53.0312 43.6445 52.5234 43.0586C52.0286 42.4727 51.2409 42.1797 50.1602 42.1797C49.2096 42.1797 48.4609 42.4076 47.9141 42.8633C47.3802 43.319 47.1133 43.944 47.1133 44.7383H41.4688C41.4688 43.5143 41.8464 42.3815 42.6016 41.3398C43.3568 40.2982 44.4245 39.4844 45.8047 38.8984C47.1849 38.2995 48.7344 38 50.4531 38C53.0573 38 55.1211 38.6576 56.6445 39.9727C58.181 41.2747 58.9492 43.1107 58.9492 45.4805V54.6406C58.9622 56.6458 59.2422 58.1628 59.7891 59.1914V59.5234H54.0859ZM49.418 55.5977C50.2513 55.5977 51.0195 55.4154 51.7227 55.0508C52.4258 54.6732 52.9466 54.1719 53.2852 53.5469V49.9141H51.1758C48.3503 49.9141 46.8464 50.8906 46.6641 52.8438L46.6445 53.1758C46.6445 53.8789 46.8919 54.4583 47.3867 54.9141C47.8815 55.3698 48.5586 55.5977 49.418 55.5977Z" fill="black"/>
<path d="M70.8633 51.5352L74.7695 38.3906H80.8242L72.3281 62.8047L71.8594 63.918C70.5964 66.6784 68.513 68.0586 65.6094 68.0586C64.7891 68.0586 63.9557 67.9349 63.1094 67.6875V63.4102L63.9688 63.4297C65.0365 63.4297 65.8307 63.2669 66.3516 62.9414C66.8854 62.6159 67.3021 62.0755 67.6016 61.3203L68.2656 59.582L60.8633 38.3906H66.9375L70.8633 51.5352Z" fill="black"/>
<path fill-rule="evenodd" clip-rule="evenodd" d="M56.1247 17.7787C56.1379 22.9662 54.9194 27.1359 52.4691 30.288C50.0188 33.4609 46.8041 35.0525 42.8249 35.0626C38.9008 35.0726 35.782 33.7496 33.4687 31.0938V60.0377H21.9687V57.1425C19.7647 59.2553 16.884 60.3162 13.3267 60.3253C9.41002 60.3353 6.20803 58.7392 3.7207 55.5372C1.2542 52.3352 0.0143773 48.1508 0.00122035 42.9842L0.000106253 42.5467C-0.0131038 37.3592 1.20545 33.1894 3.65576 30.0373C6.10602 26.8644 9.32073 25.2729 13.2999 25.2627C16.8478 25.2537 19.7374 26.3343 21.9687 28.5045V0.0376723H33.4687V3.90088C35.7485 1.31036 38.8583 0.0100793 42.7981 4.6456e-05C46.7148 -0.00992737 49.9168 1.58609 52.4041 4.7881C54.8706 7.99016 56.1104 12.1745 56.1236 17.3412L56.1247 17.7787ZM33.4687 9.64919C35.1537 6.49882 37.7885 4.91907 41.3732 4.90994C44.1648 4.90283 46.3551 5.98059 47.9439 8.14322C49.5327 10.3058 50.3321 13.3038 50.3418 17.1371C50.3527 21.4288 49.5693 24.6704 47.9916 26.8619C46.4138 29.0534 44.2083 30.1528 41.375 30.16C37.8425 30.169 35.2071 28.6269 33.4687 25.5338V9.64919ZM21.9687 33.7132C20.2509 31.3401 17.8446 30.1574 14.7499 30.1653C11.9166 30.1725 9.71101 31.2719 8.13325 33.4634C6.55549 35.655 5.77208 38.8965 5.78301 43.1882C5.79277 47.0215 6.59207 50.0195 8.18092 52.1821C9.76977 54.3447 11.96 55.4225 14.7517 55.4154C17.8813 55.4074 20.287 54.2022 21.9687 51.7998V33.7132ZM26.892 19.9662V39.9662H28.892V19.9662H26.892Z" fill="#21CE99"/>
</svg>
