<svg width="512" height="512" viewBox="0 0 512 512" fill="none" xmlns="http://www.w3.org/2000/svg">
<g clip-path="url(#clip0)">
<path d="M15.9996 145L496 145C504.833 145 512 128.87 512 109C512 89.1267 504.831 73 496 73L15.9996 73C7.16725 73 0 89.1297 0 109C0 128.87 7.16858 145 15.9996 145Z" fill="#FFCD00"/>
<path d="M325.031 437H505.969C509.298 437 512 420.87 512 401C512 381.127 509.298 365 505.969 365H325.031C321.702 365 319 381.13 319 401C319 420.87 321.702 437 325.031 437Z" fill="#FFCD00"/>
<path d="M498.844 233L104.156 233C96.8934 233 91 249.13 91 269C91 288.87 96.8945 305 104.156 305L498.844 305C506.107 305 512 288.87 512 269C512 249.13 506.107 233 498.844 233Z" fill="#FFCD00"/>
</g>
<defs>
<clipPath id="clip0">
<rect width="512" height="512" fill="white"/>
</clipPath>
</defs>
</svg>
