<svg width="512" height="512" viewBox="0 0 512 512" fill="none" xmlns="http://www.w3.org/2000/svg">
<g clip-path="url(#clip0)">
<path d="M15.9996 100H496C504.833 100 512 83.8703 512 64C512 44.1267 504.831 28 496 28H15.9996C7.16725 28 0 44.1297 0 64C0 83.8703 7.16858 100 15.9996 100Z" fill="#FFCD00"/>
<path d="M496 224H15.9996C7.16725 224 0 240.13 0 260C0 279.87 7.16858 296 15.9996 296H496C504.833 296 512 279.87 512 260C512 240.13 504.833 224 496 224Z" fill="#FFCD00"/>
<path d="M496 421H176C167.167 421 160 437.13 160 457C160 476.873 167.169 493 176 493H496C504.833 493 512 476.87 512 457C512.001 437.127 504.833 421 496 421Z" fill="#FFCD00"/>
</g>
<defs>
<clipPath id="clip0">
<rect width="512" height="512" fill="white"/>
</clipPath>
</defs>
</svg>
