<svg width="512" height="512" viewBox="0 0 512 512" fill="none" xmlns="http://www.w3.org/2000/svg">
<g clip-path="url(#clip0)">
<path d="M15.9996 166H496C504.833 166 512 149.87 512 130C512 110.127 504.831 94 496 94H15.9996C7.16725 94 0 110.13 0 130C0 149.87 7.16858 166 15.9996 166Z" fill="#FFCD00"/>
<path d="M496 224H15.9996C7.16725 224 0 240.13 0 260C0 279.87 7.16858 296 15.9996 296H496C504.833 296 512 279.87 512 260C512 240.13 504.833 224 496 224Z" fill="#FFCD00"/>
<path d="M496 354H176C167.167 354 160 370.13 160 390C160 409.873 167.169 426 176 426H496C504.833 426 512 409.87 512 390C512.001 370.127 504.833 354 496 354Z" fill="#FFCD00"/>
</g>
<defs>
<clipPath id="clip0">
<rect width="512" height="512" fill="white"/>
</clipPath>
</defs>
</svg>
