<?xml version="1.0"?>
<svg xmlns="http://www.w3.org/2000/svg" xmlns:xlink="http://www.w3.org/1999/xlink" xmlns:svgjs="http://svgjs.com/svgjs" version="1.1" width="512" height="512" x="0" y="0" viewBox="0 0 512 512" style="enable-background:new 0 0 512 512" xml:space="preserve"><g><g xmlns="http://www.w3.org/2000/svg"><path d="m442.37 341.642h62.13c4.142 0 7.5-3.357 7.5-7.5 0-61.978-23.461-123.782-64.694-170.089l32.134-42.842c2.57-9.573-.931-13.073-10.503-10.498l-16.727 12.56c-53.747-49.123-123.167-76.104-196.21-76.104-4.142 0-7.5 3.357-7.5 7.5s3.358 7.5 7.5 7.5c68.328 0 133.307 24.902 183.984 70.284l-13.864 10.41c-69.346-61.754-169.337-81.063-256.615-49.72-3.898 1.4-5.923 5.695-4.523 9.594 1.399 3.897 5.695 5.924 9.594 4.523 23.732-8.523 48.566-13.207 73.925-13.98v47.148c-46.483 1.757-90.073 19.814-124.173 51.439l-33.344-33.344c16.329-15.354 34.637-28.328 54.53-38.608 3.68-1.902 5.121-6.427 3.219-10.106-1.901-3.68-6.424-5.119-10.106-3.22-84.308 43.571-138.627 132.496-138.627 227.553 0 4.143 3.358 7.5 7.5 7.5h62.13c4.142 0 7.5-3.357 7.5-7.5 0-144.252 169.842-229.518 285.503-143.609l-39.93 29.982c-20.172-11.86-43.118-18.113-66.702-18.113-72.647 0-131.75 59.099-131.75 131.74 0 65.367 49.687 122.102 114.442 130.615 4.104.545 7.873-2.352 8.414-6.458.54-4.106-2.352-7.874-6.458-8.413-23.444-3.083-45.02-13.057-62.618-28.874v-15.641c0-6.166 3.923-11.654 9.758-13.653l37.23-12.736c16.519 13.398 45.515 13.342 61.965 0l37.226 12.734c5.839 2.001 9.762 7.489 9.762 13.655v15.642c-17.589 15.817-39.157 25.791-62.598 28.873-4.107.539-6.999 4.307-6.458 8.413.497 3.775 3.724 6.714 7.427 6.523 54.409-2.801 115.447-57.301 115.409-130.681-.012-23.543-6.236-46.455-18.066-66.602l29.98-39.97c8.82 11.856 16.121 24.729 21.753 38.382 2.702 4.177 5.967 5.535 9.793 4.073 3.829-1.58 5.653-5.964 4.073-9.794-6.668-16.166-15.496-31.319-26.267-45.13l29.085-38.776c35.925 41.392 57.118 95.542 58.783 150.316h-47.157c-.438-11.461-1.879-22.848-4.299-33.948-.882-4.047-4.878-6.61-8.925-5.73-4.047.883-6.613 4.879-5.73 8.926 2.719 12.471 4.098 25.341 4.098 38.253-.003 4.143 3.355 7.501 7.497 7.501zm-380.099-15h-47.157c1.794-59.059 24.76-114.474 65.258-157.516l33.348 33.348c-31.625 34.105-49.693 77.689-51.449 124.168zm201.229-186.217v-47.144c55.597 1.708 108.416 22.371 150.356 58.79l-38.757 29.101c-31.931-24.878-71.097-39.171-111.599-40.747zm172.368 13.88-75.037 100.042c-7.165-9.369-15.592-17.792-24.951-24.97zm-147.368 146.707h-11.61c-1.686 0-3.255-.909-4.094-2.372l-7.13-12.43c-2.545-4.437-8.571-5.002-11.958-1.42-4.106 5.835-14.103 16.222-21.668 16.222h-8.54v-17.46c0-10.99 8.94-19.931 19.93-19.931h25.14c10.99 0 19.93 8.94 19.93 19.931zm-35.55 72.84c-16.067 0-29.45-13.373-29.45-29.44v-28.399h8.54c10.242 0 19.52-5.691 25.638-13.581 3.54 7.255 10.708 13.581 19.212 13.581h11.61v28.399c0 18.991-17.835 31.079-35.55 29.44zm95.999 30.985c-.224-12.356-8.145-23.29-19.881-27.313l-31.568-10.799c3.909-6.709 6-14.353 6-22.314v-60.859c0-19.261-15.669-34.931-34.93-34.931h-25.14c-19.261 0-34.93 15.67-34.93 34.931v60.859c0 7.961 2.092 15.605 6 22.314l-31.572 10.801c-11.731 4.021-19.652 14.953-19.877 27.307-15.451-20.188-23.801-44.706-23.801-70.692 0-64.371 52.374-116.74 116.75-116.74 63.718 0 116.75 53.267 116.75 116.74 0 25.994-8.349 50.513-23.801 70.696z" fill="#000000" data-original="#000000" style=""/><path d="m69.626 388.771h-62.124c-4.142 0-7.5 3.357-7.5 7.5s3.358 7.5 7.5 7.5h62.125c4.142 0 7.5-3.357 7.5-7.5s-3.358-7.5-7.501-7.5z" fill="#000000" data-original="#000000" style=""/><path d="m504.498 388.771h-23.563v-23.563c0-4.143-3.358-7.5-7.5-7.5s-7.5 3.357-7.5 7.5v23.563h-23.562c-4.142 0-7.5 3.357-7.5 7.5s3.358 7.5 7.5 7.5h23.562v23.563c0 4.143 3.358 7.5 7.5 7.5s7.5-3.357 7.5-7.5v-23.563h23.563c4.142 0 7.5-3.357 7.5-7.5s-3.358-7.5-7.5-7.5z" fill="#000000" data-original="#000000" style=""/></g></g></svg>
