<svg id="Layer_3" enable-background="new 0 0 64 64" height="512" viewBox="0 0 64 64" width="512" xmlns="http://www.w3.org/2000/svg"><path d="m36 5h2v2h-2z"/><path d="m26 5h8v2h-8z"/><path d="m28 57h8v2h-8z"/><path d="m42 57h2v2h-2z"/><path d="m20 57h2v2h-2z"/><path d="m60 17h-10v-11c0-2.757-2.243-5-5-5h-26c-2.757 0-5 2.243-5 5v11.232c-.644-.147-1.312-.232-2-.232-4.962 0-9 4.037-9 9v7.184c-1.161.414-2 1.514-2 2.816v16c0 1.654 1.346 3 3 3h10v3c0 2.757 2.243 5 5 5h26c2.757 0 5-2.243 5-5v-15h10c1.654 0 3-1.346 3-3v-20c0-1.654-1.346-3-3-3zm-44-11c0-1.654 1.346-3 3-3h26c1.654 0 3 1.346 3 3v3h-32zm0 5h32v6h-2v-4h-28v6.311c-.6-.539-1.271-.998-2-1.361zm12 32h16v6h-21v-13c0-1.302-.839-2.402-2-2.816v-7.184c0-1.479-.365-2.872-1-4.104v-6.896h24v2h-16c-1.654 0-3 1.346-3 3v20c0 1.654 1.346 3 3 3zm-23-17c0-3.859 3.14-7 7-7s7 3.141 7 7v7h-2v-7c0-2.757-2.243-5-5-5s-5 2.243-5 5v7h-2zm10 0v7h-6v-7c0-1.654 1.346-3 3-3s3 1.346 3 3zm-11 27c-.551 0-1-.448-1-1v-16c0-.552.449-1 1-1h16c.551 0 1 .448 1 1v16c0 .552-.449 1-1 1h-1zm44 5c0 1.654-1.346 3-3 3h-26c-1.654 0-3-1.346-3-3v-3h3 1 28zm0-5h-25.184c.112-.314.184-.648.184-1v-1h23v-8h2zm13-13c0 .552-.449 1-1 1h-32c-.551 0-1-.448-1-1v-20c0-.552.449-1 1-1h32c.551 0 1 .448 1 1z"/><path d="m55 31c-.731 0-1.407.211-1.997.555-.609-.358-1.296-.555-2.003-.555-2.206 0-4 1.794-4 4s1.794 4 4 4c.707 0 1.394-.197 2.003-.555.59.344 1.266.555 1.997.555 2.206 0 4-1.794 4-4s-1.794-4-4-4zm-3.485 5.924c-.157.044-.325.076-.515.076-1.103 0-2-.897-2-2s.897-2 2-2c.19 0 .358.032.515.076-.318.573-.515 1.223-.515 1.924s.197 1.351.515 1.924zm3.485.076c-1.103 0-2-.897-2-2s.897-2 2-2 2 .897 2 2-.897 2-2 2z"/><path d="m41 21h-10c-1.103 0-2 .897-2 2v6c0 1.103.897 2 2 2h10c1.103 0 2-.897 2-2v-6c0-1.103-.897-2-2-2zm-2 2h2v2h-2zm-6 6h-2v-2h2zm2 0v-4h-4v-2h6v4h4.001v2z"/><path d="m41 33h-10c-1.103 0-2 .897-2 2v2c0 1.103.897 2 2 2h10c1.103 0 2-.897 2-2v-2c0-1.103-.897-2-2-2zm-8 4h-2v-2h2zm4 0h-2v-2h2zm2 0v-2h2l.001 2z"/><path d="m17 42c0-2.757-2.243-5-5-5s-5 2.243-5 5c0 1.513.705 2.943 1.879 3.886l-1.122 5.114h8.486l-1.123-5.114c1.175-.943 1.88-2.373 1.88-3.886zm-3.503 2.581-.629.367.889 4.052h-3.514l.89-4.052-.629-.367c-.942-.548-1.504-1.513-1.504-2.581 0-1.654 1.346-3 3-3s3 1.346 3 3c0 1.068-.562 2.033-1.503 2.581z"/><path d="m57 21h2v2h-2z"/><path d="m53 21h2v2h-2z"/><path d="m49 21h2v2h-2z"/></svg>