<svg width="388" height="388" viewBox="0 0 388 388" fill="none" xmlns="http://www.w3.org/2000/svg">
<path d="M387.461 284.938L271.32 211.758C264.277 224 255.648 235.254 245.535 245.371C230.727 260.176 213.48 271.805 194.266 279.93C174.355 288.352 153.227 292.621 131.461 292.621C109.695 292.621 88.5664 288.352 68.6562 279.93C49.4414 271.805 32.1914 260.176 17.3867 245.371C10.9883 238.973 5.18359 232.113 0 224.84V242.141C0 297.617 45.1328 342.75 100.609 342.75H225.418V387.043L387.461 284.938Z" fill="#21CE99"/>
<path d="M0.167969 131.297C0.167969 203.809 58.9492 262.594 131.461 262.594C203.977 262.594 262.758 203.809 262.758 131.297C262.758 58.7852 203.977 0 131.461 0C58.9492 0 0.167969 58.7852 0.167969 131.297ZM81.4727 109.957C81.4727 91.4062 94.9336 75.8086 121.859 72.0352V54.1406H145.004V71.707C157.152 72.8555 168.973 75.9727 178.328 81.2266L166.672 109.297C155.348 103.551 144.676 100.762 134.66 100.762C123.336 100.762 119.723 104.043 119.723 107.984C119.723 121.773 183.254 110.281 183.254 152.637C183.254 170.367 170.449 185.797 145.004 190.23V208.453H121.859V191.051C105.441 190.066 89.5195 185.633 79.668 179.559L92.1445 151.324C102.98 157.727 117.426 161.832 130.066 161.832C141.062 161.832 145.004 159.531 145.004 155.594C145.004 141.145 81.4727 152.801 81.4727 109.957V109.957Z" fill="#21CE99"/>
</svg>
