<?xml version="1.0"?>
<svg xmlns="http://www.w3.org/2000/svg" viewBox="0 0 512 512" width="512" height="512"><g id="Outline"><path d="M55.077,379.137l-2.566,7.7a44.023,44.023,0,0,0,11.495,84.186L134.32,480.2c.3.76.63,1.575.966,2.348A21.567,21.567,0,0,0,155.34,496H358.33A21.694,21.694,0,0,0,380,474.33c0-.673-.033-1.351-.09-1.934a21.66,21.66,0,0,0-6.256-13.4A59.971,59.971,0,0,0,330.99,441.33H316.421l-4.262-2.84L402.667,408.7v30.971a8,8,0,0,0,8,8H459a8,8,0,0,0,8-8V411.376a28.027,28.027,0,0,1-19.4,43.781l-55.714,7.265,2.068,15.865,55.714-7.265a44.015,44.015,0,0,0,9.572-84.947l-2.313-6.938a7.969,7.969,0,0,0-1.08-2.119l-47.578-66.612-30.124-97.9a45.347,45.347,0,0,0-43.56-32.173l-44.751,0a1.667,1.667,0,0,1-1.67-1.66V144.221a45.014,45.014,0,0,0,10.789-17.834A46.743,46.743,0,0,0,343,157.67a8,8,0,0,0,8-8V72.33a46.5,46.5,0,0,0-38.875-46.011L309.469,42.1A30.552,30.552,0,0,1,335,72.33v68.281a30.734,30.734,0,0,1-22.411-25.828,22.482,22.482,0,0,0-.259-36.76V72.591c0-.086,0-.172,0-.258a56.333,56.333,0,0,0-112.666,0c0,1.855.055,3.724.137,5.6a22.477,22.477,0,0,0,11.265,41l1.139,4.539a45.073,45.073,0,0,0,11.622,20.742V178.67a1.667,1.667,0,0,1-1.67,1.66l-14.493,0a8,8,0,0,0-7.841,6.413L189.635,237.1l-8.891-2.964-28.5,85.513L95.259,386.127a8,8,0,0,0-1.926,5.206v40.334H61v-19.7l8.875-26.627,47.635-66.689a7.953,7.953,0,0,0,1.136-2.3l30.505-99.142a29.429,29.429,0,0,1,28.268-20.878h10.914v-16H177.419a45.349,45.349,0,0,0-43.561,32.173l-30.123,97.9L56.157,377.018A7.969,7.969,0,0,0,55.077,379.137ZM209.33,102.17a6.576,6.576,0,0,1-1.434-1.087A6.423,6.423,0,0,1,206,96.5a6.5,6.5,0,0,1,.231-1.652,7.984,7.984,0,0,0,3.1.316ZM41.67,427.36A27.9,27.9,0,0,1,45,414.08v25.587a8.009,8.009,0,0,0,.086,1.113A28.059,28.059,0,0,1,41.67,427.36ZM314,457.33h16.99a44.365,44.365,0,0,1,20.8,5.159c3.584,1.908,7.672,4.05,10.221,7.31,2.924,3.74,2.391,10.2-3.678,10.2H256.52l-49.2-6.418,6.638-31s17.816,5.867,24.824,8.173c7.071,2.327,14.991,7.315,22.385,3.547,5.147-2.623,10.006-6.308,14.926-9.364,11.573-7.186,24.223,4.886,33.471,11.048A8,8,0,0,0,314,457.33Zm-20.575-29.517a32.144,32.144,0,0,0-25.766,3.531l-12.7,7.89L153.609,405.876l34,3.091q.368.033.729.033a8,8,0,0,0,7.585-5.47l4.623-13.863H311.458l4.623,13.863a8,8,0,0,0,7.585,5.47q.361,0,.729-.033l36.311-3.3Zm-77.864-86.128-4.892-29.352h90.662l-4.892,29.352a8,8,0,0,0,.3,3.845l9.382,28.137H264V343H248v30.667H205.877l9.382-28.137A8,8,0,0,0,215.561,341.685Zm113.694,50.774-16.707-50.105,6.431-38.587a47.149,47.149,0,0,0,12.32-18.9L345.077,326.2a7.991,7.991,0,0,0,1.515,2.676L395.9,386.4Zm5.326-196.126a29.429,29.429,0,0,1,28.268,20.878l30.5,99.142a7.953,7.953,0,0,0,1.136,2.3l47.635,66.689L451,411.965v19.7H418.667V391.333a8,8,0,0,0-1.926-5.206L359.76,319.65l-28.5-85.513-8.891,2.964-8.251-40.771ZM215.745,76.51q-.078-2.1-.078-4.177a40.333,40.333,0,0,1,80.666,0h0v.19q-.006,4.039-.3,8.088c-16.464-18.132-23.073-30.92-23.216-31.2a8,8,0,0,0-13.421-1.374C244.069,67.393,229.075,72.43,215.745,76.51Zm66.779,118.22L277.1,205.583a23.9,23.9,0,0,1-17.189,13.092,23.221,23.221,0,0,1-24.733-12.544l-5.7-11.4A17.671,17.671,0,0,0,239.83,178.67V154.682a45.248,45.248,0,0,0,32.33,0V178.67A17.668,17.668,0,0,0,282.524,194.73ZM256,141.67c-19.5,0-30.67-18.934-30.67-36.77V90.266c11.442-3.743,25.269-9.551,39.155-23.8A220.087,220.087,0,0,0,286.67,94.058V104.9C286.665,123.068,276,141.67,256,141.67Zm-57.1,111.1L203.822,245a8,8,0,0,0,1.083-2.7l8.78-43.383,7.18,14.361a39.147,39.147,0,0,0,41.674,21.172,39.935,39.935,0,0,0,28.869-21.72l6.907-13.813,8.78,43.383a8,8,0,0,0,1.083,2.7l4.922,7.765a31.063,31.063,0,0,1-10.766,43.564H209.666A31.063,31.063,0,0,1,198.9,252.769Zm-33.492,76.1a7.991,7.991,0,0,0,1.515-2.676L180.7,284.863a47.149,47.149,0,0,0,12.32,18.9l6.431,38.587-16.707,50.105L116.1,386.4ZM101.333,447.667a8,8,0,0,0,8-8V408.146l89.339,29.407L191.4,471.506,66.074,455.157a28.043,28.043,0,0,1-16.481-8.26,7.95,7.95,0,0,0,3.407.77Z"/></g></svg>
