<svg id="_x33_0" enable-background="new 0 0 64 64" height="512" viewBox="0 0 64 64" width="512" xmlns="http://www.w3.org/2000/svg"><g><path d="m55.754 43.674c.984-.792 1.71-1.889 2.041-3.145l.508-.484c1.025-.976 1.804-2.202 2.251-3.545.296-.887.446-1.812.446-2.748v-.752c0-1.506-.497-2.997-1.4-4.199-.217-.289-.461-.552-.718-.801h2.118v-10h-2.577c-1.219 0-2.308-.728-2.795-1.904-.475-1.135-.222-2.427.643-3.292l1.823-1.823-7.074-7.075-1.823 1.823c-.865.865-2.158 1.118-3.344.621-1.125-.465-1.853-1.554-1.853-2.773v-2.577h-10v2.577c0 1.219-.728 2.308-1.904 2.795-1.133.476-2.427.223-3.292-.643l-1.824-1.823-7.074 7.074 1.823 1.823c.864.865 1.117 2.157.621 3.344-.209.503-.549.926-.975 1.245-.914-.857-2.133-1.392-3.482-1.392h-4.783c-3.54 0-6.891 1.541-9.193 4.229-1.882 2.193-2.917 4.992-2.917 7.88v.412c0 2.503 1.09 4.873 2.993 6.504l4.324 3.679-.265 1.853c-1.964 2.092-3.052 4.802-3.052 7.685v1c0 3.299.925 6.522 2.674 9.322 1.736 2.778 4.727 4.436 8.003 4.436h47.323v-9c0-4.746-3.027-8.787-7.246-10.326zm-7.754 17.326h-16.556c.344-.591.556-1.268.556-2 0-1.428-.758-2.674-1.886-3.382.346-2.229 1.519-4.181 3.186-5.553l5.7 7.602 5.712-7.617c2.006 1.652 3.288 4.154 3.288 6.95zm-26-6v-.885c0-2.459-.647-4.829-1.868-6.932.052-.045.102-.091.155-.135l5.713 7.619 5.706-7.609c.356.292.695.605 1.005.952-2.316 1.627-4 4.114-4.531 7.009-.06-.003-.118-.019-.18-.019zm-12.586-23c-.267-.268-.414-.622-.414-1 0-.552.448-1 1-1h.48l2.499-3.123c.425-.532.959-.966 1.559-1.285.467.256 1.003.408 1.569.408h2c1.033 0 1.989-.326 2.779-.874.495 1.225.966 2.829 1.085 4.874h-1.971v4c0 .347-.058.678-.142 1h-1.622c-.998 0-1.896-.555-2.342-1.447l-1.789.895c.789 1.573 2.372 2.552 4.131 2.552h.382c-.703.615-1.612 1-2.618 1h-4v2h2v1.574c-.658-.307-1.338-.568-2.04-.769l-1.846-.527.947-6.632zm17.586-9c0-6.617 5.383-12 12-12s12 5.383 12 12c0 1.02-.133 2.025-.384 3h-.616c-.514 0-1.021.063-1.515.173.338-1.013.515-2.08.515-3.173 0-5.514-4.486-10-10-10s-10 4.486-10 10c0 1.094.177 2.161.516 3.173-.495-.11-1.002-.173-1.516-.173h-.616c-.251-.975-.384-1.98-.384-3zm19 13.721v.031c0 .722-.115 1.433-.343 2.115-.163.489-.387.955-.657 1.393v-.539c0-.862-.55-1.625-1.367-1.896-1.369-.457-2.632-1.237-3.652-2.258l-.981-.981-.98.98c-1.021 1.021-2.283 1.801-3.651 2.257-.819.273-1.369 1.035-1.369 1.898v.539c-.27-.438-.494-.904-.657-1.393-.228-.682-.343-1.393-.343-2.115v-.031-.721c0-1.075.355-2.141 1-3 .939-1.252 2.435-2 4-2h4c1.565 0 3.061.748 4 2.001.645.858 1 1.924 1 2.999zm-2.972 12.242-3.028 4.037v-4.941c1.079.12 2.098.436 3.028.904zm-13.27-5.292c.713-.575 1.288-1.309 1.679-2.148.362.551.781 1.066 1.26 1.521l.509.485c.332 1.258 1.06 2.356 2.046 3.148-.268.098-.529.208-.787.326-1.26-1.519-2.884-2.668-4.707-3.332zm-7.758-4.671v-2.279c1.473-.49 2.845-1.291 4-2.329 1.155 1.038 2.527 1.838 4 2.329v.031 2.248c0 2.206-1.794 4-4 4s-4-1.794-4-4zm3 11-3.031-4.042c.944-.474 1.965-.783 3.031-.9zm2-4.939c1.063.119 2.086.428 3.029.901l-3.029 4.038zm11 3.001v4.938l-3.027-4.035c.932-.472 1.954-.782 3.027-.903zm1-2.062c-2.206 0-4-1.794-4-4v-2.279c1.473-.49 2.845-1.291 4-2.329 1.155 1.038 2.527 1.838 4 2.329v2.279c0 2.206-1.794 4-4 4zm2-17h-4c-1 0-1.976.228-2.871.631-.158-.288-.332-.567-.53-.831-.328-.437-.704-.831-1.118-1.175-.966-1.356-1.481-2.952-1.481-4.625 0-4.411 3.589-8 8-8s8 3.589 8 8c0 1.672-.515 3.267-1.48 4.624-.415.344-.792.738-1.12 1.176-.198.264-.372.544-.53.832-.894-.404-1.87-.632-2.87-.632zm-13-1c1.565 0 3.061.748 4 2.001.166.221.309.457.436.702-.38.326-.731.69-1.036 1.097-.627.835-1.043 1.812-1.248 2.832-1.181-.469-2.273-1.167-3.172-2.066l-.98-.98-.98.98c-.867.867-1.916 1.547-3.049 2.016.018-.191.029-.385.029-.582v-2h2v-1c0-1.097-.097-2.083-.245-2.985.082-.004.163-.015.245-.015zm-16.589 14.729c1.043.298 2.033.746 2.95 1.311l-.692 1.383-3.741-3.118zm4.589-.009v-2.72c1.538 0 2.937-.586 4-1.54v.54c0 1.886.876 3.569 2.241 4.669-1.172.426-2.271 1.042-3.247 1.852-.858-1.079-1.866-2.024-2.994-2.801zm27.543 4.274c-.258-.117-.521-.222-.789-.32.984-.792 1.71-1.889 2.041-3.145l.508-.484c.479-.456.898-.971 1.261-1.522.391.839.966 1.573 1.679 2.148-1.82.663-3.442 1.808-4.7 3.323zm7.457-1.933v4.939l-3.029-4.038c.943-.473 1.966-.782 3.029-.901zm2-.002c1.079.12 2.098.436 3.028.904l-3.028 4.037zm3-6.059c0 2.206-1.794 4-4 4s-4-1.794-4-4v-2.248-.031c1.473-.49 2.845-1.291 4-2.329 1.155 1.038 2.527 1.838 4 2.329zm3-5.248c0 .722-.115 1.433-.343 2.115-.163.489-.387.955-.657 1.393v-.539c0-.862-.55-1.625-1.367-1.896-1.369-.457-2.632-1.237-3.652-2.258l-.981-.981-.98.98c-.899.899-1.991 1.596-3.172 2.065-.205-1.02-.621-1.997-1.248-2.831-.305-.407-.656-.771-1.036-1.098.127-.244.27-.48.436-.702.939-1.252 2.435-2 4-2h4c1.565 0 3.061.748 4 2.001.645.858 1 1.924 1 2.999zm-35.856-22.362-.409-.409 4.246-4.246.409.409c1.44 1.439 3.589 1.864 5.523 1.055 1.875-.777 3.087-2.592 3.087-4.622v-.577h6v.577c0 2.03 1.212 3.845 3.133 4.641 1.888.787 4.037.367 5.478-1.074l.409-.409 4.246 4.246-.409.409c-1.44 1.44-1.862 3.591-1.055 5.523.776 1.875 2.591 3.087 4.621 3.087h.577v6h-.577c-.696 0-1.382.153-2.016.432-.764-.281-1.578-.432-2.407-.432h-1.331c.215-.981.331-1.984.331-3 0-7.72-6.28-14-14-14s-14 6.28-14 14c0 1.016.116 2.019.331 3h-1.331c-.228 0-.456.018-.683.041-.291-1.007-.635-1.853-.962-2.552.399-.708.645-1.513.645-2.382 0-.747-.17-1.452-.46-2.093.728-.538 1.311-1.263 1.678-2.148.788-1.886.366-4.036-1.074-5.476zm-17.852 22.114c-1.456-1.248-2.292-3.064-2.292-4.983v-.412c0-2.412.864-4.748 2.435-6.579 1.922-2.243 4.72-3.53 7.675-3.53h4.783c1.713 0 3.107 1.394 3.107 3.107 0 1.595-1.298 2.893-2.893 2.893h-2c-.493 0-.938-.278-1.055-.662-.14-.455.029-.778.143-.932.191-.258.485-.406.805-.406h1v-2h-1c-.947 0-1.85.455-2.413 1.218-.573.774-.736 1.762-.446 2.706.015.049.039.093.057.14-.674.419-1.283.941-1.781 1.563l-1.934 2.418c-1.408.245-2.483 1.476-2.483 2.955 0 .912.355 1.77 1 2.414l.939.939-.287 2.009zm4.077 24c-1.55-2.481-2.369-5.338-2.369-8.262v-1c0-1.681.449-3.293 1.285-4.702l6.045 5.036 1.663-3.326c.669.59 1.279 1.25 1.802 1.982 1.442 2.02 2.205 4.4 2.205 6.883v.885h-4.382l-2.724-5.447-1.789.895 2.724 5.446c.34.682 1.025 1.106 1.789 1.106h8.382v4h-8.323c-2.581 0-4.94-1.307-6.308-3.496zm16.631 3.496v-4h2c1.103 0 2 .897 2 2s-.897 2-2 2zm35 0h-11v-4c0-3.722-1.863-7.013-4.701-9.004.307-.342.643-.65.994-.939l5.707 7.61 5.712-7.617c2.006 1.652 3.288 4.154 3.288 6.95z"/><circle cx="39" cy="6" r="1"/><path d="m26.979 11.979c.256 0 .512-.098.707-.293.391-.391.391-1.024 0-1.414-.195-.195-.451-.293-.707-.293s-.512.098-.707.293c-.391.391-.391 1.024 0 1.414.195.196.451.293.707.293z"/><circle cx="56" cy="23" r="1"/><path d="m51.021 11.979c.256 0 .512-.098.707-.293.391-.391.391-1.024 0-1.414-.195-.195-.451-.293-.707-.293s-.512.098-.707.293c-.391.391-.391 1.024 0 1.414.195.196.451.293.707.293z"/></g></svg>