<?xml version="1.0"?>
<svg xmlns="http://www.w3.org/2000/svg" id="_x31_px" enable-background="new 0 0 24 24" height="512px" viewBox="0 0 24 24" width="512px"><g><g id="XMLID_1_"><path d="m21.5 7.997c.28 0 .5.23.5.5 0 .28-.22.5-.5.5h-7.79l-.5-.5.5-.5h3.79z" data-original="#000000" class="active-path" data-old_color="#000000" fill="#21CE99"/><path d="m20.29 13.997.5-.5-.5-.5h.71c.28 0 .5.23.5.5 0 .28-.22.5-.5.5z" data-original="#000000" class="active-path" data-old_color="#000000" fill="#21CE99"/><path d="m20.79 13.497-.5.5h-7.79c-.28 0-.5-.22-.5-.5 0-.27.22-.5.5-.5h2 5.79z" data-original="#000000" class="active-path" data-old_color="#000000" fill="#21CE99"/><path d="m21.85 13.147c.2.2.2.51 0 .71l-2 2c-.09.09-.22.14-.35.14s-.26-.05-.35-.14c-.05-.05-.09-.11-.11-.17-.08-.18-.04-.39.11-.54l1.14-1.15h.71c.28 0 .5-.22.5-.5 0-.27-.22-.5-.5-.5h-.71l-1.14-1.14c-.2-.2-.2-.51 0-.71.19-.19.51-.19.7 0z" data-original="#000000" class="active-path" data-old_color="#000000" fill="#21CE99"/><path d="m18 16.497v3c0-.27-.22-.5-.5-.5h-.5v-2.5c0-.27.22-.5.5-.5s.5.23.5.5z" data-original="#000000" class="active-path" data-old_color="#000000" fill="#21CE99"/><path d="m17.5 18.997c.28 0 .5.23.5.5 0 .28-.22.5-.5.5h-.5v-1z" data-original="#000000" class="active-path" data-old_color="#000000" fill="#21CE99"/><path d="m3 18.997h14v1h-14z" data-original="#000000" class="active-path" data-old_color="#000000" fill="#21CE99"/><path d="m13.71 7.997-.5.5.5.5h-.71c-.28 0-.5-.22-.5-.5 0-.27.22-.5.5-.5z" data-original="#000000" class="active-path" data-old_color="#000000" fill="#21CE99"/><path d="m14.85 10.147c.2.19.2.51 0 .71-.09.09-.22.14-.35.14s-.26-.05-.35-.14l-2-2c-.2-.2-.2-.51 0-.71l2-2c.19-.19.51-.19.7 0 .2.2.2.51 0 .71l-1.14 1.14h-.71c-.28 0-.5.23-.5.5 0 .28.22.5.5.5h.71z" data-original="#000000" class="active-path" data-old_color="#000000" fill="#21CE99"/><path d="m3 18.997v1h-.5c-.28 0-.5-.22-.5-.5 0-.27.22-.5.5-.5z" data-original="#000000" class="active-path" data-old_color="#000000" fill="#21CE99"/><path d="m15.5.997h-11c-.83 0-1.5.68-1.5 1.5v16.5h-.5c-.28 0-.5.23-.5.5v-17c0-1.37 1.12-2.5 2.5-2.5h11c1.38 0 2.5 1.13 2.5 2.5v3c0 .28-.22.5-.5.5s-.5-.22-.5-.5v-3c0-.82-.67-1.5-1.5-1.5z" data-original="#000000" class="active-path" data-old_color="#000000" fill="#21CE99"/><path d="m15.5 23.997h-11c-1.38 0-2.5-1.12-2.5-2.5v-2c0 .28.22.5.5.5h.5v1.5c0 .83.67 1.5 1.5 1.5h11c.83 0 1.5-.67 1.5-1.5v-1.5h.5c.28 0 .5-.22.5-.5v2c0 1.38-1.12 2.5-2.5 2.5z" data-original="#000000" class="active-path" data-old_color="#000000" fill="#21CE99"/></g></g> </svg>
