<?xml version="1.0"?>
<svg xmlns="http://www.w3.org/2000/svg" id="Layer_1" enable-background="new 0 0 496 496" height="512px" viewBox="0 0 496 496" width="512px" class=""><g><path d="m448 27.5h-400c-26.468 0-48 21.532-48 48v240c0 26.468 21.532 48 48 48h144c8.837 0 16-7.163 16-16s-7.163-16-16-16h-65.148c-7.037-48.977-45.876-87.815-94.852-94.852v-82.296c48.977-7.037 87.815-45.875 94.852-94.852h242.295c7.037 48.977 45.876 87.815 94.852 94.852v82.296c-48.977 7.037-87.815 45.875-94.852 94.852h-65.147c-8.837 0-16 7.163-16 16s7.163 16 16 16h144c26.468 0 48-21.532 48-48v-240c0-26.468-21.532-48-48-48zm-353.61 304h-46.39c-8.822 0-16-7.178-16-16v-46.39c31.3 6.379 56.011 31.09 62.39 62.39zm-62.39-209.61v-46.39c0-8.822 7.178-16 16-16h46.39c-6.379 31.3-31.09 56.011-62.39 62.39zm369.61-62.39h46.39c8.822 0 16 7.178 16 16v46.39c-31.3-6.379-56.011-31.09-62.39-62.39zm46.39 272h-46.39c6.379-31.3 31.09-56.011 62.39-62.39v46.39c0 8.822-7.178 16-16 16zm-112-136c0-48.523-39.477-88-88-88s-88 39.477-88 88 39.477 88 88 88 88-39.477 88-88zm-144 0c0-30.879 25.121-56 56-56s56 25.121 56 56-25.121 56-56 56-56-25.121-56-56zm-72-16c8.837 0 16 7.163 16 16s-7.163 16-16 16h-8c-8.837 0-16-7.163-16-16s7.163-16 16-16zm256 32c-8.837 0-16-7.163-16-16s7.163-16 16-16h8c8.837 0 16 7.163 16 16s-7.163 16-16 16zm-83.687 196.687c6.249 6.248 6.249 16.379 0 22.627l-33 33c-6.249 6.249-16.379 6.248-22.627 0l-33-33c-6.249-6.248-6.249-16.379 0-22.627 6.248-6.248 16.379-6.248 22.627 0l5.687 5.687v-76.374c0-8.837 7.163-16 16-16s16 7.163 16 16v76.373l5.687-5.687c6.248-6.248 16.378-6.248 22.626.001z" data-original="#000000" class="active-path" data-old_color="#000000" fill="#21CE99"/></g> </svg>
