<?xml version="1.0"?>
<svg xmlns="http://www.w3.org/2000/svg" xmlns:xlink="http://www.w3.org/1999/xlink" xmlns:svgjs="http://svgjs.com/svgjs" version="1.1" width="512" height="512" x="0" y="0" viewBox="0 0 64 64" style="enable-background:new 0 0 512 512" xml:space="preserve" class=""><g><g xmlns="http://www.w3.org/2000/svg" id="Outline"><circle cx="43" cy="36" r="1" fill="#ffcd00" data-original="#000000" style="" class=""/><circle cx="47" cy="36" r="1" fill="#ffcd00" data-original="#000000" style="" class=""/><path d="M61,60H55.974A4.948,4.948,0,0,0,57,57V53a1,1,0,0,0-1-1H52V51a1,1,0,0,0-2,0v5H47.469l.493-1.725a1,1,0,0,0-1.924-.55L45.216,56.6A2.988,2.988,0,0,0,44,59v1H38.974A4.948,4.948,0,0,0,40,57V51a1,1,0,0,0-2,0v1H35V49a5.006,5.006,0,0,1,5-5h1a1,1,0,0,0,.293.707l3,3a1,1,0,0,0,1.414,0l3-3A1,1,0,0,0,49,44h1a5.006,5.006,0,0,1,5,5,1,1,0,0,0,2,0,7.008,7.008,0,0,0-7-7h-.111A6.973,6.973,0,0,0,52,37v-.281A7.016,7.016,0,0,0,55,31a6.843,6.843,0,0,0-.69-3.018,1,1,0,0,0-1.8.875A4.85,4.85,0,0,1,53,31a4.981,4.981,0,0,1-1,2.981V32a1,1,0,0,0-1-1H49.828a5.789,5.789,0,0,1-4.121-1.707,1.029,1.029,0,0,0-1.414,0A5.789,5.789,0,0,1,40.172,31H39a1,1,0,0,0-1,1v1.964A4.973,4.973,0,0,1,42,26h6a4.864,4.864,0,0,1,2.143.489,1,1,0,0,0,.875-1.8A6.827,6.827,0,0,0,48,24H42a6.983,6.983,0,0,0-4,12.719V37a6.973,6.973,0,0,0,2.111,5H40a7,7,0,0,0-6,3.413V41a1,1,0,0,0-2,0v7a4,4,0,0,1-4,4H22.883l-.519-4.147a4.4,4.4,0,0,0-8.728,0L12.617,56H10a5.009,5.009,0,0,0-4.9,4H3a1,1,0,0,0,0,2H16a1,1,0,0,0,0-2H14.133L15.62,48.1a2.4,2.4,0,0,1,4.76,0L21.867,60H20a1,1,0,0,0,0,2H61a1,1,0,0,0,0-2ZM45,45.586l-1.839-1.839a6.81,6.81,0,0,0,3.678,0ZM40,37V33h.172A7.764,7.764,0,0,0,45,31.335,7.764,7.764,0,0,0,49.828,33H50v4a5,5,0,0,1-10,0ZM7.184,60A3,3,0,0,1,10,58h2.367l-.25,2ZM38,57a3,3,0,0,1-3,3H30.9a4.957,4.957,0,0,0-.92-1.995c.007,0,.013-.005.021-.005h5a1,1,0,0,0,0-2V54h3ZM28,54a6,6,0,0,0,5-2.69V56H30a2.978,2.978,0,0,0-1.723.574A4.948,4.948,0,0,0,26,56H23.383l-.25-2Zm-4.367,4H26a2.973,2.973,0,0,1,1.793.609l.009.01.007,0A3,3,0,0,1,28.816,60H23.883ZM46,60V59a1,1,0,0,1,1-1h5a1,1,0,0,0,0-2V54h3v3a3,3,0,0,1-3,3Z" fill="#ffcd00" data-original="#000000" style="" class=""/><path d="M7,54h3a1,1,0,0,0,0-2H7a3,3,0,0,1-3-3V37a3,3,0,0,1,3-3H29a3,3,0,0,1,3,3,1,1,0,0,0,2,0,5.006,5.006,0,0,0-5-5h-.811l2.631-4.557a1,1,0,0,0,.114-.3l1.267-6.2A1,1,0,0,0,30.559,20l-4.732,4.2a.99.99,0,0,0-.2.248l-.84,1.455a3.009,3.009,0,0,0-1.5-1.6l.661-1.985a1,1,0,0,0-.019-.688l-2-5A1,1,0,0,0,21,16H17a1,1,0,0,0-.929.628l-2,5a1,1,0,0,0-.019.688l.661,1.985a2.981,2.981,0,0,0,.337,5.53L15.186,32H11.505l-.139-.242.866-.5a1,1,0,1,0-1-1.732l-.866.5-1-1.731.866-.5a1,1,0,1,0-1-1.732l-.866.5-1-1.732.866-.5a1,1,0,1,0-1-1.732l-.866.5-1-1.732,3.464-2,2.439,4.224a1,1,0,1,0,1.732-1L10.062,17.5A1,1,0,0,0,8.7,17.134l-5.2,3A1,1,0,0,0,3.134,21.5L9.2,32H7a5.006,5.006,0,0,0-5,5V49A5.006,5.006,0,0,0,7,54ZM29.252,25.383l-1.06-.612,1.449-1.286Zm-2.4.926,1.732,1L25.88,32H23.57ZM17.677,18H18v3a1,1,0,0,0,2,0V18h.323l1.613,4.031L21.279,24H16.721l-.657-1.969ZM16,26h6a1,1,0,0,1,0,2H16a1,1,0,0,1,0-2Zm1.064,4h3.872l-.125,2H17.189Z" fill="#ffcd00" data-original="#000000" style="" class=""/><path d="M14,39a1,1,0,0,0,0,2h8a1,1,0,0,0,0-2Z" fill="#ffcd00" data-original="#000000" style="" class=""/></g></g></svg>
