<svg width="1145" height="618" viewBox="0 0 1145 618" fill="none" xmlns="http://www.w3.org/2000/svg">
<path opacity="0.1" d="M1144 396.19C1144.01 412.96 1141.71 429.651 1137.15 445.79C1132.74 461.348 1126.26 476.242 1117.88 490.07C1117.88 540.17 1084.06 583.47 1034.97 604.07C1014.46 612.591 992.453 616.943 970.24 616.87H217.17C176.92 616.87 139.62 606.01 109.03 587.51C100.276 582.24 91.971 576.256 84.2005 569.62C50.2005 540.4 29.1205 500.02 29.1205 455.42C10.0386 426.037 -0.0794755 391.735 0.000470113 356.7C0.000470113 283.34 43.3905 220.26 105.55 192.41C113.805 188.714 122.334 185.664 131.06 183.29C134.147 182.45 137.267 181.697 140.42 181.03C148.827 179.24 157.353 178.07 165.93 177.53C169.03 177.337 172.147 177.227 175.28 177.2H177C180.46 177.2 183.89 177.32 187.3 177.52L188.42 175.62C189.794 173.327 191.2 171.057 192.64 168.81C195.24 164.717 197.967 160.683 200.82 156.71C203.807 152.517 206.924 148.39 210.17 144.33L211 143.33C212.84 141.037 214.72 138.77 216.64 136.53C222.64 129.537 228.974 122.753 235.64 116.18C307.75 45.5 420.72 0 547.72 0C646.54 0 736.87 27.55 806.06 73.07C832.272 58.2366 861.883 50.4533 892 50.48C989.74 50.48 1069 130.85 1069 229.99C1068.99 236.263 1068.65 242.531 1068 248.77C1091.56 265.448 1110.76 287.548 1123.99 313.205C1137.22 338.862 1144.08 367.324 1144 396.19V396.19Z" fill="#21CE99"/>
<path opacity="0.2" d="M235.661 116.14V136.49H216.661C222.614 129.503 228.947 122.72 235.661 116.14Z" fill="#21CE99"/>
<path opacity="0.2" d="M270.531 110.98H245.021V136.49H270.531V110.98Z" fill="#21CE99"/>
<path opacity="0.2" d="M305.391 110.98H279.88V136.49H305.391V110.98Z" fill="#21CE99"/>
<path opacity="0.2" d="M340.26 110.98H314.75V136.49H340.26V110.98Z" fill="#21CE99"/>
<path opacity="0.2" d="M375.12 110.98H349.61V136.49H375.12V110.98Z" fill="#21CE99"/>
<path opacity="0.2" d="M409.99 110.98H384.48V136.49H409.99V110.98Z" fill="#21CE99"/>
<path d="M444.86 110.98H419.35V136.49H444.86V110.98Z" fill="#21CE99"/>
<path opacity="0.2" d="M479.72 110.98H454.21V136.49H479.72V110.98Z" fill="#21CE99"/>
<path opacity="0.2" d="M514.59 110.98H489.08V136.49H514.59V110.98Z" fill="#21CE99"/>
<path opacity="0.2" d="M549.45 110.98H523.94V136.49H549.45V110.98Z" fill="#21CE99"/>
<path d="M584.32 110.98H558.81V136.49H584.32V110.98Z" fill="#21CE99"/>
<path opacity="0.2" d="M619.19 110.98H593.68V136.49H619.19V110.98Z" fill="#21CE99"/>
<path opacity="0.2" d="M654.051 110.98H628.541V136.49H654.051V110.98Z" fill="#21CE99"/>
<path opacity="0.2" d="M688.92 110.98H663.41V136.49H688.92V110.98Z" fill="#21CE99"/>
<path opacity="0.2" d="M723.79 110.98H698.281V136.49H723.79V110.98Z" fill="#21CE99"/>
<path opacity="0.2" d="M758.651 110.98H733.141V136.49H758.651V110.98Z" fill="#21CE99"/>
<path opacity="0.2" d="M793.521 110.98H768.01V136.49H793.521V110.98Z" fill="#21CE99"/>
<path d="M828.38 110.98H802.87V136.49H828.38V110.98Z" fill="#21CE99"/>
<path d="M863.25 110.98H837.74V136.49H863.25V110.98Z" fill="#21CE99"/>
<path opacity="0.2" d="M898.12 110.98H872.61V136.49H898.12V110.98Z" fill="#21CE99"/>
<path opacity="0.2" d="M932.98 110.98H907.47V136.49H932.98V110.98Z" fill="#21CE99"/>
<path d="M967.851 110.98H942.341V136.49H967.851V110.98Z" fill="#21CE99"/>
<path d="M1002.71 110.98H977.2V136.49H1002.71V110.98Z" fill="#21CE99"/>
<path d="M200.8 156.7V168.8H192.62C195.22 164.68 197.947 160.647 200.8 156.7Z" fill="#21CE99"/>
<path opacity="0.2" d="M235.661 143.29H210.151V168.8H235.661V143.29Z" fill="#21CE99"/>
<path d="M270.531 143.29H245.021V168.8H270.531V143.29Z" fill="#21CE99"/>
<path opacity="0.2" d="M305.391 143.29H279.88V168.8H305.391V143.29Z" fill="#21CE99"/>
<path opacity="0.7" d="M340.26 143.29H314.75V168.8H340.26V143.29Z" fill="#21CE99"/>
<path opacity="0.2" d="M375.12 143.29H349.61V168.8H375.12V143.29Z" fill="#21CE99"/>
<path opacity="0.4" d="M409.99 143.29H384.48V168.8H409.99V143.29Z" fill="#21CE99"/>
<path d="M444.86 143.29H419.35V168.8H444.86V143.29Z" fill="#21CE99"/>
<path opacity="0.4" d="M479.72 143.29H454.21V168.8H479.72V143.29Z" fill="#21CE99"/>
<path opacity="0.2" d="M514.59 143.29H489.08V168.8H514.59V143.29Z" fill="#21CE99"/>
<path opacity="0.4" d="M549.45 143.29H523.94V168.8H549.45V143.29Z" fill="#21CE99"/>
<path d="M584.32 143.29H558.81V168.8H584.32V143.29Z" fill="#21CE99"/>
<path opacity="0.4" d="M619.19 143.29H593.68V168.8H619.19V143.29Z" fill="#21CE99"/>
<path opacity="0.4" d="M654.051 143.29H628.541V168.8H654.051V143.29Z" fill="#21CE99"/>
<path opacity="0.2" d="M688.92 143.29H663.41V168.8H688.92V143.29Z" fill="#21CE99"/>
<path opacity="0.4" d="M723.79 143.29H698.281V168.8H723.79V143.29Z" fill="#21CE99"/>
<path opacity="0.4" d="M758.651 143.29H733.141V168.8H758.651V143.29Z" fill="#21CE99"/>
<path opacity="0.2" d="M793.521 143.29H768.01V168.8H793.521V143.29Z" fill="#21CE99"/>
<path opacity="0.2" d="M828.38 143.29H802.87V168.8H828.38V143.29Z" fill="#21CE99"/>
<path opacity="0.4" d="M863.25 143.29H837.74V168.8H863.25V143.29Z" fill="#21CE99"/>
<path opacity="0.2" d="M898.12 143.29H872.61V168.8H898.12V143.29Z" fill="#21CE99"/>
<path d="M932.98 143.29H907.47V168.8H932.98V143.29Z" fill="#21CE99"/>
<path d="M967.851 143.29H942.341V168.8H967.851V143.29Z" fill="#21CE99"/>
<path d="M1002.71 143.29H977.2V168.8H1002.71V143.29Z" fill="#21CE99"/>
<path opacity="0.2" d="M131.06 183.29V201.12H105.55V192.41C113.805 188.714 122.334 185.664 131.06 183.29V183.29Z" fill="#21CE99"/>
<path opacity="0.2" d="M165.93 177.53V201.12H140.42V181.03L165.93 177.53Z" fill="#21CE99"/>
<path d="M200.791 175.61H175.281V201.12H200.791V175.61Z" fill="#21CE99"/>
<path opacity="0.7" d="M235.661 175.61H210.151V201.12H235.661V175.61Z" fill="#21CE99"/>
<path d="M270.531 175.61H245.021V201.12H270.531V175.61Z" fill="#21CE99"/>
<path opacity="0.7" d="M305.391 175.61H279.88V201.12H305.391V175.61Z" fill="#21CE99"/>
<path opacity="0.7" d="M340.26 175.61H314.75V201.12H340.26V175.61Z" fill="#21CE99"/>
<path opacity="0.2" d="M375.12 175.61H349.61V201.12H375.12V175.61Z" fill="#21CE99"/>
<path opacity="0.4" d="M409.99 175.61H384.48V201.12H409.99V175.61Z" fill="#21CE99"/>
<path opacity="0.4" d="M444.86 175.61H419.35V201.12H444.86V175.61Z" fill="#21CE99"/>
<path d="M479.72 175.61H454.21V201.12H479.72V175.61Z" fill="#21CE99"/>
<path opacity="0.2" d="M514.59 175.61H489.08V201.12H514.59V175.61Z" fill="#21CE99"/>
<path opacity="0.4" d="M549.45 175.61H523.94V201.12H549.45V175.61Z" fill="#21CE99"/>
<path d="M584.32 175.61H558.81V201.12H584.32V175.61Z" fill="#21CE99"/>
<path opacity="0.2" d="M619.19 175.61H593.68V201.12H619.19V175.61Z" fill="#21CE99"/>
<path opacity="0.4" d="M654.051 175.61H628.541V201.12H654.051V175.61Z" fill="#21CE99"/>
<path opacity="0.2" d="M688.92 175.61H663.41V201.12H688.92V175.61Z" fill="#21CE99"/>
<path d="M723.79 175.61H698.281V201.12H723.79V175.61Z" fill="#21CE99"/>
<path opacity="0.2" d="M758.651 175.61H733.141V201.12H758.651V175.61Z" fill="#21CE99"/>
<path opacity="0.7" d="M793.521 175.61H768.01V201.12H793.521V175.61Z" fill="#21CE99"/>
<path opacity="0.7" d="M828.38 175.61H802.87V201.12H828.38V175.61Z" fill="#21CE99"/>
<path opacity="0.4" d="M863.25 175.61H837.74V201.12H863.25V175.61Z" fill="#21CE99"/>
<path opacity="0.2" d="M898.12 175.61H872.61V201.12H898.12V175.61Z" fill="#21CE99"/>
<path d="M932.98 175.61H907.47V201.12H932.98V175.61Z" fill="#21CE99"/>
<path d="M967.851 175.61H942.341V201.12H967.851V175.61Z" fill="#21CE99"/>
<path d="M1002.71 175.61H977.2V201.12H1002.71V175.61Z" fill="#21CE99"/>
<path opacity="0.2" d="M131.06 207.92H105.55V233.43H131.06V207.92Z" fill="#21CE99"/>
<path opacity="0.2" d="M165.93 207.92H140.42V233.43H165.93V207.92Z" fill="#21CE99"/>
<path opacity="0.2" d="M200.791 207.92H175.281V233.43H200.791V207.92Z" fill="#21CE99"/>
<path opacity="0.2" d="M235.661 207.92H210.151V233.43H235.661V207.92Z" fill="#21CE99"/>
<path d="M270.531 207.92H245.021V233.43H270.531V207.92Z" fill="#21CE99"/>
<path opacity="0.7" d="M305.391 207.92H279.88V233.43H305.391V207.92Z" fill="#21CE99"/>
<path opacity="0.7" d="M340.26 207.92H314.75V233.43H340.26V207.92Z" fill="#21CE99"/>
<path opacity="0.2" d="M375.12 207.92H349.61V233.43H375.12V207.92Z" fill="#21CE99"/>
<path opacity="0.2" d="M409.99 207.92H384.48V233.43H409.99V207.92Z" fill="#21CE99"/>
<path opacity="0.4" d="M444.86 207.92H419.35V233.43H444.86V207.92Z" fill="#21CE99"/>
<path opacity="0.4" d="M479.72 207.92H454.21V233.43H479.72V207.92Z" fill="#21CE99"/>
<path d="M514.59 207.92H489.08V233.43H514.59V207.92Z" fill="#21CE99"/>
<path opacity="0.2" d="M549.45 207.92H523.94V233.43H549.45V207.92Z" fill="#21CE99"/>
<path opacity="0.4" d="M584.32 207.92H558.81V233.43H584.32V207.92Z" fill="#21CE99"/>
<path opacity="0.4" d="M619.19 207.92H593.68V233.43H619.19V207.92Z" fill="#21CE99"/>
<path opacity="0.4" d="M654.051 207.92H628.541V233.43H654.051V207.92Z" fill="#21CE99"/>
<path opacity="0.4" d="M688.92 207.92H663.41V233.43H688.92V207.92Z" fill="#21CE99"/>
<path opacity="0.2" d="M723.79 207.92H698.281V233.43H723.79V207.92Z" fill="#21CE99"/>
<path opacity="0.2" d="M758.651 207.92H733.141V233.43H758.651V207.92Z" fill="#21CE99"/>
<path opacity="0.2" d="M793.521 207.92H768.01V233.43H793.521V207.92Z" fill="#21CE99"/>
<path opacity="0.2" d="M828.38 207.92H802.87V233.43H828.38V207.92Z" fill="#21CE99"/>
<path opacity="0.7" d="M863.25 207.92H837.74V233.43H863.25V207.92Z" fill="#21CE99"/>
<path opacity="0.7" d="M898.12 207.92H872.61V233.43H898.12V207.92Z" fill="#21CE99"/>
<path opacity="0.4" d="M932.98 207.92H907.47V233.43H932.98V207.92Z" fill="#21CE99"/>
<path opacity="0.2" d="M967.851 207.92H942.341V233.43H967.851V207.92Z" fill="#21CE99"/>
<path d="M1002.71 207.92H977.2V233.43H1002.71V207.92Z" fill="#21CE99"/>
<path opacity="0.2" d="M131.06 240.24H105.55V265.75H131.06V240.24Z" fill="#21CE99"/>
<path opacity="0.2" d="M165.93 240.24H140.42V265.75H165.93V240.24Z" fill="#21CE99"/>
<path opacity="0.4" d="M200.791 240.24H175.281V265.75H200.791V240.24Z" fill="#21CE99"/>
<path opacity="0.2" d="M235.661 240.24H210.151V265.75H235.661V240.24Z" fill="#21CE99"/>
<path opacity="0.2" d="M270.531 240.24H245.021V265.75H270.531V240.24Z" fill="#21CE99"/>
<path opacity="0.7" d="M305.391 240.24H279.88V265.75H305.391V240.24Z" fill="#21CE99"/>
<path opacity="0.7" d="M340.26 240.24H314.75V265.75H340.26V240.24Z" fill="#21CE99"/>
<path opacity="0.2" d="M375.12 240.24H349.61V265.75H375.12V240.24Z" fill="#21CE99"/>
<path opacity="0.2" d="M409.99 240.24H384.48V265.75H409.99V240.24Z" fill="#21CE99"/>
<path opacity="0.4" d="M444.86 240.24H419.35V265.75H444.86V240.24Z" fill="#21CE99"/>
<path d="M479.72 240.24H454.21V265.75H479.72V240.24Z" fill="#21CE99"/>
<path opacity="0.2" d="M514.59 240.24H489.08V265.75H514.59V240.24Z" fill="#21CE99"/>
<path d="M549.45 240.24H523.94V265.75H549.45V240.24Z" fill="#21CE99"/>
<path d="M584.32 240.24H558.81V265.75H584.32V240.24Z" fill="#21CE99"/>
<path d="M619.19 240.24H593.68V265.75H619.19V240.24Z" fill="#21CE99"/>
<path opacity="0.2" d="M654.051 240.24H628.541V265.75H654.051V240.24Z" fill="#21CE99"/>
<path d="M688.92 240.24H663.41V265.75H688.92V240.24Z" fill="#21CE99"/>
<path opacity="0.2" d="M723.79 240.24H698.281V265.75H723.79V240.24Z" fill="#21CE99"/>
<path opacity="0.2" d="M758.651 240.24H733.141V265.75H758.651V240.24Z" fill="#21CE99"/>
<path opacity="0.2" d="M793.521 240.24H768.01V265.75H793.521V240.24Z" fill="#21CE99"/>
<path opacity="0.2" d="M828.38 240.24H802.87V265.75H828.38V240.24Z" fill="#21CE99"/>
<path opacity="0.2" d="M863.25 240.24H837.74V265.75H863.25V240.24Z" fill="#21CE99"/>
<path opacity="0.7" d="M898.12 240.24H872.61V265.75H898.12V240.24Z" fill="#21CE99"/>
<path opacity="0.2" d="M932.98 240.24H907.47V265.75H932.98V240.24Z" fill="#21CE99"/>
<path opacity="0.2" d="M967.851 240.24H942.341V265.75H967.851V240.24Z" fill="#21CE99"/>
<path d="M1002.71 240.24H977.2V265.75H1002.71V240.24Z" fill="#21CE99"/>
<path opacity="0.2" d="M131.06 272.55H105.55V298.06H131.06V272.55Z" fill="#21CE99"/>
<path opacity="0.2" d="M165.93 272.55H140.42V298.06H165.93V272.55Z" fill="#21CE99"/>
<path opacity="0.2" d="M200.791 272.55H175.281V298.06H200.791V272.55Z" fill="#21CE99"/>
<path opacity="0.4" d="M235.661 272.55H210.151V298.06H235.661V272.55Z" fill="#21CE99"/>
<path opacity="0.2" d="M270.531 272.55H245.021V298.06H270.531V272.55Z" fill="#21CE99"/>
<path opacity="0.2" d="M305.391 272.55H279.88V298.06H305.391V272.55Z" fill="#21CE99"/>
<path opacity="0.7" d="M340.26 272.55H314.75V298.06H340.26V272.55Z" fill="#21CE99"/>
<path opacity="0.2" d="M375.12 272.55H349.61V298.06H375.12V272.55Z" fill="#21CE99"/>
<path opacity="0.2" d="M409.99 272.55H384.48V298.06H409.99V272.55Z" fill="#21CE99"/>
<path opacity="0.2" d="M444.86 272.55H419.35V298.06H444.86V272.55Z" fill="#21CE99"/>
<path d="M479.72 272.55H454.21V298.06H479.72V272.55Z" fill="#21CE99"/>
<path opacity="0.2" d="M514.59 272.55H489.08V298.06H514.59V272.55Z" fill="#21CE99"/>
<path d="M549.45 272.55H523.94V298.06H549.45V272.55Z" fill="#21CE99"/>
<path d="M584.32 272.55H558.81V298.06H584.32V272.55Z" fill="#21CE99"/>
<path opacity="0.2" d="M619.19 272.55H593.68V298.06H619.19V272.55Z" fill="#21CE99"/>
<path opacity="0.2" d="M654.051 272.55H628.541V298.06H654.051V272.55Z" fill="#21CE99"/>
<path opacity="0.2" d="M688.92 272.55H663.41V298.06H688.92V272.55Z" fill="#21CE99"/>
<path opacity="0.2" d="M723.79 272.55H698.281V298.06H723.79V272.55Z" fill="#21CE99"/>
<path opacity="0.2" d="M758.651 272.55H733.141V298.06H758.651V272.55Z" fill="#21CE99"/>
<path opacity="0.2" d="M793.521 272.55H768.01V298.06H793.521V272.55Z" fill="#21CE99"/>
<path opacity="0.2" d="M828.38 272.55H802.87V298.06H828.38V272.55Z" fill="#21CE99"/>
<path opacity="0.2" d="M863.25 272.55H837.74V298.06H863.25V272.55Z" fill="#21CE99"/>
<path opacity="0.2" d="M898.12 272.55H872.61V298.06H898.12V272.55Z" fill="#21CE99"/>
<path opacity="0.2" d="M932.98 272.55H907.47V298.06H932.98V272.55Z" fill="#21CE99"/>
<path opacity="0.4" d="M967.851 272.55H942.341V298.06H967.851V272.55Z" fill="#21CE99"/>
<path d="M1002.71 272.55H977.2V298.06H1002.71V272.55Z" fill="#21CE99"/>
<path opacity="0.7" d="M131.06 304.87H105.55V330.38H131.06V304.87Z" fill="#21CE99"/>
<path opacity="0.7" d="M165.93 304.87H140.42V330.38H165.93V304.87Z" fill="#21CE99"/>
<path opacity="0.7" d="M200.791 304.87H175.281V330.38H200.791V304.87Z" fill="#21CE99"/>
<path opacity="0.7" d="M235.661 304.87H210.151V330.38H235.661V304.87Z" fill="#21CE99"/>
<path opacity="0.7" d="M270.531 304.87H245.021V330.38H270.531V304.87Z" fill="#21CE99"/>
<path opacity="0.2" d="M305.391 304.87H279.88V330.38H305.391V304.87Z" fill="#21CE99"/>
<path opacity="0.2" d="M340.26 304.87H314.75V330.38H340.26V304.87Z" fill="#21CE99"/>
<path opacity="0.2" d="M375.12 304.87H349.61V330.38H375.12V304.87Z" fill="#21CE99"/>
<path opacity="0.2" d="M409.99 304.87H384.48V330.38H409.99V304.87Z" fill="#21CE99"/>
<path opacity="0.2" d="M444.86 304.87H419.35V330.38H444.86V304.87Z" fill="#21CE99"/>
<path opacity="0.2" d="M479.72 304.87H454.21V330.38H479.72V304.87Z" fill="#21CE99"/>
<path d="M514.59 304.87H489.08V330.38H514.59V304.87Z" fill="#21CE99"/>
<path opacity="0.2" d="M549.45 304.87H523.94V330.38H549.45V304.87Z" fill="#21CE99"/>
<path opacity="0.2" d="M584.32 304.87H558.81V330.38H584.32V304.87Z" fill="#21CE99"/>
<path opacity="0.2" d="M619.19 304.87H593.68V330.38H619.19V304.87Z" fill="#21CE99"/>
<path d="M654.051 304.87H628.541V330.38H654.051V304.87Z" fill="#21CE99"/>
<path opacity="0.2" d="M688.92 304.87H663.41V330.38H688.92V304.87Z" fill="#21CE99"/>
<path opacity="0.2" d="M723.79 304.87H698.281V330.38H723.79V304.87Z" fill="#21CE99"/>
<path opacity="0.2" d="M758.651 304.87H733.141V330.38H758.651V304.87Z" fill="#21CE99"/>
<path opacity="0.2" d="M793.521 304.87H768.01V330.38H793.521V304.87Z" fill="#21CE99"/>
<path opacity="0.2" d="M828.38 304.87H802.87V330.38H828.38V304.87Z" fill="#21CE99"/>
<path opacity="0.2" d="M863.25 304.87H837.74V330.38H863.25V304.87Z" fill="#21CE99"/>
<path opacity="0.2" d="M898.12 304.87H872.61V330.38H898.12V304.87Z" fill="#21CE99"/>
<path opacity="0.2" d="M932.98 304.87H907.47V330.38H932.98V304.87Z" fill="#21CE99"/>
<path opacity="0.2" d="M967.851 304.87H942.341V330.38H967.851V304.87Z" fill="#21CE99"/>
<path d="M1002.71 304.87H977.2V330.38H1002.71V304.87Z" fill="#21CE99"/>
<path d="M734.521 398.72C753.779 398.72 769.391 383.108 769.391 363.85C769.391 344.592 753.779 328.98 734.521 328.98C715.262 328.98 699.651 344.592 699.651 363.85C699.651 383.108 715.262 398.72 734.521 398.72Z" fill="#767D9F"/>
<path d="M732.71 319.49C736.19 334.677 739.144 349.977 741.57 365.39C742.3 369.97 742.95 374.8 741.29 379.13C739.9 382.74 737.07 385.56 734.85 388.72C732.63 391.88 730.95 395.93 732.3 399.55C733.65 403.17 737.59 405.15 741.35 406.17C752.11 409.07 763.58 406.96 774.29 403.82C779.14 402.572 783.789 400.646 788.1 398.1C792.64 395.22 796.36 391.22 799.78 387.1C815.39 368.17 825.61 345.45 835.23 322.87C829.049 323.433 822.822 322.516 817.065 320.197C811.308 317.877 806.185 314.221 802.12 309.53C798.18 304.9 795.29 298.45 797.51 292.79C791 296.36 783.27 296.6 776.26 299.04C771.913 300.7 767.729 302.759 763.76 305.19C758.974 307.957 754.214 310.777 749.48 313.65C744.07 316.91 739 319.81 732.71 319.49Z" fill="#B17C7C"/>
<path d="M805.641 345.67C799.531 357.56 791.58 368.99 780.23 376.07C768.88 383.15 753.6 385.07 742.23 378.07C736.63 374.65 732.39 369.45 727.5 365.07C722.61 360.69 716.5 356.94 709.93 357.51C702.69 358.14 697.02 363.79 692.17 369.2C684.81 377.42 677.7 385.99 672.49 395.72C662.49 414.42 660.12 436.28 660.56 457.48C661 478.68 664.071 499.77 664.141 520.97C664.241 547.05 659.82 572.92 655.35 598.61C696.45 593.55 737.6 604.61 778.79 608.8C805.15 611.51 831.711 611.45 858.211 611.38C862.871 611.38 867.831 611.26 871.711 608.68C874.082 606.95 876 604.672 877.3 602.04C880.96 595.29 882.431 587.59 883.451 579.98C886.041 560.76 886.12 541.3 886.19 521.9C886.37 474.9 886.54 427.73 880.57 381.1C879.1 369.63 877.22 358.1 872.82 347.37C868.42 336.64 861.241 326.77 851.201 321.02C844.751 317.32 829.801 310.88 822.201 314.61C813.671 318.77 809.731 337.71 805.641 345.67Z" fill="#0F1327"/>
<path d="M808.681 478.39C807.131 449.39 800.821 418.44 814.251 392.7C817.551 386.38 805.711 378.49 809.371 372.37C813.837 364.908 817.224 356.852 819.431 348.44C820.191 345.55 820.801 342.49 820.081 339.59C818.751 334.3 813.521 331.15 809.081 327.93C804.181 324.37 801.661 313.52 800.081 307.65C798.501 301.78 812.651 308.85 818.341 306.76C826.241 303.87 836.28 305.69 844.16 308.62C848.56 310.24 853.341 310.38 858.031 310.5C867.141 310.74 876.281 310.97 885.321 309.85C889.381 309.34 893.451 308.57 897.531 308.8C907.941 309.39 916.991 316.51 923.151 324.93C929.311 333.35 933.231 343.16 938.281 352.28C942.491 359.88 947.51 367.06 951.1 374.97C954.28 381.97 956.291 389.49 958.281 396.97L963.41 416.16C964.308 418.905 964.734 421.783 964.671 424.67C964.411 427.74 963.051 430.6 961.671 433.33C956.452 443.449 950.195 452.997 943.001 461.82C932.211 475.05 919.111 486.98 912.701 502.82C910.201 508.99 908.81 515.55 907.54 522.09C902.42 548.247 898.781 574.673 896.641 601.24C884.956 595.833 872.708 591.738 860.121 589.03C853.846 587.687 847.503 586.686 841.121 586.03C835.531 585.45 828.321 586.55 823.001 585.03C814.101 582.5 813.121 567.45 811.771 559.57C809.611 547.02 809.18 534.25 809.1 521.57C809 507.15 809.451 492.76 808.681 478.39Z" fill="#21CE99"/>
<path d="M613.23 424.16C617.44 448.16 622.08 472.23 631.23 494.78C631 495 630.77 495.2 630.54 495.4C629.73 496.09 628.89 496.74 628.01 497.4C625.96 498.84 623.71 500.06 622.01 501.94C621.367 502.659 620.858 503.49 620.51 504.39C620.196 505.093 620.034 505.855 620.034 506.625C620.034 507.395 620.196 508.157 620.51 508.86C615.74 510.97 610.2 510.32 604.85 510.12C600.24 509.95 595.77 510.12 592.07 512.65C586.93 516.19 585.38 522.99 584.55 529.17C584.244 531.423 583.98 533.68 583.76 535.94C583.547 538.04 583.374 540.147 583.24 542.26C582.787 549.251 582.724 556.262 583.05 563.26C583.104 564.54 583.174 565.82 583.26 567.1C566.92 566.71 552.03 558.19 537.94 549.91C534.72 548.02 531.4 546.03 529.31 542.91C527.385 539.846 526.569 536.213 527 532.62C527 532.11 527.09 531.62 527.16 531.1C527.608 528.132 528.376 525.222 529.45 522.42C533.859 510.484 540.357 499.428 548.64 489.77C552.22 485.59 556.25 481.5 557.92 476.25C558.65 473.96 558.92 471.53 559.66 469.25C562.98 459.37 574.96 454.7 579.06 445.11C580.06 442.82 580.52 440.31 581.76 438.11C582.877 436.282 584.317 434.672 586.01 433.36C586.74 432.75 587.5 432.16 588.25 431.57C595.277 426.063 602.047 420.247 608.56 414.12C609.774 412.98 610.974 411.827 612.16 410.66C612.002 415.186 612.361 419.715 613.23 424.16V424.16Z" fill="#21CE99"/>
<path d="M714 353.18C712.56 354.7 711 356.13 709.47 357.55L709.06 357.92L707.44 359.42C704.5 361.958 701.955 364.92 699.89 368.21L699.72 368.49C694.62 377.62 696.51 388.86 697.93 399.23C699.692 412.153 700.484 425.189 700.3 438.23C700.04 456.23 697.92 474.11 697.88 492.09C697.88 496.17 697.97 500.24 698.15 504.32C698.44 510.95 698.94 517.57 699.54 524.19C700.19 531.45 700.97 538.7 701.7 545.95C702.28 551.56 702.83 557.16 703.29 562.76C703.52 565.66 703.74 568.55 703.92 571.45C704.13 574.85 704.3 578.26 704.4 581.66C704.47 583.82 704.51 585.97 704.51 588.13C704.51 589.36 704.51 590.58 704.51 591.8C704.51 594.14 704.447 596.473 704.32 598.8C704.187 601.793 703.984 604.793 703.71 607.8C703.4 611.07 702.85 614.64 700.55 616.94C700.41 617.08 700.26 617.21 700.11 617.34L696.87 616.94C674.535 614.266 651.987 613.864 629.57 615.74C630.06 612.36 630.51 608.99 630.95 605.6C631.15 604 631.35 602.39 631.54 600.78C631.76 598.94 631.97 597.1 632.17 595.26C632.4 593.26 632.61 591.26 632.81 589.26C633.33 584.107 633.787 578.95 634.18 573.79C634.76 566.263 635.2 558.723 635.5 551.17C635.647 547.563 635.76 543.953 635.84 540.34C635.954 535.86 636.007 531.377 636 526.89C636 522.53 635.964 518.163 635.89 513.79C635.89 512.35 635.83 510.91 635.71 509.48C635.624 508.192 635.447 506.913 635.18 505.65C634.438 502.739 633.434 499.9 632.18 497.17C631.96 496.65 631.75 496.17 631.54 495.62C631.42 495.35 631.31 495.07 631.2 494.8C636.96 489.67 641.06 482.8 645 476.04C651.39 465.15 657.93 453.78 659 441.2C660.07 428.62 653.82 414.49 641.8 410.65C638.53 409.65 635.07 409.37 631.7 408.78C628.52 408.22 621.89 406.95 618.21 404.67C616.21 406.723 614.21 408.74 612.21 410.72C612.332 407.699 613.07 404.735 614.38 402.01L615.8 402.08C615.685 401.76 615.63 401.42 615.64 401.08C615.64 400.01 616.38 398.8 617.96 397.46C622.67 393.46 630.08 392.57 633.05 387.16C634.29 384.91 634.5 382.23 635.5 379.87C638.37 373.14 646.61 370.66 651.57 365.28C656.53 359.9 657.77 352.28 661.78 346.28C664.776 341.898 668.931 338.436 673.78 336.28C674.18 336.09 674.59 335.9 675 335.73C683.3 332.18 693.16 331.37 701.76 331.39C705.1 331.39 713.76 331.49 718 333.18C718.688 333.426 719.318 333.81 719.85 334.31C724.37 339.23 717.34 349.62 714 353.18Z" fill="#21CE99"/>
<path d="M614.72 401.31C622.445 398.984 630.555 398.217 638.579 399.053C646.603 399.889 654.381 402.312 661.46 406.18C668.66 410.18 675.12 415.76 679.08 422.96C685.03 433.76 684.77 446.78 684.35 459.11C684.14 465.28 683.87 471.67 681.15 477.21C678 483.62 672.06 488.02 666 491.62C662.204 494.042 658.045 495.841 653.68 496.95C646.96 498.41 639.98 497.17 633.21 495.95C625.85 494.59 617.95 492.95 612.84 487.47C609.84 484.29 608.2 480.16 606.58 476.12C604.254 470.287 601.92 464.46 599.58 458.64C595.53 448.53 594.16 440.12 599.51 430.27C601.94 425.78 604.91 421.58 607.31 417.06C608.51 414.76 612.81 401.9 614.72 401.31Z" fill="#21CE99"/>
<path d="M1035 574.18V604.08C1014.49 612.602 992.483 616.953 970.271 616.88H700.581C700.441 617.02 700.291 617.15 700.141 617.28L696.901 616.88H217.171C176.921 616.88 139.621 606.02 109.031 587.52V541.87L339.751 515.24H339.931L474.291 526.62L509.061 529.62L527.121 531.15L564.501 534.32L583.73 535.95L611.73 538.33L615.671 538.66L635.85 540.37L663.23 542.62L701.73 545.88L765.911 551.33L811.061 555.16L885.201 561.45L899.301 562.64L900.821 562.77L902.141 562.88L920.76 564.46L941.201 566.2L943.571 566.4L1035 574.18Z" fill="#8D8A87"/>
<path d="M764.001 573.08L474.861 523.73L463.651 580.42L596.191 596.29L637.001 601.4L749.261 579.29L764.001 573.08Z" fill="#CACAD0"/>
<path d="M614.331 598.56L759.191 571.33C759.915 571.191 760.662 571.215 761.376 571.399C762.091 571.582 762.756 571.922 763.324 572.393C763.892 572.865 764.348 573.456 764.66 574.124C764.973 574.793 765.133 575.522 765.131 576.26V576.26C765.134 577.431 764.726 578.565 763.979 579.466C763.231 580.367 762.192 580.977 761.041 581.19L619.571 607.68L614.331 598.56Z" fill="#CACAD0"/>
<path d="M677.17 512.93C681.68 512.51 686.25 511.8 690.31 509.8C695.31 507.31 699.2 503.02 703.83 499.86C714.01 492.86 727.63 491.92 739.3 495.94C750.97 499.96 760.71 508.57 767.53 518.85C772.06 525.7 775.46 534.44 772.26 542C771.163 544.311 769.778 546.475 768.14 548.44L759.8 559.34C758.216 561.631 756.31 563.682 754.14 565.43C751.02 567.7 747.14 568.63 743.32 569.19C733.17 570.67 722.84 569.83 712.61 570.51C695.04 571.68 677.88 577.34 660.27 577.15C650.15 577.04 640.16 575 630.27 572.96L586.5 563.96C578.88 562.4 570.27 560.12 566.68 553.21C565.07 550.1 564.77 546.5 564.58 543C564.06 533.36 564.58 522.64 571.26 515.69C577.54 509.17 587.47 507.11 594.97 502.29C604.15 496.38 607.18 498.29 616.86 502.73C635.745 511.282 656.523 514.797 677.17 512.93V512.93Z" fill="#B17C7C"/>
<path opacity="0.05" d="M677.17 512.93C681.68 512.51 686.25 511.8 690.31 509.8C695.31 507.31 699.2 503.02 703.83 499.86C714.01 492.86 727.63 491.92 739.3 495.94C750.97 499.96 760.71 508.57 767.53 518.85C772.06 525.7 775.46 534.44 772.26 542C771.163 544.311 769.778 546.475 768.14 548.44L759.8 559.34C758.216 561.631 756.31 563.682 754.14 565.43C751.02 567.7 747.14 568.63 743.32 569.19C733.17 570.67 722.84 569.83 712.61 570.51C695.04 571.68 677.88 577.34 660.27 577.15C650.15 577.04 640.16 575 630.27 572.96L586.5 563.96C578.88 562.4 570.27 560.12 566.68 553.21C565.07 550.1 564.77 546.5 564.58 543C564.06 533.36 564.58 522.64 571.26 515.69C577.54 509.17 587.47 507.11 594.97 502.29C604.15 496.38 607.18 498.29 616.86 502.73C635.745 511.282 656.523 514.797 677.17 512.93V512.93Z" fill="#B17C7C"/>
<path d="M852.941 499.22C840.661 503.97 828.311 508.74 815.451 511.57C793.891 516.32 771.331 515.57 749.941 521C738.641 523.88 727.411 528.52 715.801 527.58C710.611 527.16 705.601 525.58 700.551 524.38C672.181 517.38 639.931 519.65 616.891 537.65C609.011 543.8 602.561 551.47 596.711 559.65C595.459 561.417 594.613 563.438 594.233 565.57C593.853 567.702 593.949 569.891 594.514 571.982C595.078 574.072 596.098 576.012 597.499 577.662C598.901 579.313 600.649 580.634 602.621 581.53C611.581 585.651 621.179 588.211 631.001 589.1C644.131 590.26 657.321 588.4 670.381 586.54C689.761 583.79 709.15 581.03 728.48 577.94C735.42 576.83 742.361 575.68 749.341 574.8C799.571 568.45 850.711 576.17 901.071 570.87C906.161 570.33 911.34 569.63 915.97 567.46C927.69 561.96 933.491 547.46 931.071 534.72C928.651 521.98 919.311 511.39 908.071 504.89C898.651 499.42 888.491 497.21 878.001 494.89C868.261 492.62 862.321 495.62 852.941 499.22Z" fill="#B17C7C"/>
<path opacity="0.1" d="M960.67 423.06C966.21 430.32 967.39 440.06 966.79 449.15C966.19 458.24 964.03 467.23 963.71 476.36C963.27 488.88 966.29 501.36 965.78 513.84C965.42 522.57 963.35 531.13 960.9 539.51C958.01 549.4 953.83 560.03 944.7 564.78C932.58 571.09 907.16 567.54 894.41 572.48C895.57 565.25 906.69 554.78 907.85 547.55C908.65 542.55 909.46 537.41 908.6 532.4C907.5 526.01 903.75 520.34 899.3 515.62C892.22 508.11 882.98 502.46 872.83 500.62C862.68 498.78 837.83 500.29 829.71 506.7C828.71 500.08 847.31 493.7 853.85 492.27C857.11 491.54 860.85 491.95 863.46 489.88C868.46 485.96 864.83 478.15 865.07 471.88C865.26 466.88 868.18 462.3 868.77 457.3C869.77 449.3 864.55 441.15 866.6 433.3C867.36 430.4 869.05 427.85 870.22 425.09C873.78 416.64 872.22 407 870.32 398.02C869.14 392.38 867.99 386.02 871.13 381.21C874.04 376.72 882.3 392.71 887.59 391.97C905.06 389.52 920.87 376.57 934.98 387.17C942.17 392.57 943.11 398.17 945.98 405.88C948.77 413.22 956 416.98 960.67 423.06Z" fill="black"/>
<path d="M963.67 423.06C969.21 430.32 970.39 440.06 969.79 449.15C969.19 458.24 967.03 467.23 966.71 476.36C966.27 488.88 969.29 501.36 968.78 513.84C968.42 522.57 966.35 531.13 963.9 539.51C961.01 549.4 956.83 560.03 947.7 564.78C935.58 571.09 910.16 567.54 897.41 572.48C898.57 565.25 909.69 554.78 910.85 547.55C911.65 542.55 912.46 537.41 911.6 532.4C910.5 526.01 906.75 520.34 902.3 515.62C895.22 508.11 885.98 502.46 875.83 500.62C865.68 498.78 840.83 500.29 832.71 506.7C831.71 500.08 850.31 493.7 856.85 492.27C860.11 491.54 863.85 491.95 866.46 489.88C871.46 485.96 867.83 478.15 868.07 471.88C868.26 466.88 871.18 462.3 871.77 457.3C872.77 449.3 867.55 441.15 869.6 433.3C870.36 430.4 872.05 427.85 873.22 425.09C876.78 416.64 875.22 407 873.32 398.02C872.14 392.38 870.99 386.02 874.13 381.21C877.04 376.72 882.73 375.02 888.02 374.27C905.732 371.874 923.678 376.504 938.02 387.17C945.21 392.57 946.15 398.17 949.02 405.88C951.77 413.22 959 416.98 963.67 423.06Z" fill="#21CE99"/>
<path d="M302.001 375.68L356.371 576.62C357.038 579.082 358.439 581.282 360.388 582.928C362.337 584.573 364.742 585.585 367.281 585.83L612.001 609.34C613.995 609.532 616.006 609.244 617.867 608.499C619.727 607.754 621.381 606.574 622.691 605.058C624.002 603.542 624.93 601.734 625.397 599.786C625.865 597.838 625.86 595.806 625.381 593.86L565.841 351.48C565.132 348.599 563.425 346.062 561.023 344.321C558.621 342.58 555.679 341.747 552.721 341.97L313.131 359.89C311.291 360.033 309.506 360.58 307.902 361.492C306.298 362.405 304.915 363.659 303.852 365.168C302.789 366.676 302.072 368.4 301.752 370.217C301.432 372.034 301.517 373.899 302.001 375.68V375.68Z" fill="#CACAD0"/>
<path d="M787.11 414.89C801.967 414.89 814.01 402.69 814.01 387.64C814.01 372.59 801.967 360.39 787.11 360.39C772.254 360.39 760.21 372.59 760.21 387.64C760.21 402.69 772.254 414.89 787.11 414.89Z" fill="white"/>
<path d="M809.201 337.93C809.201 337.93 814.871 354.79 798.141 361.88L796 365.62L806.48 375.96C806.48 375.96 819.4 352.39 818 344.02C818 344.02 816.001 335.52 809.201 337.93Z" fill="white"/>
<path d="M790.201 414.89C804.527 414.89 816.141 403.276 816.141 388.95C816.141 374.624 804.527 363.01 790.201 363.01C775.874 363.01 764.26 374.624 764.26 388.95C764.26 403.276 775.874 414.89 790.201 414.89Z" fill="black"/>
<path d="M818.13 347.85L814.01 341.05L808.01 340.2C809.29 317.81 803.48 311.14 803.48 311.14L802.13 311.01L796.25 310.44L785.19 298.96V295.7C800.73 297.55 809.32 304.93 813.96 313.58C822.16 328.76 818.13 347.85 818.13 347.85Z" fill="black"/>
<path opacity="0.1" d="M802.18 306.89V311.01L796.3 310.44L785.24 298.96C785.24 298.96 802.35 302.79 802.18 306.89Z" fill="black" stroke="#4C4981" stroke-miterlimit="10"/>
<path opacity="0.1" d="M818.13 347.85L814.01 341.05V313.62C822.16 328.76 818.13 347.85 818.13 347.85Z" fill="white" stroke="#4C4981" stroke-miterlimit="10"/>
<path d="M742.267 399.613C749.169 395.628 748.872 382.193 741.604 369.604C734.336 357.016 722.849 350.041 715.947 354.026C709.045 358.01 709.342 371.446 716.61 384.034C723.878 396.623 735.365 403.598 742.267 399.613Z" fill="white"/>
<path d="M733 374.62C740.27 387.21 749.19 395.62 742.29 399.62C735.39 403.62 715.29 401.62 708.02 389.02C700.75 376.42 707.35 359.02 714.25 355.02C721.15 351.02 725.72 362 733 374.62Z" fill="black"/>
<path opacity="0.1" d="M797.73 283.92C797.73 324.15 770.2 362.92 729.97 362.92C710.649 362.92 692.12 355.245 678.458 341.583C664.796 327.921 657.12 309.391 657.12 290.07C657.12 270.749 664.796 252.219 678.458 238.557C692.12 224.895 710.649 217.22 729.97 217.22C770.2 217.26 797.73 243.68 797.73 283.92Z" fill="black"/>
<path d="M729.97 360.96C770.204 360.96 802.82 328.344 802.82 288.11C802.82 247.876 770.204 215.26 729.97 215.26C689.737 215.26 657.12 247.876 657.12 288.11C657.12 328.344 689.737 360.96 729.97 360.96Z" fill="#B17C7C"/>
<path d="M723.57 255.83C732.24 259.02 737.371 267.98 745.151 272.97C756.151 279.97 770.471 278.16 783.031 274.7C790.031 272.79 797.35 270.46 804.24 272.58C805.254 273.029 806.372 273.188 807.47 273.04C808.97 272.61 809.711 270.95 810.201 269.47C818.721 244.07 814.891 215.3 802.031 191.8C798.711 185.74 794.73 179.88 789.25 175.67C784.93 172.36 779.85 170.19 774.73 168.34C765.374 164.98 755.696 162.59 745.85 161.21C744.112 160.894 742.336 160.837 740.581 161.04C738.171 161.43 736.01 162.73 733.86 163.89C724.652 168.826 714.441 171.6 704 172C690 172.53 674.001 169.23 663.211 178.21C650.211 188.98 653.451 209.99 645.021 224.61C639.441 234.28 628.68 241.3 626.91 252.31C626.45 255.675 626.664 259.099 627.54 262.38C631.66 279.32 648.06 292.44 665.54 292.75C668.225 292.955 670.913 292.404 673.3 291.16C674.865 290.093 676.246 288.779 677.391 287.27C688.841 273.71 701.94 247.87 723.57 255.83Z" fill="#444053"/>
<path opacity="0.1" d="M810.201 262.1C809.711 263.58 808.971 265.24 807.471 265.67C806.372 265.818 805.254 265.659 804.241 265.21C797.351 263.09 789.991 265.42 783.041 267.33C770.471 270.79 756.121 272.64 745.161 265.6C737.371 260.6 732.251 251.6 723.571 248.46C701.941 240.46 688.841 266.34 677.361 279.9C676.216 281.409 674.835 282.723 673.271 283.79C670.883 285.034 668.195 285.585 665.511 285.38C648.091 285.07 631.681 271.95 627.511 255.01C627.281 254.01 627.081 253.01 626.931 252.01C626.931 252.1 626.931 252.18 626.881 252.27C626.42 255.635 626.634 259.058 627.511 262.34C631.631 279.28 648.041 292.4 665.511 292.71C668.195 292.915 670.883 292.364 673.271 291.12C674.835 290.052 676.216 288.739 677.361 287.23C688.841 273.67 701.941 247.83 723.571 255.79C732.251 258.98 737.371 267.94 745.161 272.93C756.161 279.93 770.471 278.12 783.041 274.66C790.041 272.75 797.351 270.42 804.241 272.54C805.254 272.989 806.372 273.148 807.471 273C808.971 272.57 809.711 270.91 810.201 269.43C813.637 259.037 815.155 248.106 814.681 237.17C814.386 245.651 812.877 254.047 810.201 262.1V262.1Z" fill="black"/>
</svg>
