<svg width="1119" height="733" viewBox="0 0 1119 733" fill="none" xmlns="http://www.w3.org/2000/svg">
<g clip-path="url(#clip0)">
<path opacity="0.1" d="M559.5 732.13C868.503 732.13 1119 692.731 1119 644.13C1119 595.529 868.503 556.13 559.5 556.13C250.497 556.13 0 595.529 0 644.13C0 692.731 250.497 732.13 559.5 732.13Z" fill="#21CE99"/>
<path d="M927.33 472.98V533.98L911.2 566.52L910.69 567.55L868 564.73L851.59 563.64L813.5 561.13V488.16L851.59 489.23L868.62 489.71L911.71 490.93L927.33 472.98Z" fill="#F86D70"/>
<path opacity="0.1" d="M927.33 476.58V533.98L923.38 541.93L919.35 550.08L911.2 566.52L912.11 505.52L912.29 493.21L920.04 484.64L923.42 480.9L927.33 476.58Z" fill="black"/>
<path d="M929.51 456.78V478.09L927.33 481.58L923.41 487.81L919.95 493.33L912.29 505.53L912.11 505.52L810.14 500.27V479.26L810.4 478.98L822.57 465.8L826.98 461.03L834.95 452.41L929.51 456.78Z" fill="#F86D70"/>
<path opacity="0.1" d="M912.29 484.51V505.53L810.14 500.27V479.26L810.4 478.98L912.29 484.51Z" fill="black"/>
<path opacity="0.15" d="M929.51 456.78V478.09L912.29 505.53V484.51L929.51 456.78Z" fill="black"/>
<path d="M923.43 466.59L923.42 480.9L923.41 487.81L923.38 541.93L919.35 550.08L919.95 493.33L920.04 484.64L920.18 471.82L822.57 465.8L826.98 461.03L923.43 466.59Z" fill="#3F3D56"/>
<path d="M875.52 467.29L868.68 482.14L868.62 489.71L868 564.73L851.59 563.64V481.15L860.34 467.29H875.52Z" fill="#3F3D56"/>
<path d="M853 468.29C849.047 469.61 844.796 469.76 840.76 468.72C839.976 468.566 839.241 468.223 838.62 467.72C837.949 466.978 837.49 466.07 837.29 465.09C836.576 463.067 836.181 460.945 836.12 458.8C836.096 457.725 836.319 456.659 836.774 455.684C837.228 454.709 837.901 453.853 838.74 453.18C839.098 452.965 839.433 452.713 839.74 452.43C840.102 451.969 840.364 451.438 840.51 450.87C841.71 447.3 844.02 443.54 847.74 442.96C851.17 442.44 854.29 444.83 856.94 447.08L862.74 452.02C863.382 450.288 864.534 448.79 866.043 447.725C867.552 446.66 869.349 446.076 871.196 446.051C873.043 446.027 874.855 446.561 876.392 447.586C877.93 448.61 879.121 450.076 879.81 451.79C883.321 447.826 887.75 444.784 892.71 442.93C893.231 442.661 893.805 442.51 894.391 442.488C894.976 442.465 895.56 442.572 896.1 442.8C896.724 443.252 897.195 443.883 897.45 444.61C899.032 448.066 899.889 451.81 899.97 455.61C900.376 455.471 900.816 455.472 901.222 455.611C901.628 455.75 901.975 456.021 902.21 456.38C902.656 457.112 902.911 457.944 902.95 458.8C903.107 460.128 903.183 461.463 903.18 462.8C903.33 464.21 902.975 465.627 902.18 466.8C901 468.18 898.95 468.32 897.18 468.36C898.06 469.14 897.63 470.71 896.66 471.36C895.622 471.917 894.441 472.147 893.27 472.02C888.76 472.02 883.96 471.85 880.2 469.35C878.72 468.35 877.48 467.04 875.99 466.05C872.35 463.64 867.77 463.53 863.56 463.73C859.64 463.92 856.62 467.07 853 468.29Z" fill="#3F3D56"/>
<path d="M852.17 467.3C852.17 467.3 814.52 472.55 809.26 495.3L817.15 494.14L822.69 504.06C822.69 504.06 828.53 481.88 845.75 476.62C862.97 471.36 869.1 470.5 869.1 470.5C869.1 470.5 881.1 473.41 891.86 508.15L897.99 499.68L908.79 502.02C908.79 502.02 900.91 474.87 879.6 467.29L852.17 467.3Z" fill="#3F3D56"/>
<path d="M874.71 496.84V579.24L852.93 623.18V623.19L852.24 624.58L794.57 620.77L772.4 619.3L720.95 615.9V517.34L772.4 518.79L795.41 519.44L853.62 521.08L874.71 496.84Z" fill="#21CE99"/>
<path opacity="0.1" d="M874.71 501.7V579.24L869.39 589.97V589.98L863.93 600.98L852.93 623.18L854.16 540.78L854.41 524.16L864.87 512.59V512.58L869.43 507.54L874.71 501.7Z" fill="black"/>
<path d="M877.67 474.95V503.74L874.71 508.45L869.43 516.86L864.75 524.32L854.41 540.8L854.16 540.78L716.42 533.7V505.31L716.76 504.94L733.21 487.14L739.16 480.69L749.93 469.04L877.67 474.95Z" fill="#21CE99"/>
<path opacity="0.1" d="M854.41 512.41V540.8L716.42 533.7V505.31L716.76 504.94L854.41 512.41Z" fill="black"/>
<path opacity="0.15" d="M877.67 474.95V503.74L854.41 540.8V512.41L877.67 474.95Z" fill="black"/>
<path d="M869.45 488.2L869.43 507.54V516.86L869.39 589.97V589.98L863.93 600.98L864.75 524.32L864.87 512.59V512.58L865.06 495.26L733.21 487.14L739.16 480.69L869.45 488.2Z" fill="#3F3D56"/>
<path d="M804.73 489.15L795.49 509.21L795.41 519.44L794.57 620.77L772.4 619.3V507.88L784.23 489.15H804.73Z" fill="#3F3D56"/>
<path d="M774.31 490.5C768.97 492.279 763.231 492.48 757.78 491.08C756.721 490.877 755.729 490.417 754.89 489.74C753.982 488.74 753.36 487.514 753.09 486.19C752.125 483.452 751.592 480.581 751.51 477.68C751.58 474.79 752.68 471.77 755.05 470.1C755.525 469.807 755.974 469.472 756.39 469.1C756.869 468.475 757.21 467.756 757.39 466.99C759 462.17 762.13 457.08 767.16 456.31C771.79 455.6 776.01 458.83 779.58 461.87L787.41 468.54C788.281 466.204 789.838 464.185 791.877 462.749C793.916 461.313 796.341 460.527 798.834 460.494C801.327 460.46 803.772 461.181 805.849 462.561C807.925 463.942 809.536 465.918 810.47 468.23C815.211 462.865 821.196 458.745 827.9 456.23C829.39 455.67 831.13 455.23 832.49 456.05C833.326 456.664 833.96 457.514 834.31 458.49C836.442 463.16 837.599 468.217 837.71 473.35C838.25 473.164 838.837 473.161 839.38 473.341C839.922 473.522 840.389 473.877 840.71 474.35C841.314 475.342 841.658 476.47 841.71 477.63C841.922 479.419 842.028 481.219 842.03 483.02C842.03 484.92 841.85 487.02 840.61 488.42C839.01 490.28 836.24 490.48 833.79 490.54C834.97 491.59 834.39 493.7 833.08 494.59C831.679 495.343 830.082 495.654 828.5 495.48C822.4 495.42 815.92 495.25 810.85 491.86C808.85 490.53 807.17 488.75 805.16 487.42C800.24 484.16 794.06 484.01 788.36 484.28C783.28 484.59 779.2 488.86 774.31 490.5Z" fill="#3F3D56"/>
<path d="M773.19 489.15C773.19 489.15 722.33 496.25 715.19 527L725.84 525.42L733.33 538.83C733.33 538.83 741.22 508.83 764.48 501.77C787.74 494.71 796.02 493.49 796.02 493.49C796.02 493.49 812.18 497.43 826.77 544.35L835.05 532.91L849.68 536.07C849.68 536.07 839.03 499.4 810.25 489.15H773.19Z" fill="#3F3D56"/>
<path d="M957.25 537.77V588.77L943.77 615.97L943.34 616.83L907.65 614.47L893.93 613.56L862.09 611.46V550.46L893.93 551.35L908.17 551.75L944.2 552.77L957.25 537.77Z" fill="#3F3D56"/>
<path opacity="0.1" d="M957.25 540.77V588.77L953.96 595.41L950.58 602.22V602.23L943.77 615.97L944.53 564.97L944.69 554.68L951.16 547.51L953.99 544.39L957.25 540.77Z" fill="black"/>
<path d="M959.08 524.22V542.04L957.25 544.95L953.98 550.16L951.09 554.78L944.69 564.97H944.53L859.28 560.58V543.01L859.49 542.78L869.67 531.76L873.36 527.78L880.02 520.56L959.08 524.22Z" fill="#3F3D56"/>
<path opacity="0.1" d="M944.69 547.4V564.97L859.28 560.58V543.01L859.49 542.78L944.69 547.4Z" fill="black"/>
<path opacity="0.15" d="M959.08 524.22V542.04L944.69 564.97V547.4L959.08 524.22Z" fill="black"/>
<path d="M953.99 532.42V544.39L953.98 550.16L953.96 595.41L950.58 602.22L951.09 554.78L951.16 547.51L951.28 536.79L869.67 531.76L873.36 527.78L953.99 532.42Z" fill="#21CE99"/>
<path d="M913.94 533.01L908.22 545.43L908.17 551.75L907.65 614.47L893.93 613.56V544.6L901.25 533.01H913.94Z" fill="#21CE99"/>
<path d="M895.11 533.85C891.805 534.947 888.254 535.072 884.88 534.21C884.224 534.078 883.611 533.789 883.09 533.37C882.533 532.751 882.15 531.995 881.98 531.18C881.375 529.486 881.038 527.708 880.98 525.91C880.961 525.013 881.148 524.123 881.528 523.31C881.908 522.496 882.469 521.781 883.17 521.22C883.468 521.04 883.746 520.828 884 520.59C884.303 520.207 884.521 519.764 884.64 519.29C885.64 516.29 887.58 513.16 890.69 512.68C893.56 512.24 896.17 514.24 898.38 516.12L903.23 520.25C903.768 518.803 904.732 517.552 905.995 516.663C907.257 515.774 908.759 515.288 910.303 515.268C911.847 515.249 913.361 515.697 914.646 516.554C915.93 517.411 916.925 518.637 917.5 520.07C920.441 516.763 924.145 514.223 928.29 512.67C928.724 512.444 929.203 512.317 929.693 512.298C930.182 512.279 930.669 512.369 931.12 512.56C931.641 512.937 932.035 513.464 932.25 514.07C933.573 516.96 934.288 520.092 934.35 523.27C934.688 523.152 935.056 523.151 935.396 523.267C935.735 523.383 936.025 523.609 936.22 523.91C936.591 524.515 936.807 525.202 936.85 525.91C936.978 527.019 937.041 528.134 937.04 529.25C937.153 530.433 936.841 531.617 936.16 532.59C935.16 533.75 933.46 533.87 931.94 533.9C932.091 534.088 932.2 534.305 932.26 534.538C932.321 534.771 932.331 535.015 932.29 535.252C932.25 535.489 932.159 535.715 932.024 535.915C931.89 536.114 931.715 536.283 931.51 536.41C930.64 536.875 929.65 537.067 928.67 536.96C924.9 536.96 920.88 536.82 917.74 534.72C916.5 533.9 915.46 532.8 914.22 531.97C911.22 529.97 907.35 529.86 903.83 530.03C900.66 530.19 898.14 532.83 895.11 533.85Z" fill="#21CE99"/>
<path d="M894.42 533.01C894.42 533.01 862.94 537.4 858.55 556.44L865.14 555.44L869.77 563.74C869.77 563.74 874.65 545.19 889.05 540.8C903.45 536.41 908.57 535.68 908.57 535.68C908.57 535.68 918.57 538.12 927.57 567.15L932.7 560.08L941.7 562.08C941.7 562.08 935.11 539.39 917.3 533.08L894.42 533.01Z" fill="#21CE99"/>
<path d="M831.08 165.93C829.96 159.23 809.18 144.73 809.18 144.73C809.18 144.73 800.01 139.73 795.18 133.94C792.07 130.26 791.1 130.3 790.81 130.8C790.605 130.669 790.372 130.591 790.13 130.57C789.94 130.43 789.75 130.3 789.57 130.15C789.602 129.87 789.545 129.586 789.407 129.34C789.269 129.094 789.056 128.898 788.8 128.78C788.554 128.627 788.317 128.46 788.09 128.28C786.51 125.6 785.95 121.78 785.76 118.46C785.53 114.26 780.76 115.32 779.25 115.78C778.15 113.69 777.07 111.5 776.06 109.32C776.487 108.61 776.836 107.855 777.1 107.07C780 100.67 779.36 93.34 780.62 86.58C781.53 81.68 783.41 76.58 783.04 71.81C783.04 71.69 783.04 71.57 783.04 71.46C783.045 71.4831 783.045 71.5069 783.04 71.53C782.936 70.3386 782.667 69.1674 782.24 68.05C781.41 65.9 779.95 64.05 779.24 61.82C778.19 58.6 778.86 55.04 777.99 51.76C776.9 47.62 773.45 44.41 769.55 42.58C765.65 40.75 761.33 40.12 757.06 39.58C746.38 38.22 735.06 37.41 725.31 41.97C724.407 42.5196 723.367 42.8006 722.31 42.78C721.345 42.512 720.432 42.0826 719.61 41.51C716.99 40.19 713.7 41.03 711.37 42.8C709.04 44.57 707.45 47.1 705.89 49.56C704.33 52.02 702.66 54.56 700.24 56.17C697.39 58.1 693.63 58.75 691.41 61.36C690.398 62.5955 689.76 64.0942 689.57 65.68C689.575 65.6569 689.575 65.6331 689.57 65.61C689.57 65.8 689.57 65.99 689.57 66.18C689.57 66.37 689.57 66.49 689.57 66.64C689.57 66.79 689.57 66.89 689.57 67.02C689.545 67.443 689.545 67.867 689.57 68.29C689.881 70.7303 690.517 73.1181 691.46 75.39C691.911 77.0783 692.802 78.6171 694.04 79.85C697.46 82.69 702.86 80.01 707.04 81.59C707.382 81.7279 707.716 81.8848 708.04 82.06L707.89 82.54C706.418 87.6256 706.155 92.9846 707.12 98.19C708.085 103.396 710.253 108.304 713.45 112.523C716.647 116.743 720.786 120.158 725.536 122.496C730.286 124.834 735.516 126.03 740.81 125.99C741.51 125.99 742.21 125.99 742.91 125.91C743.01 126.28 743.12 126.65 743.21 127.02C744.266 131.172 744.604 135.474 744.21 139.74L744 137.89C743.543 137.665 743.068 137.478 742.58 137.33C741.211 136.871 739.774 136.652 738.33 136.68C733.68 136.61 726.67 138.52 719.2 147.74C719.2 147.74 709.66 153.14 706.85 154.44C706.622 154.585 706.441 154.794 706.33 155.04C706.33 155.04 693.71 174.67 692.4 182.07L692.22 183.07L670.82 182.07C670.672 176.743 669.447 171.501 667.22 166.66C666.845 165.626 666.17 164.727 665.28 164.08C663.85 163.21 661.99 163.68 660.41 164.27C653.297 166.908 646.936 171.244 641.88 176.9C640.875 174.456 639.158 172.37 636.953 170.914C634.748 169.458 632.155 168.698 629.513 168.733C626.87 168.769 624.3 169.598 622.134 171.113C619.969 172.628 618.309 174.76 617.37 177.23L609.04 170.23C605.25 167.02 600.77 163.6 595.84 164.35C590.5 165.17 587.17 170.54 585.45 175.63C585.248 176.444 584.873 177.204 584.35 177.86C584.251 177.952 584.148 178.039 584.04 178.12L577.48 177.82L566.04 190.12L559.71 196.93L542.23 215.73L541.86 216.12V234.9C541.352 236.262 540.931 237.655 540.6 239.07L541.86 238.88V246.14L546.68 246.39V332.96L601.37 336.55L624.94 338.07L666.59 340.8C666.59 344.73 668.23 350.25 671.72 352.42C672.594 352.981 673.37 353.68 674.02 354.49C673.84 354.84 673.66 355.2 673.49 355.56C671.82 359.01 670.34 362.86 670.6 365.25C670.946 368.277 670.239 371.331 668.6 373.9C668.6 373.9 656 413.65 656.28 425.07C656.56 436.49 651.79 461.6 651.79 461.6C651.79 461.6 646.59 477.78 649.68 482.38C652.77 486.98 656.28 507.07 656.28 507.07C656.28 507.07 658.67 511.67 658.52 515.58C658.37 519.49 660.77 526.58 660.77 526.58L668.63 555.45C668.63 555.45 667.79 563.12 670.74 568.56C673.69 574 673.4 572.32 672 581.81C670.6 591.3 673.68 600.08 678.74 602.87C680.74 603.95 680.8 605.6 680.19 607.21H680.14C678.85 606.7 677.78 609.41 677.14 611.6C676.75 612 676.49 612.23 676.49 612.23L676.93 612.34C676.65 613.39 676.49 614.18 676.49 614.18C676.49 614.18 663.3 625.34 662.49 629.38C661.68 633.42 652.38 635.52 652.38 635.52C652.38 635.52 638.38 639.42 634.69 641.38C633.632 641.869 632.718 642.625 632.04 643.573C631.362 644.522 630.941 645.63 630.82 646.79C630.654 648.625 630.824 650.475 631.32 652.25C632.73 657.97 652.38 658.53 661.78 657C671.18 655.47 690.7 649.88 690.7 649.88C690.7 649.88 711.19 647.88 717.23 645.42C723.27 642.96 718.49 636.5 718.49 636.5C718.49 636.5 718.49 636.28 718.49 635.89C718.64 633.56 719.06 625.1 717.61 622.83C716.51 621.11 716.55 616.83 716.7 614.1C720.8 606.6 711.99 584.1 711.99 584.1C711.99 584.1 713.68 562.1 712.55 558.86C711.42 555.62 706.66 528.32 706.66 528.32C706.66 528.32 703.71 515.9 704.83 513.81C705.95 511.72 704.13 505.72 704.13 505.72C704.13 505.72 699.36 499.03 699.78 496.94C700.2 494.85 698.38 491.08 698.38 491.08C698.38 491.08 712.7 469.32 711.43 465.28C710.16 461.24 711.99 454.68 711.99 454.68L715.99 447.91C718.65 443.39 721.87 437.96 722.99 436.27C724.37 434.12 727.69 424.97 729.54 419.69C730.32 417.45 730.85 415.91 730.85 415.91C730.85 415.91 733.1 456.91 735.06 461.1C737.02 465.29 739.98 498.33 739.98 498.33C741.065 501.274 741.541 504.407 741.38 507.54C741.1 512.7 745.87 535.15 745.87 535.15C745.87 535.15 747.98 551.05 746.57 555.23C745.16 559.41 746.29 590.23 746.29 590.23C746.29 590.23 738.57 596.23 736.61 600.82C734.65 605.41 736.89 617.98 736.89 617.98L737.79 618.41C737.063 620.154 736.526 621.971 736.19 623.83C735.91 626.48 731.69 638.48 732.12 640.15C732.55 641.82 730.29 646.98 730.01 649.63C729.73 652.28 726.22 656.19 725.94 657.63C725.496 658.886 724.979 660.115 724.39 661.31C723.629 663.147 723.021 665.043 722.57 666.98C721.17 672.83 737.87 673.81 737.87 673.81C762.57 678.41 767.07 659.59 767.07 659.59C767.07 659.59 770.15 642.85 771.28 641.59C771.417 641.349 771.504 641.084 771.536 640.809C771.569 640.534 771.546 640.256 771.47 639.99V639.99C770.822 637.149 769.612 634.466 767.91 632.1C767.12 631.18 767.06 628.78 767.2 626.64C767.914 626.577 768.621 626.447 769.31 626.25C779.31 623.32 775.21 606.44 775.21 606.44C775.21 606.44 781.94 595.29 781.94 590.96C781.94 586.63 784.33 573.39 784.33 573.39C792.89 557.77 789.52 519.84 790.93 516.77C792.34 513.7 787.98 502.27 784.47 497.11C780.96 491.95 782.37 478 784.47 473.96C786.57 469.92 782.37 455.96 782.37 455.96C782.37 455.96 786.44 428.9 786.3 424.72C786.16 420.54 789.8 408.12 789.8 408.12C789.8 408.12 793.45 401.71 792.61 399.76C791.77 397.81 795.42 392.76 794.44 390.55C793.46 388.34 795.28 381.49 797.1 377.44C798.04 375.37 799.2 369.66 800.1 364.59L800.4 362.92C804.49 365.55 808.21 367.51 809.6 366.98C812.1 365.98 808.12 352.98 805.38 344.86C805.85 344.51 806.04 344.24 805.85 344.11C804.17 343 806.04 337.97 806.04 337.97C815.96 331.97 812.59 327.56 809.41 324.97C806.23 322.38 808.29 314.97 807.35 311.97C806.41 308.97 808.47 295.42 810.16 285.57C810.507 283.426 810.486 281.238 810.1 279.1C811.91 276.32 813.77 273.4 815.4 270.69C821.01 261.4 832.99 217.14 832.99 217.14L832.91 216.91C834.08 214.56 834.91 212.65 835.42 211.38C838.94 201.63 832.2 172.62 831.08 165.93ZM743.85 140.45L744.11 140.32C744.11 140.4 744.11 140.47 744.11 140.54L743.85 140.45ZM689.4 615.16C688.789 615.167 688.183 615.048 687.62 614.81L689.4 615.16Z" fill="url(#paint0_linear)"/>
<path d="M580.56 293.36C588.78 296.48 607.92 296.83 616.42 296.82C619 296.82 620.6 296.82 620.6 296.82L626.05 285.73L620.6 276.48C620.6 276.48 615.6 275.11 608.96 273.91C599.16 272.14 585.75 270.76 579.36 274.73C568.64 281.35 569.84 289.29 580.56 293.36Z" fill="#FEC2BE"/>
<path opacity="0.1" d="M616.42 296.82C619 296.82 620.6 296.82 620.6 296.82L626.05 285.73L620.6 276.48C620.6 276.48 615.6 275.11 608.96 273.91C614.35 277.85 627.31 286.44 616.42 296.82Z" fill="black"/>
<path d="M706.68 160.59L704.27 157.82C704.27 157.82 691.88 177.42 690.59 184.82C689.3 192.22 687.59 200.73 687.59 200.73C687.59 200.73 684.5 210.33 682.5 214.59C680.5 218.85 678.62 222.91 678.44 224.76C678.26 226.61 679.18 230.68 675.29 233.26C671.4 235.84 670.48 242.88 670.48 242.88C670.48 242.88 656.48 256.56 649.03 256.93C641.58 257.3 620.37 261 621.11 264.7C621.85 268.4 612.23 270.62 608.35 271.54C604.47 272.46 633.35 283.54 616.49 297.8C616.49 297.8 627.21 300.02 628.32 302.61C629.43 305.2 640.71 301.13 640.71 301.13C640.71 301.13 643.12 295.4 651.44 295.03C659.76 294.66 664.01 290.96 664.01 290.4C664.01 289.84 672.33 285.23 676.96 283.93C681.59 282.63 687.68 282.08 687.87 280.79C688.06 279.5 715.6 160.59 715.6 160.59H706.68Z" fill="#4C4981"/>
<path opacity="0.05" d="M706.68 160.59L704.27 157.82C704.27 157.82 691.88 177.42 690.59 184.82C689.3 192.22 687.59 200.73 687.59 200.73C687.59 200.73 684.5 210.33 682.5 214.59C680.5 218.85 678.62 222.91 678.44 224.76C678.26 226.61 679.18 230.68 675.29 233.26C671.4 235.84 670.48 242.88 670.48 242.88C670.48 242.88 656.48 256.56 649.03 256.93C641.58 257.3 620.37 261 621.11 264.7C621.85 268.4 612.23 270.62 608.35 271.54C604.47 272.46 633.35 283.54 616.49 297.8C616.49 297.8 627.21 300.02 628.32 302.61C629.43 305.2 640.71 301.13 640.71 301.13C640.71 301.13 643.12 295.4 651.44 295.03C659.76 294.66 664.01 290.96 664.01 290.4C664.01 289.84 672.33 285.23 676.96 283.93C681.59 282.63 687.68 282.08 687.87 280.79C688.06 279.5 715.6 160.59 715.6 160.59H706.68Z" fill="black"/>
<path d="M735.5 673.74C759.91 678.32 764.35 659.6 764.35 659.6C764.35 659.6 767.35 642.96 768.51 641.71C768.647 641.471 768.734 641.207 768.767 640.934C768.799 640.661 768.777 640.384 768.7 640.12V640.12C768.061 637.298 766.864 634.632 765.18 632.28C763.65 630.47 764.9 622.98 764.9 622.98L736.61 615.77C736.61 615.77 734.11 621.46 733.84 624.09C733.57 626.72 729.4 638.66 729.84 640.32C730.28 641.98 728.04 647.12 727.76 649.75C727.48 652.38 724.02 656.27 723.76 657.66C723.321 658.905 722.81 660.124 722.23 661.31C721.475 663.137 720.873 665.023 720.43 666.95C718.98 672.77 735.5 673.74 735.5 673.74Z" fill="black"/>
<path opacity="0.1" d="M735.5 673.74C759.91 678.32 764.35 659.6 764.35 659.6C764.35 659.6 767.35 642.96 768.51 641.71C768.647 641.471 768.734 641.207 768.767 640.934C768.799 640.661 768.777 640.384 768.7 640.12L762.82 656.96C762.82 656.96 757.97 667.09 739.94 665.56C729.68 664.7 724.63 662.79 722.18 661.31C721.425 663.137 720.823 665.023 720.38 666.95C718.98 672.77 735.5 673.74 735.5 673.74Z" fill="black"/>
<path opacity="0.1" d="M754.5 647.39C754.5 647.39 748.4 647.53 747.98 642.54L754.5 647.39Z" fill="black"/>
<path d="M648.38 483.46C651.38 488.04 654.9 508.01 654.9 508.01C654.9 508.01 657.26 512.59 657.12 516.47C656.98 520.35 659.34 527.47 659.34 527.47L667.11 556.18C667.11 556.18 666.27 563.8 669.19 569.18C672.11 574.56 671.82 572.93 670.43 582.36C669.04 591.79 672.1 600.53 677.09 603.3C682.08 606.07 674.87 612.59 674.87 612.59C674.87 612.59 706.77 621.19 713.43 615.92C720.09 610.65 709.96 584.58 709.96 584.58C709.96 584.58 711.62 562.66 710.52 559.47C709.42 556.28 704.69 529.07 704.69 529.07C704.69 529.07 701.78 516.73 702.89 514.65C704 512.57 702.19 506.6 702.19 506.6C702.19 506.6 697.48 499.95 697.89 497.87C698.3 495.79 696.5 492.07 696.5 492.07C696.5 492.07 710.64 470.43 709.4 466.41C708.16 462.39 709.95 455.87 709.95 455.87C709.95 455.87 711.74 452.8 713.89 449.14C716.52 444.64 719.7 439.25 720.77 437.57C722.13 435.42 725.41 426.32 727.24 421.08L728.54 417.32C728.54 417.32 730.75 458.09 732.7 462.25C734.65 466.41 737.55 499.25 737.55 499.25C738.623 502.179 739.096 505.294 738.94 508.41C738.66 513.54 743.38 535.87 743.38 535.87C743.38 535.87 745.46 551.68 744.07 555.87C742.68 560.06 743.79 590.68 743.79 590.68C743.79 590.68 736.16 596.68 734.22 601.22C732.28 605.76 734.5 618.28 734.5 618.28C734.5 618.28 756.69 629.37 766.5 626.46C776.31 623.55 772.32 606.77 772.32 606.77C772.32 606.77 778.98 595.67 778.98 591.37C778.98 587.07 781.34 573.9 781.34 573.9C789.8 558.36 786.47 520.64 787.85 517.59C789.23 514.54 784.99 503.16 781.5 498.07C778.01 492.98 779.42 479.07 781.5 475.07C783.58 471.07 779.44 457.07 779.44 457.07C779.44 457.07 783.44 430.16 783.33 426C783.22 421.84 786.8 409.5 786.8 409.5C786.8 409.5 790.4 403.12 789.57 401.18C788.74 399.24 792.34 394.24 791.37 392.02C790.4 389.8 792.2 383.02 794.01 379.02C794.93 376.95 796.08 371.28 797.01 366.24C797.86 361.45 798.49 357.24 798.49 357.24L775.6 338.8L718.46 323.8L696.96 316.86L676.02 349.86C676.02 349.86 673.86 353.31 671.94 357.29C670.3 360.72 668.83 364.55 669.09 366.92C669.439 369.924 668.755 372.957 667.15 375.52C667.15 375.52 654.62 415.07 654.9 426.46C655.18 437.85 650.5 462.8 650.5 462.8C650.5 462.8 645.33 478.88 648.38 483.46Z" fill="#4C4981"/>
<path d="M708.11 209.76V296.31L685.23 342.47L684.5 343.93L623.93 339.93L600.65 338.39L546.61 334.82V231.29L600.65 232.82L624.82 233.5L685.95 235.23L708.11 209.76Z" fill="#21CE99"/>
<path opacity="0.1" d="M708.11 214.87V296.31L702.52 307.58V307.59L696.78 319.14V319.15L685.23 342.47L686.52 255.92L686.78 238.46L697.77 226.3L702.56 221L708.11 214.87Z" fill="black"/>
<path d="M711.21 186.78V217.01L708.11 221.96L702.56 230.8L697.64 238.63L686.78 255.93L686.52 255.92L541.85 248.48V218.66L542.21 218.27L559.48 199.57L565.74 192.81L577.04 180.57L711.21 186.78Z" fill="#21CE99"/>
<path opacity="0.1" d="M686.78 226.12V255.93L541.85 248.48V218.66L542.21 218.27L686.78 226.12Z" fill="black"/>
<path opacity="0.15" d="M711.21 186.78V217.01L686.78 255.93V226.12L711.21 186.78Z" fill="black"/>
<path d="M702.58 200.69L702.56 221V230.8L702.52 307.58V307.59L696.78 319.14L697.64 238.63L697.77 226.3L697.97 208.11L559.48 199.57L565.74 192.81L702.58 200.69Z" fill="#3F3D56"/>
<path d="M634.61 201.69L624.9 222.76L624.82 233.5L623.93 339.93L600.65 338.39V221.35L613.07 201.69H634.61Z" fill="#3F3D56"/>
<path d="M602.65 203.07C597.045 204.934 591.022 205.146 585.3 203.68C584.202 203.454 583.174 202.971 582.3 202.27C581.351 201.217 580.702 199.929 580.42 198.54C579.41 195.667 578.85 192.654 578.76 189.61C578.83 186.61 579.99 183.39 582.47 181.61C582.977 181.309 583.45 180.953 583.88 180.55C584.401 179.902 584.773 179.148 584.97 178.34C586.67 173.28 589.97 167.93 595.23 167.12C600.1 166.38 604.53 169.78 608.28 172.97L616.51 179.97C617.428 177.519 619.064 175.402 621.205 173.896C623.345 172.391 625.89 171.566 628.507 171.53C631.124 171.495 633.691 172.25 635.872 173.697C638.052 175.144 639.746 177.215 640.73 179.64C645.715 174.019 652.001 169.707 659.04 167.08C660.6 166.5 662.43 166.02 663.85 166.89C664.727 167.539 665.392 168.433 665.76 169.46C668.003 174.362 669.218 179.671 669.33 185.06C669.905 184.864 670.53 184.866 671.104 185.065C671.678 185.265 672.169 185.65 672.5 186.16C673.14 187.198 673.505 188.382 673.56 189.6C673.78 191.482 673.89 193.375 673.89 195.27C673.89 197.27 673.7 199.42 672.4 200.94C670.72 202.89 667.82 203.1 665.24 203.16C666.48 204.26 665.87 206.48 664.5 207.42C663.023 208.208 661.344 208.532 659.68 208.35C653.28 208.29 646.47 208.11 641.14 204.55C639.04 203.15 637.28 201.28 635.14 199.88C629.97 196.46 623.48 196.3 617.5 196.58C612.08 196.9 607.79 201.39 602.65 203.07Z" fill="#3F3D56"/>
<path d="M601.5 201.69C601.5 201.69 548.08 209.14 540.62 241.44L551.81 239.79L559.67 253.87C559.67 253.87 567.96 222.39 592.39 214.94C616.82 207.49 625.51 206.24 625.51 206.24C625.51 206.24 642.51 210.39 657.81 259.66L666.51 247.66L681.83 250.98C681.83 250.98 670.65 212.47 640.42 201.7L601.5 201.69Z" fill="#3F3D56"/>
<path d="M732.87 161.97C733.75 161.61 794.08 136.7 785.77 131.74C780.84 128.8 774.77 116.35 770.61 106.6C767.71 99.78 765.74 94.3 765.74 94.3C765.74 94.3 717.32 85.7 734.65 115.38C737.383 119.932 739.441 124.857 740.76 130C745.7 150.21 733.27 161.6 732.87 161.97Z" fill="#B17C7C"/>
<path opacity="0.1" d="M734.65 115.38C737.383 119.932 739.441 124.857 740.76 130C746.903 129.568 752.812 127.468 757.851 123.926C762.889 120.384 766.865 115.535 769.35 109.9C769.83 108.824 770.251 107.722 770.61 106.6C767.71 99.78 765.74 94.3 765.74 94.3C765.74 94.3 717.32 85.7 734.65 115.38Z" fill="black"/>
<path d="M704.55 95.13C704.55 102.893 707.219 110.419 712.11 116.448C717 122.476 723.814 126.64 731.41 128.241C739.006 129.842 746.921 128.784 753.828 125.242C760.736 121.701 766.216 115.892 769.35 108.79C771.259 104.489 772.24 99.8351 772.23 95.13C772.23 90.6861 771.355 86.2857 769.654 82.18C767.954 78.0743 765.461 74.3438 762.319 71.2015C759.176 68.0592 755.446 65.5665 751.34 63.8659C747.234 62.1653 742.834 61.29 738.39 61.29C733.946 61.29 729.546 62.1653 725.44 63.8659C721.334 65.5665 717.604 68.0592 714.462 71.2015C711.319 74.3438 708.827 78.0743 707.126 82.18C705.425 86.2857 704.55 90.6861 704.55 95.13Z" fill="#B17C7C"/>
<path opacity="0.1" d="M671.9 357.33C675.45 360.55 676.81 366.68 676.81 366.68C676.81 366.68 693.5 378.07 692.35 370.84C691.2 363.61 700.95 334.51 700.95 334.51L699.84 374.17C699.84 374.17 753.09 371.68 756.98 367.79C760.87 363.9 783.61 356.42 783.61 356.42C783.61 356.42 790.61 362.01 796.97 366.25C797.82 361.46 798.45 357.25 798.45 357.25L775.56 338.81L718.42 323.81L696.92 316.87L675.98 349.87C675.98 349.87 673.82 353.35 671.9 357.33Z" fill="black"/>
<path d="M670.16 354.2C674.59 356.98 676.26 364.47 676.26 364.47C676.26 364.47 692.9 375.84 691.79 368.63C690.68 361.42 700.39 332.29 700.39 332.29L699.28 371.95C699.28 371.95 752.54 369.46 756.42 365.57C760.3 361.68 783.05 354.2 783.05 354.2C783.05 354.2 802.74 370.01 806.35 368.63C809.96 367.25 799.97 340.33 799.97 340.33L789.71 182.78C789.71 182.78 792.48 135.9 788.32 134.24C787.678 133.98 787.086 133.612 786.57 133.15C783.83 130.68 783.01 125.68 782.77 121.48C782.5 116.48 775.84 118.98 775.84 118.98L779.72 123.98L745.35 144.87L745.05 145.06C743.711 144.354 742.332 143.726 740.92 143.18C737.92 142.01 733.83 140.91 731.18 142.01C729.699 142.759 728.443 143.887 727.54 145.28C725.579 148.229 724.006 151.419 722.86 154.77L710.38 175.85C710.38 175.85 704 203.85 704 204.97C704 206.09 702.06 231.6 699.84 234.37C697.62 237.14 695.4 251.02 696.23 255.18C697.06 259.34 694.84 274.87 694.84 274.87C685.69 282.36 680.97 307.87 680.97 307.87C680.97 307.87 666.55 336.44 665.44 339.77C664.33 343.1 665.72 351.43 670.16 354.2Z" fill="white"/>
<path opacity="0.1" d="M745.35 145.98C748.72 150.98 758.46 157.98 758.46 157.98L786.57 134.24C783.83 131.77 783.01 126.77 782.77 122.57C782.5 117.57 775.84 120.07 775.84 120.07L776.64 121.07C777.027 121.567 777.304 122.14 777.454 122.752C777.603 123.363 777.622 123.999 777.509 124.619C777.395 125.238 777.153 125.826 776.796 126.345C776.44 126.864 775.978 127.302 775.44 127.63L745.35 145.98Z" fill="black"/>
<path d="M745.35 144.87C748.72 149.87 758.46 156.87 758.46 156.87L786.57 133.13C783.83 130.66 783.01 125.66 782.77 121.46C782.5 116.46 775.84 118.96 775.84 118.96L776.64 119.96C777.027 120.457 777.304 121.03 777.454 121.642C777.603 122.253 777.622 122.889 777.509 123.509C777.395 124.128 777.153 124.716 776.796 125.235C776.44 125.754 775.978 126.192 775.44 126.52L745.35 144.87Z" fill="white"/>
<path opacity="0.1" d="M732.35 148.61C735.98 152.96 741.13 157.88 740.89 155.41C740.65 152.94 743.96 147.5 746.07 145.06C742.776 144.012 739.224 144.107 735.99 145.33C734.511 146.086 733.256 147.217 732.35 148.61V148.61Z" fill="black"/>
<path d="M731.79 146.95C735.43 151.29 740.57 156.22 740.33 153.75C740.09 151.28 743.06 147.29 745.17 144.85C742.17 143.68 738.09 142.58 735.43 143.67C733.946 144.42 732.69 145.552 731.79 146.95V146.95Z" fill="white"/>
<path d="M740.89 170.02C742.116 170.02 743.11 169.026 743.11 167.8C743.11 166.574 742.116 165.58 740.89 165.58C739.664 165.58 738.67 166.574 738.67 167.8C738.67 169.026 739.664 170.02 740.89 170.02Z" fill="#FF718D"/>
<path d="M724.06 229.93C725.286 229.93 726.28 228.936 726.28 227.71C726.28 226.484 725.286 225.49 724.06 225.49C722.834 225.49 721.84 226.484 721.84 227.71C721.84 228.936 722.834 229.93 724.06 229.93Z" fill="#FF718D"/>
<path d="M705.01 290.59C706.236 290.59 707.23 289.596 707.23 288.37C707.23 287.144 706.236 286.15 705.01 286.15C703.784 286.15 702.79 287.144 702.79 288.37C702.79 289.596 703.784 290.59 705.01 290.59Z" fill="#FF718D"/>
<path d="M704.46 356.6C705.686 356.6 706.68 355.606 706.68 354.38C706.68 353.154 705.686 352.16 704.46 352.16C703.234 352.16 702.24 353.154 702.24 354.38C702.24 355.606 703.234 356.6 704.46 356.6Z" fill="#FF718D"/>
<path d="M731.09 198.31C732.316 198.31 733.31 197.316 733.31 196.09C733.31 194.864 732.316 193.87 731.09 193.87C729.864 193.87 728.87 194.864 728.87 196.09C728.87 197.316 729.864 198.31 731.09 198.31Z" fill="#FF718D"/>
<path d="M716.11 259.89C717.336 259.89 718.33 258.896 718.33 257.67C718.33 256.444 717.336 255.45 716.11 255.45C714.884 255.45 713.89 256.444 713.89 257.67C713.89 258.896 714.884 259.89 716.11 259.89Z" fill="#FF718D"/>
<path d="M701.5 320.36C702.726 320.36 703.72 319.366 703.72 318.14C703.72 316.914 702.726 315.92 701.5 315.92C700.274 315.92 699.28 316.914 699.28 318.14C699.28 319.366 700.274 320.36 701.5 320.36Z" fill="#FF718D"/>
<path d="M704.83 364C706.056 364 707.05 363.006 707.05 361.78C707.05 360.554 706.056 359.56 704.83 359.56C703.604 359.56 702.61 360.554 702.61 361.78C702.61 363.006 703.604 364 704.83 364Z" fill="#FF718D"/>
<path opacity="0.1" d="M786.56 134.52C786.56 134.52 786.19 131.19 791 136.92C795.81 142.65 804.87 147.65 804.87 147.65C804.87 147.65 825.4 162.07 826.5 168.73C827.6 175.39 834.26 204.23 830.75 213.85C827.24 223.47 800.42 269.51 800.42 269.51C800.42 269.51 807.42 277.83 805.79 287.63C804.16 297.43 802.09 310.93 803.01 313.89C803.93 316.85 801.9 324.24 805.01 326.83C808.12 329.42 811.48 333.83 801.68 339.78C801.68 339.78 799.83 344.78 801.49 345.88C803.15 346.98 776.9 358.46 766.54 352.35C756.18 346.24 737.54 297.43 737.14 286.52C736.74 275.61 742.87 239.52 746.2 231.04C749.53 222.56 759.52 189.44 763.77 182.04C768.02 174.64 786.56 134.52 786.56 134.52Z" fill="black"/>
<path d="M787.67 134.52C787.67 134.52 787.3 131.19 792.11 136.92C796.92 142.65 805.98 147.65 805.98 147.65C805.98 147.65 826.5 162.07 827.62 168.73C828.74 175.39 835.38 204.23 831.87 213.85C828.36 223.47 801.5 269.51 801.5 269.51C801.5 269.51 808.5 277.83 806.87 287.63C805.24 297.43 803.17 310.93 804.09 313.89C805.01 316.85 802.98 324.24 806.09 326.83C809.2 329.42 812.56 333.83 802.76 339.78C802.76 339.78 800.91 344.78 802.57 345.88C804.23 346.98 777.98 358.46 767.62 352.35C757.26 346.24 738.62 297.43 738.22 286.52C737.82 275.61 743.95 239.52 747.28 231.04C750.61 222.56 760.6 189.44 764.85 182.04C769.1 174.64 787.67 134.52 787.67 134.52Z" fill="#4C4981"/>
<path opacity="0.1" d="M795.07 165.95C795.07 165.95 779.17 183.52 779.72 195.17C779.72 195.17 779.5 176.31 795.07 165.95Z" fill="black"/>
<path opacity="0.1" d="M773.06 194.8C773.06 195.36 762.34 235.3 762.89 240.29C763.44 245.28 759.75 260.07 759.75 260.07L754.75 258.77C754.75 258.77 758.63 238.25 759.37 230.67C760.11 223.09 773.06 194.8 773.06 194.8Z" fill="black"/>
<path opacity="0.1" d="M768.81 308.71C769.18 309.27 794.15 337.56 787.12 339.59C780.09 341.62 768.81 308.71 768.81 308.71Z" fill="black"/>
<path opacity="0.1" d="M789.34 301.5C789.89 301.87 799.34 321.84 800.43 316.5C801.52 311.16 792.3 331.11 790.82 316.31L789.34 301.5Z" fill="black"/>
<path opacity="0.1" d="M741.4 140.8C741.4 140.8 731.09 134.52 718.14 150.6C718.14 150.6 708.71 155.97 705.94 157.26C703.17 158.55 700.02 192.95 700.02 192.95C700.02 192.95 693.92 207.74 695.58 216.25C697.24 224.76 690.78 253.98 690.78 253.98C690.78 253.98 680.05 306.49 680.42 307.98C680.79 309.47 691.33 291.52 691.14 282.65C690.95 273.78 700.02 246.03 701.32 244.37C702.62 242.71 711.5 195.17 711.5 195.17C711.5 195.17 718.71 175.01 723.33 168.36C727.95 161.71 733.69 149.13 736.09 146.91C737.816 145.413 739.745 144.167 741.82 143.21L741.4 140.8Z" fill="black"/>
<path d="M741.5 140.8C741.5 140.8 729.94 134.52 716.99 150.6C716.99 150.6 707.56 155.97 704.79 157.26C702.02 158.55 698.87 192.95 698.87 192.95C698.87 192.95 692.77 207.74 694.43 216.25C696.09 224.76 689.63 253.98 689.63 253.98C689.63 253.98 678.9 306.49 679.27 307.98C679.64 309.47 690.18 291.52 690 282.65C689.82 273.78 698.87 246.03 700.17 244.37C701.47 242.71 710.34 195.18 710.34 195.18C710.34 195.18 717.55 175.02 722.17 168.37C726.79 161.72 732.53 149.14 734.93 146.92C737.33 144.7 741.77 143.22 741.77 143.22L741.5 140.8Z" fill="#4C4981"/>
<path d="M690.78 256.38C690.78 256.38 668.78 241.96 658.14 249.07C647.5 256.18 630.14 266.27 647.23 273.58C664.32 280.89 688 279.49 688 279.49L690.78 256.38Z" fill="#B17C7C"/>
<path opacity="0.1" d="M706.08 395.53C709.36 402.53 712.08 437.92 713.9 449.13C716.53 444.63 719.71 439.24 720.78 437.56C722.14 435.41 725.42 426.31 727.25 421.07C725.16 415.99 719.39 401.43 719.39 396.07C719.39 389.55 708.85 381.37 708.85 381.37C708.85 381.37 702.19 387.21 706.08 395.53Z" fill="black"/>
<path opacity="0.1" d="M776.81 504.13C776.81 504.13 752.4 493.72 745.19 501.13C737.98 508.54 776.81 504.13 776.81 504.13Z" fill="black"/>
<path opacity="0.1" d="M763.08 508.29C763.08 508.29 787.77 522.16 779.31 524.51C770.85 526.86 763.08 508.29 763.08 508.29Z" fill="black"/>
<path opacity="0.1" d="M689.3 496.22C689.3 496.22 699.84 496.91 695.81 498.99C691.78 501.07 689.3 496.22 689.3 496.22Z" fill="black"/>
<path opacity="0.1" d="M676.12 499.41C676.26 500.1 706.77 509.95 700.81 514.41C694.85 518.87 676.12 499.41 676.12 499.41Z" fill="black"/>
<path opacity="0.1" d="M773.2 584.29C768.63 583.6 743.11 571.81 753.09 580.29C763.07 588.77 773.2 584.29 773.2 584.29Z" fill="black"/>
<path opacity="0.1" d="M760.58 593.58C760.58 593.58 758.36 602.18 749.9 601.07C741.44 599.96 760.58 593.58 760.58 593.58Z" fill="black"/>
<path opacity="0.1" d="M767.66 611.07C766.13 610.65 747.96 602.33 747.55 606.21C747.14 610.09 764.88 616.89 766.27 614.81C767.066 613.714 767.547 612.42 767.66 611.07V611.07Z" fill="black"/>
<path opacity="0.1" d="M708.85 601.07C706.63 600.93 685.85 594.28 681.67 600.24L708.85 601.07Z" fill="black"/>
<path opacity="0.1" d="M689.99 604.95C689.99 604.95 686.38 601.76 682.78 603.43C679.18 605.1 689.99 604.95 689.99 604.95Z" fill="black"/>
<path opacity="0.1" d="M736.03 639.35C735.801 640.529 735.233 641.615 734.397 642.476C733.561 643.338 732.491 643.936 731.32 644.2L736.03 639.35Z" fill="black"/>
<path d="M630.21 652.39C631.6 658.07 651.02 658.63 660.31 657.1C669.6 655.57 688.88 650.07 688.88 650.07C688.88 650.07 709.13 648.13 715.09 645.63C721.05 643.13 716.34 636.75 716.34 636.75C716.34 636.75 716.34 636.54 716.34 636.16C716.48 633.84 716.9 625.43 715.47 623.16C713.8 620.53 714.77 611.93 714.77 611.93C714.77 611.93 686.07 617.48 685.51 614.84C684.95 612.2 680.51 608.46 678.44 607.63C676.37 606.8 674.83 614.56 674.83 614.56C674.83 614.56 661.83 625.66 660.96 629.68C660.09 633.7 650.96 635.78 650.96 635.78C650.96 635.78 637.09 639.67 633.48 641.61C632.433 642.102 631.531 642.856 630.86 643.798C630.189 644.74 629.772 645.84 629.65 646.99C629.514 648.809 629.704 650.638 630.21 652.39V652.39Z" fill="black"/>
<path opacity="0.1" d="M630.21 652.39C631.6 658.07 651.02 658.63 660.31 657.1C669.6 655.57 688.88 650.07 688.88 650.07C688.88 650.07 709.13 648.13 715.09 645.63C721.05 643.13 716.34 636.75 716.34 636.75C716.34 636.75 716.34 636.54 716.34 636.16L687.34 642.58C687.34 642.58 673.06 648.68 663.91 648.68C655.91 648.68 638.01 651.96 629.7 646.99C629.548 648.806 629.721 650.635 630.21 652.39V652.39Z" fill="black"/>
<path opacity="0.1" d="M669.5 630.47C669.5 630.47 670.89 639.63 676.44 642.68L669.5 630.47Z" fill="black"/>
<path opacity="0.1" d="M705.87 85.76C706.393 86.0402 706.942 86.2679 707.51 86.44C710.12 87.14 712.66 85.39 714.97 83.99C717.28 82.59 720.47 81.55 722.47 83.36C725.08 85.73 723.19 90.8 725.88 93.08C727.58 94.53 730.28 94.08 732.17 95.23C734.06 96.38 734.63 99.02 735.11 101.28C735.59 103.54 736.54 106.1 738.75 106.76C740.96 107.42 743 105.97 745.17 106.05C745.62 106.05 746.17 106.12 746.45 105.79C746.649 105.497 746.725 105.138 746.66 104.79C746.39 102.102 746.63 99.3879 747.37 96.79C748.26 94.24 750.37 91.92 753 91.51C756.9 90.91 760.17 94.33 762.46 97.51C764.867 100.888 767.059 104.415 769.02 108.07C769.143 108.308 769.253 108.551 769.35 108.8C771.259 104.499 772.24 99.8451 772.23 95.14C772.233 86.9829 769.289 79.0993 763.94 72.9405C758.592 66.7817 751.198 62.7621 743.121 61.6216C735.044 60.4811 726.827 62.2966 719.983 66.7337C713.138 71.1708 708.126 77.9311 705.87 85.77V85.76Z" fill="black"/>
<path d="M762.5 96.95C760.21 93.74 756.94 90.33 753.04 90.95C750.37 91.36 748.3 93.67 747.41 96.22C746.67 98.8179 746.432 101.533 746.71 104.22C746.765 104.57 746.682 104.929 746.48 105.22C746.18 105.55 745.66 105.5 745.21 105.48C743.04 105.4 740.88 106.81 738.79 106.19C736.7 105.57 735.63 102.97 735.15 100.71C734.67 98.45 734.15 95.89 732.21 94.71C730.27 93.53 727.62 94.01 725.92 92.56C723.23 90.27 725.12 85.2 722.51 82.84C720.51 81.02 717.32 82.06 715.01 83.46C712.7 84.86 710.16 86.61 707.55 85.92C706.67 85.68 705.88 85.17 705.02 84.84C700.91 83.28 695.58 85.93 692.2 83.11C690.971 81.8846 690.088 80.3564 689.64 78.68C688.713 76.4176 688.085 74.0444 687.77 71.62C687.47 69.1657 688.145 66.6918 689.65 64.73C691.85 62.13 695.57 61.49 698.38 59.57C700.77 57.94 702.38 55.44 703.96 52.99C705.54 50.54 707.07 47.99 709.37 46.26C711.67 44.53 714.93 43.68 717.51 44.99C718.326 45.5514 719.228 45.977 720.18 46.25C721.237 46.2711 722.277 45.9901 723.18 45.44C732.8 40.91 744 41.71 754.55 43.06C758.77 43.6 763.05 44.24 766.9 46.06C770.75 47.88 774.15 51.06 775.23 55.19C776.09 58.45 775.43 61.99 776.47 65.19C777.17 67.37 778.61 69.19 779.47 71.38C781.72 77.22 779.03 83.64 777.89 89.8C776.64 96.53 777.27 103.8 774.41 110.19C773.85 111.44 773.22 113.63 771.81 112.8C770.81 112.19 769.75 108.64 769.15 107.54C767.163 103.871 764.941 100.334 762.5 96.95V96.95Z" fill="black"/>
<path opacity="0.1" d="M823.36 205.34L828.36 219.58C828.36 219.58 816.52 263.58 810.97 272.84C805.42 282.1 797.29 293.92 797.29 293.92C797.29 293.92 783.61 300.76 767.7 297.62C751.79 294.48 705.38 286.15 705.38 286.15C705.38 286.15 701.5 286.89 699.47 283.93C697.44 280.97 686.89 279.49 686.89 279.49C686.89 279.49 674.69 261.74 689.67 254.34C689.67 254.34 691.51 258.41 699.47 255.64C707.43 252.87 709.82 257.86 709.82 257.86C709.82 257.86 722.77 260.45 729.98 259.52C737.19 258.59 755.13 258.23 756.98 256.75C757.447 256.335 758.058 256.121 758.682 256.155C759.306 256.189 759.891 256.467 760.31 256.93C760.31 256.93 764.74 255.27 766.22 253.61C767.7 251.95 769.74 255.45 769.74 255.45C769.74 255.45 772.33 253.98 771.59 252.13C770.85 250.28 773.99 243.25 773.99 243.25C773.99 243.25 775.47 238.63 774.54 234.93C773.61 231.23 779.17 217.93 779.17 217.93C779.242 215.686 778.993 213.443 778.43 211.27C777.5 207.94 785.43 201.27 785.43 201.27C785.43 201.27 793.2 163.55 809.66 175.94C826.12 188.33 823.36 205.34 823.36 205.34Z" fill="black"/>
<path d="M824.5 205.34L829.5 219.58C829.5 219.58 817.66 263.58 812.11 272.84C806.56 282.1 798.43 293.92 798.43 293.92C798.43 293.92 784.74 300.76 768.84 297.62C752.94 294.48 706.5 286.15 706.5 286.15C706.5 286.15 702.62 286.89 700.59 283.93C698.56 280.97 688.01 279.49 688.01 279.49C688.01 279.49 675.81 261.74 690.79 254.34C690.79 254.34 692.63 258.41 700.59 255.64C708.55 252.87 710.94 257.86 710.94 257.86C710.94 257.86 723.94 260.45 731.1 259.52C738.26 258.59 756.25 258.23 758.1 256.75C758.565 256.336 759.175 256.122 759.797 256.156C760.419 256.19 761.002 256.468 761.42 256.93C761.42 256.93 765.86 255.27 767.34 253.61C768.82 251.95 770.86 255.45 770.86 255.45C770.86 255.45 773.44 253.98 772.7 252.13C771.96 250.28 775.11 243.25 775.11 243.25C775.11 243.25 776.59 238.63 775.66 234.93C774.73 231.23 780.29 217.93 780.29 217.93C780.362 215.686 780.113 213.443 779.55 211.27C778.62 207.94 786.55 201.27 786.55 201.27C786.55 201.27 794.32 163.55 810.78 175.94C827.24 188.33 824.5 205.34 824.5 205.34Z" fill="#4C4981"/>
<path opacity="0.1" d="M704.27 264.89C704.46 266.18 708.53 271.36 707.05 272.28C705.57 273.2 703.16 272.65 705.38 275.61C707.6 278.57 707.38 283.01 705.94 282.45C704.5 281.89 702.06 275.24 702.06 272.65C702.06 270.06 704.27 264.89 704.27 264.89Z" fill="black"/>
<path opacity="0.1" d="M759.2 261.93C759.2 261.93 760.31 274.87 769.37 278.57C778.43 282.27 759.2 261.93 759.2 261.93Z" fill="black"/>
<path opacity="0.1" d="M778.06 257.49C778.61 257.67 791 264.33 785.45 268.21C779.9 272.09 778.06 257.49 778.06 257.49Z" fill="black"/>
<path opacity="0.1" d="M778.8 248.24C778.8 248.24 796.92 251.94 790.8 255.08C784.68 258.22 778.8 248.24 778.8 248.24Z" fill="black"/>
<g opacity="0.1">
<path opacity="0.1" d="M747.37 93.07C748.26 90.52 750.37 88.21 753 87.8C756.9 87.2 760.17 90.61 762.46 93.8C764.87 97.1731 767.061 100.697 769.02 104.35C769.62 105.46 770.64 109.01 771.68 109.62C773.09 110.45 773.68 108.25 774.28 107C777.14 100.64 776.51 93.35 777.76 86.62C778.49 82.69 779.84 78.62 780.14 74.73C780.56 79.56 778.67 84.65 777.76 89.58C776.51 96.31 777.14 103.58 774.28 109.96C773.72 111.21 773.09 113.4 771.68 112.58C770.68 111.97 769.62 108.42 769.02 107.31C767.073 103.661 764.896 100.141 762.5 96.77C760.21 93.55 756.94 90.15 753.04 90.77C750.37 91.18 748.3 93.49 747.41 96.04C746.964 97.3837 746.715 98.7849 746.67 100.2C746.452 97.8004 746.69 95.3814 747.37 93.07V93.07Z" fill="black"/>
<path opacity="0.1" d="M689.6 75.51C690.051 77.1853 690.934 78.7129 692.16 79.94C695.54 82.76 700.87 80.1 704.98 81.67C705.803 82.0724 706.648 82.4296 707.51 82.74C710.12 83.44 712.66 81.74 714.97 80.29C717.28 78.84 720.47 77.85 722.47 79.66C725.08 82.03 723.19 87.1 725.88 89.38C727.58 90.84 730.28 90.38 732.17 91.53C734.06 92.68 734.63 95.32 735.11 97.53C735.59 99.74 736.54 102.35 738.75 103.01C740.96 103.67 743 102.22 745.17 102.3C745.62 102.3 746.17 102.37 746.44 102.04C746.512 101.962 746.567 101.87 746.6 101.77C746.6 102.51 746.6 103.25 746.67 103.99C746.723 104.34 746.641 104.698 746.44 104.99C746.14 105.32 745.62 105.27 745.17 105.25C743 105.17 740.84 106.58 738.75 105.96C736.66 105.34 735.59 102.73 735.11 100.48C734.63 98.23 734.11 95.66 732.17 94.43C730.23 93.2 727.58 93.73 725.88 92.28C723.19 90 725.08 84.93 722.47 82.56C720.47 80.75 717.28 81.79 714.97 83.19C712.66 84.59 710.12 86.34 707.51 85.64C706.63 85.4 705.84 84.9 704.98 84.57C700.87 83 695.54 85.66 692.16 82.84C690.931 81.6107 690.048 80.0792 689.6 78.4C688.671 76.1384 688.042 73.7649 687.73 71.34C687.66 70.5136 687.68 69.682 687.79 68.86C688.136 71.1388 688.743 73.3702 689.6 75.51V75.51Z" fill="black"/>
</g>
<path d="M233.56 563.2C233.56 625.62 269.79 676.2 314.48 676.2C359.17 676.2 395.4 625.6 395.4 563.2C395.4 500.8 359.17 450.2 314.48 450.2C269.79 450.2 233.56 500.79 233.56 563.2ZM239.14 561.69C239.14 507.05 271 462.75 310.29 462.75C349.58 462.75 381.5 507.07 381.5 561.69C381.5 616.31 349.64 660.63 310.34 660.63C271.04 660.63 239.14 616.33 239.14 561.69Z" fill="#35323E"/>
<path d="M304.71 316.25L310.29 411.13H419.95C429.461 411.039 438.66 414.518 445.73 420.88C452.083 426.68 456.03 434.651 456.79 443.22V585.53H442.79L442.89 575.76H304.66V561.76H443.08L444.22 447.58C444.239 446.144 444.091 444.711 443.78 443.31C442.92 439.55 440.51 432.69 434.06 428.84C431.234 427.211 428.021 426.375 424.76 426.42H300.5L293.5 327.36H251.7V316.25H304.71Z" fill="#464353"/>
<path opacity="0.1" d="M304.71 316.25L310.29 411.13H419.95C429.461 411.039 438.66 414.518 445.73 420.88C452.083 426.68 456.03 434.651 456.79 443.22V585.53H442.79L442.89 575.76H304.66V561.76H443.08L444.22 447.58C444.239 446.144 444.091 444.711 443.78 443.31C442.92 439.55 440.51 432.69 434.06 428.84C431.234 427.211 428.021 426.375 424.76 426.42H300.5L293.5 327.36H251.7V316.25H304.71Z" fill="black"/>
<path d="M301.23 367.17L195.89 363.69L201.47 510.18L454 512.97L447.72 453.68L310.29 476.7L301.23 367.17Z" fill="#35323E"/>
<path d="M345.17 561.8H205.65V575.75H345.17V561.8Z" fill="#464353"/>
<path d="M300.5 551.23V510.23H311.66V551.23C315.79 554.32 318.66 560.7 318.66 568.09C318.66 578.49 313.03 586.92 306.1 586.92C299.17 586.92 293.54 578.49 293.54 568.09C293.55 560.7 296.4 554.32 300.5 551.23Z" fill="#464353"/>
<path d="M355.35 586.14C353.041 583.996 350.038 582.754 346.889 582.642C343.74 582.53 340.655 583.555 338.2 585.53C338.2 585.53 321.46 596.69 336.8 644.13C336.8 644.13 347.97 651.13 342.38 628.78C336.79 606.43 339.59 592.5 345.17 592.5C350.75 592.5 357.73 607.85 357.73 607.85L367.5 603.67C367.5 603.67 363.09 593.38 355.35 586.14Z" fill="#464353"/>
<path d="M459.99 586.14C457.681 583.996 454.678 582.754 451.529 582.642C448.38 582.53 445.296 583.555 442.84 585.53C442.84 585.53 426.1 596.69 441.44 644.13C441.44 644.13 452.61 651.13 447.03 628.78C441.45 606.43 444.23 592.5 449.82 592.5C455.41 592.5 462.37 607.85 462.37 607.85L472.14 603.67C472.14 603.67 467.73 593.38 459.99 586.14Z" fill="#464353"/>
<path d="M458.88 681.8C476.216 681.8 490.27 663.059 490.27 639.94C490.27 616.821 476.216 598.08 458.88 598.08C441.544 598.08 427.49 616.821 427.49 639.94C427.49 663.059 441.544 681.8 458.88 681.8Z" fill="#35323E"/>
<path d="M354.24 681.8C371.576 681.8 385.63 663.059 385.63 639.94C385.63 616.821 371.576 598.08 354.24 598.08C336.904 598.08 322.85 616.821 322.85 639.94C322.85 663.059 336.904 681.8 354.24 681.8Z" fill="#35323E"/>
<path d="M541.5 637.07C538.27 633.78 533.35 631.34 530.38 631.34C524.13 631.34 499.49 602.1 497.85 597.96C497.25 596.45 496.25 596.96 495.23 598.29C493.23 593.56 490.61 586.9 489.91 582.14C492.55 581.47 494.24 580.98 494.24 580.98C494.24 580.98 494.56 571.56 492.24 570.58H492.18C489.94 569.26 489.94 549.83 489.94 549.83C489.94 549.83 484.69 532.66 485.35 526.46C486.01 520.26 472.24 473.07 472.24 473.07C472.24 473.07 468.63 444.7 462.06 441.83C456.51 439.4 409.76 426.06 395.32 421.96C395.01 421.26 392.77 416.86 385.51 416.86C377.62 416.86 353.97 417.19 346.09 408.09C345.116 406.885 344.299 405.561 343.66 404.15C347.56 396.98 347.81 385.15 346.41 382.42C344.41 378.52 343.13 370.72 343.13 370.72C343.13 370.72 342.13 351.88 340.81 347C339.49 342.12 333.93 302.16 333.93 302.16C333.93 302.16 322.76 291.51 314.87 289.21C311.434 288.078 308.208 286.389 305.32 284.21C305.44 283.56 305.56 282.97 305.65 282.47C310.783 278.183 314.308 272.281 315.65 265.73C315.802 265.375 315.909 265.002 315.97 264.62C316.032 264.109 316.058 263.595 316.05 263.08C316.15 262.14 316.21 261.19 316.22 260.23V259.94C316.22 259.83 316.22 259.72 316.22 259.61C316.321 259.146 316.507 258.705 316.77 258.31C317.92 256.66 320.29 256.31 322.18 255.49C322.465 255.359 322.742 255.212 323.01 255.05L323.25 254.89C323.43 254.78 323.6 254.67 323.76 254.55L324.04 254.32L324.45 253.97L324.72 253.7C324.84 253.58 324.96 253.46 325.07 253.33L325.33 253.02C325.43 252.89 325.53 252.77 325.62 252.64L325.86 252.29C325.947 252.168 326.027 252.041 326.1 251.91C326.18 251.78 326.26 251.65 326.33 251.51C326.4 251.37 326.46 251.26 326.52 251.14C326.58 251.02 326.67 250.84 326.73 250.69C326.783 250.579 326.829 250.466 326.87 250.35C326.94 250.18 327.01 250.01 327.07 249.84L327.16 249.57C327.22 249.37 327.29 249.17 327.35 248.96C327.35 248.96 327.35 248.96 327.35 248.9C327.793 247.208 327.948 245.454 327.81 243.71V243.71C327.81 243.27 327.73 242.84 327.66 242.41C327.17 239.41 326.09 236.32 326.45 233.36C326.45 233.1 326.53 232.84 326.58 232.58C326.58 232.58 326.58 232.52 326.58 232.49C326.639 232.22 326.713 231.953 326.8 231.69C327.21 230.5 327.91 229.41 328.29 228.22C328.367 227.974 328.431 227.723 328.48 227.47V227.27C328.48 227.06 328.54 226.85 328.55 226.64C328.55 226.59 328.55 226.54 328.55 226.49C328.573 225.941 328.536 225.391 328.44 224.85V224.85C327.952 222.508 326.696 220.396 324.87 218.85C322.16 216.47 318.61 215.16 315.12 214.01C306.12 211.01 296.75 208.17 287.22 207.56C283.04 207.29 277.57 206 274.22 208.56C270.31 211.56 267.87 213.81 263.01 215.85C259.5 217.32 255.84 219.58 255.01 223.13C254.818 224.709 254.761 226.301 254.84 227.89C254.68 231.09 253.14 234.07 252.15 237.13C251.528 238.921 251.276 240.819 251.41 242.71C251.41 242.71 251.41 242.77 251.41 242.8C251.41 243.02 251.47 243.24 251.51 243.45C251.51 243.45 251.51 243.53 251.51 243.56C251.608 244.036 251.752 244.502 251.94 244.95C251.94 245.01 251.99 245.06 252.01 245.12C252.03 245.18 252.17 245.45 252.26 245.61L252.35 245.78C252.48 245.99 252.61 246.19 252.76 246.39C253.37 247.2 254.19 247.88 254.76 248.73C255.474 250.057 255.864 251.534 255.9 253.04C256.06 254.56 256.21 256.09 256.37 257.61C256.37 257.73 256.37 257.84 256.37 257.95C256.32 258.62 256.29 259.3 256.29 259.95C256.294 261.524 256.421 263.096 256.67 264.65C253.34 267.16 249.91 270.17 249.2 272.37C248.708 273 248.431 273.771 248.41 274.57C245.28 277.02 231.98 275.57 231.98 275.57C231.98 275.57 221.14 281.42 217.2 279.14C213.26 276.86 189.6 295.06 189.6 295.06C189.6 295.06 183.36 295.39 183.03 297.99C183.03 297.99 175.15 303.84 169.23 303.84C163.31 303.84 159.7 311.31 159.7 311.31C159.7 311.31 149.85 315.86 146.56 316.51C143.27 317.16 137.69 320.41 139.34 321.71C140.99 323.01 139.01 325.93 136.05 328.21C133.09 330.49 128.49 342.21 132.44 343.8C136.39 345.39 147.22 348.68 150.18 350.3C151.311 350.891 152.592 351.131 153.86 350.99C155.294 351.084 156.731 350.848 158.06 350.3L158.52 349.73C162.38 352.66 167.41 355.67 172.25 356.15C179.87 356.91 196.25 360.03 203.19 361.38C203.19 361.81 203.19 362.24 203.19 362.67C203.13 374.81 203.7 387.39 206.04 391.24C210.97 399.37 211.62 463.05 211.62 463.05C211.62 463.05 227.06 465.33 232.32 470.2C237.32 474.8 262.5 483.2 267.47 472.29L269.05 472.97C281.85 478.52 298.84 486.42 300.79 489.97C303.94 495.82 326.61 505.57 326.61 505.57C326.61 505.57 341.4 505.89 337.12 519.57C332.84 533.25 365.5 565.99 365.5 565.99C365.449 568.059 366.113 570.083 367.38 571.72C367.795 572.242 368.264 572.718 368.78 573.14C370.09 574.14 374.17 575.97 378.9 576.78C380.11 579.5 381.07 581.86 380.9 582.24C380.73 582.62 382.32 584.03 384.41 585.87C386.018 589.451 387.907 592.898 390.06 596.18V596.18C390.778 597.39 391.785 598.404 392.99 599.13C396.19 600.43 429.53 620.25 435.78 620.9C441.59 621.51 453.39 624.36 464.01 616.09L462.3 629.95L461.73 634.55C461.73 634.55 478.49 641.37 485.39 641.37C492.29 641.37 515.61 652.42 515.61 652.42C515.61 652.42 531.05 655.67 541.24 648.85C546.57 645.28 545.06 640.64 541.5 637.07ZM435.5 486.39C433.85 489.96 434.92 496.46 435.7 496.46C436.48 496.46 440.1 501.66 438.13 507.51C436.16 513.36 450.94 566.64 457.51 573.79C457.51 573.79 457.51 573.97 457.39 574.28C456.91 576.45 455.53 585.28 464.74 585.81H465.79C466.49 591.37 467.54 600.12 468.18 607.38C466.7 603.07 460.99 598.7 455.29 595.26C451.035 592.728 446.619 590.477 442.07 588.52C442.07 588.52 423.67 584.14 419.73 580.52C415.79 576.9 404.04 570.41 404.04 570.41C402.19 568.74 400.11 566.86 398.15 565.06C398.26 564.3 398.33 563.5 398.37 562.65C397.905 560.945 397.324 559.275 396.63 557.65C395.86 555.9 394.87 554.2 393.77 553.51C391.15 551.89 382.27 518.42 382.27 514.51C382.27 510.6 376.69 492.09 374.72 488.84C372.75 485.59 370.45 477.44 370.45 477.44C370.45 477.44 400.34 482.02 428.27 479.44C428.22 479.56 437.09 482.81 435.5 486.39ZM204.16 336.27V336.65L202.42 336.22C203.5 336.27 204.16 336.27 204.16 336.27ZM299 286.68C299 287.27 299 287.88 299 288.49L298.66 288.14C298.38 287.83 298.12 287.51 297.85 287.19C298.24 287.07 298.62 286.86 299 286.68ZM331.15 355.07C330.82 353.16 330.64 352.07 330.64 352.07L330.76 350.24L331.15 355.07ZM179.15 332C179.843 331.765 180.561 331.611 181.29 331.54C181.925 331.595 182.545 331.765 183.12 332.04C183.89 332.4 184.69 332.74 185.5 333.04L179.77 332.04C179.568 332.01 179.364 332 179.16 332.01L179.15 332Z" fill="url(#paint1_linear)"/>
<path d="M373.67 566.66C373.67 566.66 380.27 580.32 379.95 581.29C379.63 582.26 394.13 593.86 394.13 593.86L409.93 582.58L408.32 574.84C408.32 574.84 390.59 558.84 389.32 557.01C388.05 555.18 373.67 566.66 373.67 566.66Z" fill="#A1616A"/>
<path d="M463.78 612.89C452.78 623.53 439.92 620.3 433.78 619.66C427.64 619.02 394.93 599.34 391.78 598.05C390.595 597.331 389.609 596.327 388.91 595.13V595.13C386.802 591.865 384.95 588.441 383.37 584.89C383.59 584.95 394.32 588.01 397.03 584.89C397.03 584.89 401.54 579.35 402.51 579.35C403.48 579.35 402.58 569.64 402.58 569.64C402.58 569.64 414.12 576.13 417.99 579.64C421.86 583.15 439.91 587.54 439.91 587.54C444.385 589.483 448.728 591.718 452.91 594.23C461.5 599.48 470.02 606.84 463.78 612.89Z" fill="#67647E"/>
<path opacity="0.1" d="M463.78 612.89C452.78 623.53 439.92 620.3 433.78 619.66C427.64 619.02 394.93 599.34 391.78 598.05C390.595 597.331 389.608 596.327 388.91 595.13C392.73 592.85 417.65 608.7 424.63 611.6C431.61 614.5 449.25 612.89 459.25 608.7C464.25 606.61 459.18 600.18 452.88 594.26C461.5 599.48 470.02 606.84 463.78 612.89Z" fill="black"/>
<path d="M462.5 579.35C462.5 579.35 467.1 613.85 465.93 618.35C464.76 622.85 494.75 602.87 494.75 602.87C494.75 602.87 484.26 581.25 487.33 576.28C490.4 571.31 462.5 579.35 462.5 579.35Z" fill="#A1616A"/>
<path d="M491.19 580C491.19 580 472.49 585.48 462.19 584.83C453.19 584.27 454.5 575.55 454.98 573.39C455.05 573.08 455.1 572.9 455.1 572.9C448.65 565.81 434.1 512.9 436.1 507.12C438.1 501.34 434.49 496.12 433.72 496.12C432.95 496.12 431.91 489.67 433.52 486.12C435.13 482.57 426.43 479.35 426.43 479.35C399.02 481.93 369.68 477.35 369.68 477.35C369.68 477.35 371.93 485.45 373.87 488.67C375.81 491.89 381.29 510.28 381.29 514.15C381.29 518.02 389.99 551.23 392.57 552.84C393.65 553.52 394.62 555.21 395.38 556.94C396.059 558.543 396.63 560.19 397.09 561.87C396.09 583.47 371.61 575.09 368.09 572.19C367.046 571.331 366.213 570.245 365.655 569.014C365.097 567.783 364.828 566.441 364.87 565.09C364.87 565.09 332.87 532.6 337.06 519.07C341.25 505.54 326.74 505.21 326.74 505.21C326.74 505.21 304.5 495.51 301.4 489.71C299.49 486.14 282.8 478.3 270.24 472.79C262.37 469.34 256.12 466.79 256.12 466.79L261.35 448.07L265.5 433.28L273.26 430.36L298.04 421.07L342.59 414.94L346.67 415.47L389.94 421.07C389.94 421.07 453.14 439.12 459.59 441.97C466.04 444.82 469.59 472.97 469.59 472.97C469.59 472.97 483.13 519.73 482.49 525.88C481.85 532.03 487 549.07 487 549.07C487 549.07 487 568.36 489.19 569.67H489.26C491.5 570.65 491.19 580 491.19 580Z" fill="#4C4981"/>
<path opacity="0.1" d="M426.38 479.39C398.97 481.97 369.63 477.39 369.63 477.39C367.69 471.3 340.63 454.53 340.63 454.53C362.82 449.07 426.38 479.39 426.38 479.39Z" fill="black"/>
<path d="M397.04 561.94C396.04 583.54 371.56 575.16 368.04 572.26C367.533 571.841 367.074 571.368 366.67 570.85C375.24 574.01 390.42 576.44 395.36 557.01C396.029 558.614 396.59 560.261 397.04 561.94V561.94Z" fill="#444053"/>
<path d="M491.19 580C491.19 580 472.49 585.48 462.19 584.83C453.19 584.27 454.5 575.55 454.98 573.39C464.45 573.09 480.75 572.2 489.21 569.64H489.28C491.5 570.65 491.19 580 491.19 580Z" fill="#444053"/>
<path opacity="0.1" d="M397.04 561.94C396.04 583.54 371.56 575.16 368.04 572.26C367.533 571.841 367.074 571.368 366.67 570.85C375.24 574.01 390.42 576.44 395.36 557.01C396.029 558.614 396.59 560.261 397.04 561.94V561.94Z" fill="black"/>
<path opacity="0.1" d="M491.19 580C491.19 580 472.49 585.48 462.19 584.83C453.19 584.27 454.5 575.55 454.98 573.39C464.45 573.09 480.75 572.2 489.21 569.64H489.28C491.5 570.65 491.19 580 491.19 580Z" fill="black"/>
<path d="M537.3 647.39C527.3 654.16 512.15 650.94 512.15 650.94C512.15 650.94 489.26 639.94 482.49 639.94C475.72 639.94 459.27 633.17 459.27 633.17L459.82 628.61L462.5 606.76C462.5 606.76 487.62 606.12 488.62 603.86C488.62 603.86 493.14 592.75 494.75 596.86C496.36 600.97 520.55 629.99 526.67 629.99C529.59 629.99 534.42 632.41 537.59 635.67C541.06 639.24 542.5 643.85 537.3 647.39Z" fill="#67647E"/>
<path opacity="0.1" d="M450.56 456.82C450.56 456.82 429.56 470.04 435.41 472.94C441.26 475.84 450.56 456.82 450.56 456.82Z" fill="black"/>
<path opacity="0.1" d="M459.27 482.29C459.27 482.29 441.21 499.44 447.98 499.89C454.75 500.34 459.27 482.29 459.27 482.29Z" fill="black"/>
<path opacity="0.1" d="M478.62 536.79C478.62 536.79 469.5 554.07 472.9 557.01C476.3 559.95 478.62 536.79 478.62 536.79Z" fill="black"/>
<path opacity="0.1" d="M377.69 554.2C380.91 557.43 347.05 543.56 354.79 542.91C362.53 542.26 377.69 554.2 377.69 554.2Z" fill="black"/>
<path d="M309.97 312.36L308.9 312.2C304.9 311.58 290.35 309.3 277.31 306.47C274.13 305.78 271.05 305.06 268.22 304.32C258.22 301.7 251.53 298.87 255.8 296.56C261.46 293.49 264.44 287.91 266.01 283.11C266.163 282.637 266.303 282.177 266.43 281.73C267.125 279.31 267.561 276.822 267.73 274.31C267.73 274.31 304.17 261.41 297.07 274.31C293.59 280.64 295.93 285.8 299.22 289.42C301.477 291.811 304.134 293.79 307.07 295.27L309.97 312.36Z" fill="#A1616A"/>
<path opacity="0.1" d="M270.96 302.36C270.96 302.36 283.96 311.71 297.3 303.97C310.64 296.23 328.03 372.34 328.03 372.34L346.09 416.83C346.09 416.83 357.79 426.51 343.23 430.7C328.67 434.89 296.38 426.51 288.18 438.76C279.98 451.01 264.5 452.95 262.87 452.95C261.24 452.95 255.14 406.84 255.14 406.84L253.5 340.07L270.96 302.36Z" fill="black"/>
<path d="M342.59 428.12C328.03 432.31 295.73 423.93 287.59 436.18C284.132 441.159 279.313 445.037 273.71 447.35C270.085 448.966 266.221 449.979 262.27 450.35C262.06 450.35 261.76 449.5 261.4 448.04C259.13 438.71 254.54 404.24 254.54 404.24L252.95 337.49L268.27 304.3L270.36 299.76C272.418 301.129 274.652 302.216 277 302.99C280.204 304.177 283.628 304.648 287.033 304.369C290.438 304.091 293.741 303.071 296.71 301.38C300.62 299.11 304.88 304.05 308.95 312.18C318.74 331.74 327.43 369.74 327.43 369.74L345.49 414.23C345.921 414.601 346.332 414.995 346.72 415.41C349.23 418.13 354.04 424.82 342.59 428.12Z" fill="#F3F5F9"/>
<path opacity="0.1" d="M273.23 430.36C273.948 435.998 274.092 441.693 273.66 447.36C273.151 455.414 272.149 463.429 270.66 471.36C270.576 471.858 270.446 472.347 270.27 472.82C262.4 469.37 256.15 466.82 256.15 466.82L261.35 448.07C259.08 438.74 254.49 404.27 254.49 404.27L252.9 337.52L268.22 304.33C258.22 301.71 251.53 298.88 255.8 296.57C262 293.2 264.99 286.81 266.43 281.74C269.061 285.395 272.138 288.707 275.59 291.6L275.79 291.77L276.95 303.02L277.31 306.48L278.05 313.66C278.05 313.66 274.5 398.46 271.92 403.3C269.34 408.14 270.63 417.49 272.92 428.45C273.02 429.07 273.13 429.7 273.23 430.36Z" fill="black"/>
<path d="M271.6 427.15C273.86 438.15 271.92 456.15 269.34 470.04C266.76 483.93 239.34 474.88 234.2 470.04C229.06 465.2 213.88 462.95 213.88 462.95C213.88 462.95 213.24 399.74 208.4 391.68C206.1 387.86 205.55 375.38 205.61 363.33C205.61 352.5 206.19 342.02 206.39 338.46C206.44 337.64 206.46 337.19 206.46 337.19C206.46 337.19 185.46 301.72 185.83 299.14C186.2 296.56 192.28 296.24 192.28 296.24C192.28 296.24 215.49 278.18 219.36 280.44C223.23 282.7 233.87 276.89 233.87 276.89C233.87 276.89 247.36 278.42 250.14 275.82C250.311 275.675 250.446 275.492 250.533 275.285C250.62 275.078 250.657 274.854 250.64 274.63C250.32 270.5 264.38 261.69 264.82 261.42C252.97 272.08 272.13 288.5 274.3 290.3L274.5 290.47L276.76 312.36C276.76 312.36 273.21 397.16 270.63 402C268.05 406.84 269.34 416.19 271.6 427.15Z" fill="#21CE99"/>
<path d="M270.35 336.64C271.239 336.64 271.96 335.919 271.96 335.03C271.96 334.141 271.239 333.42 270.35 333.42C269.461 333.42 268.74 334.141 268.74 335.03C268.74 335.919 269.461 336.64 270.35 336.64Z" fill="#444053"/>
<path opacity="0.1" d="M273.66 291.59L263.86 301.07L249.5 277.07C249.67 276.924 249.803 276.74 249.89 276.534C249.976 276.327 250.014 276.103 250 275.88C249.68 271.75 263.74 262.94 264.17 262.67C252.32 273.37 271.5 289.79 273.66 291.59Z" fill="black"/>
<path opacity="0.1" d="M267.13 388.23C268.019 388.23 268.74 387.509 268.74 386.62C268.74 385.731 268.019 385.01 267.13 385.01C266.241 385.01 265.52 385.731 265.52 386.62C265.52 387.509 266.241 388.23 267.13 388.23Z" fill="black"/>
<path d="M267.13 387.58C268.019 387.58 268.74 386.859 268.74 385.97C268.74 385.081 268.019 384.36 267.13 384.36C266.241 384.36 265.52 385.081 265.52 385.97C265.52 386.859 266.241 387.58 267.13 387.58Z" fill="#444053"/>
<path d="M274.3 290.3L264.5 299.78L250.13 275.78C250.301 275.635 250.436 275.452 250.523 275.245C250.61 275.038 250.647 274.814 250.63 274.59C250.31 270.46 264.37 261.65 264.81 261.38C252.97 272.07 272.13 288.5 274.3 290.3Z" fill="#21CE99"/>
<path opacity="0.1" d="M393.5 424.25C385.44 427.8 332.55 418.45 324.82 416.19C317.09 413.93 305.82 396.52 311.27 383.94C316.72 371.36 309.33 359.07 309.33 359.07C309.33 359.07 297.72 334.25 295.14 329.41C292.56 324.57 287.14 310.49 286.43 308.13C286.404 307.865 286.432 307.598 286.511 307.344C286.59 307.089 286.719 306.854 286.89 306.65C288.99 303.46 297.07 297.81 297.07 297.81C299.35 298.63 299.63 292.11 299.54 287.32C299.49 284.64 299.33 282.5 299.33 282.5C299.33 282.5 300.4 283.59 302.15 285.07C302.79 285.61 303.52 286.2 304.32 286.81C307.362 289.253 310.807 291.148 314.5 292.41C322.24 294.69 333.2 305.26 333.2 305.26L329.97 354.79C329.97 354.79 337.39 401.36 345.13 410.39C352.87 419.42 376.13 419.09 383.82 419.09C391.51 419.09 393.5 424.25 393.5 424.25Z" fill="black"/>
<path d="M394.13 422.32C386.07 425.86 333.19 416.51 325.45 414.25C317.71 411.99 306.45 394.58 311.91 382.01C317.37 369.44 309.97 357.18 309.97 357.18C309.97 357.18 298.36 332.35 295.78 327.51C293.2 322.67 287.83 308.59 287.08 306.23C287.047 305.966 287.071 305.699 287.151 305.445C287.23 305.192 287.363 304.958 287.54 304.76C289.63 301.56 297.72 295.91 297.72 295.91C300 296.74 300.28 290.22 300.19 285.43C300.14 282.74 299.98 280.6 299.98 280.6C299.98 280.6 301.05 281.69 302.79 283.18C303.43 283.71 304.16 284.31 304.97 284.92C308.007 287.349 311.446 289.227 315.13 290.47C322.87 292.76 333.83 303.33 333.83 303.33L330.61 352.85C330.61 352.85 338.03 399.42 345.76 408.45C353.49 417.48 376.76 417.16 384.46 417.16C392.16 417.16 394.13 422.32 394.13 422.32Z" fill="#21CE99"/>
<path opacity="0.1" d="M306.43 281.89C306.43 281.89 306.12 283.6 305.61 286.21C303.88 295.06 299.74 314.4 296.75 313.65C294.61 313.11 290.99 309.32 288.18 306.05C290.28 302.85 298.36 297.2 298.36 297.2C300.64 298.03 300.92 291.51 300.83 286.72L303.44 284.47L306.43 281.89Z" fill="black"/>
<path d="M305.78 280.6C305.78 280.6 305.48 282.31 304.97 284.92C303.23 293.77 299.09 313.11 296.11 312.36C293.97 311.82 290.35 308.03 287.54 304.76C289.63 301.56 297.72 295.91 297.72 295.91C300 296.74 300.28 290.22 300.19 285.43L302.79 283.18L305.78 280.6Z" fill="#21CE99"/>
<path d="M304.46 329.83V362.55L295.81 380L295.54 380.55L272.64 379.04L263.84 378.45L243.41 377.1V337.97L263.84 338.55L272.98 338.81L296.08 339.46L304.46 329.83Z" fill="#F86D70"/>
<path opacity="0.1" d="M304.46 331.76V362.55L302.35 366.81L300.18 371.18L295.81 380L296.3 347.28L296.4 340.68L300.55 336.09V336.08L302.36 334.08L304.46 331.76Z" fill="black"/>
<path d="M305.63 321.15V332.57L304.46 334.44L302.36 337.79L300.5 340.75L296.4 347.29L296.3 347.28L241.62 344.47V333.2L241.75 333.05L248.28 325.98L250.65 323.43L254.92 318.8L305.63 321.15Z" fill="#F86D70"/>
<path opacity="0.1" d="M296.4 336.02V347.29L241.62 344.47V333.2L241.75 333.05L296.4 336.02Z" fill="black"/>
<path opacity="0.15" d="M305.63 321.15V332.57L296.4 347.29V336.02L305.63 321.15Z" fill="black"/>
<path d="M302.37 326.4L302.36 334.08V337.79L302.35 366.81L300.18 371.18L300.5 340.75L300.55 336.09V336.08L300.63 329.21L248.28 325.98L250.65 323.43L302.37 326.4Z" fill="#3F3D56"/>
<path d="M276.68 326.78L273.01 334.75L272.98 338.81L272.64 379.04L263.84 378.45V334.22L268.54 326.78H276.68Z" fill="#3F3D56"/>
<path d="M264.6 327.32C262.482 328.03 260.203 328.11 258.04 327.55C257.619 327.471 257.224 327.289 256.89 327.02C256.528 326.624 256.282 326.136 256.18 325.61C255.793 324.524 255.58 323.383 255.55 322.23C255.536 321.656 255.655 321.086 255.898 320.566C256.141 320.045 256.501 319.588 256.95 319.23C257.139 319.114 257.316 318.98 257.48 318.83C257.68 318.584 257.824 318.298 257.9 317.99C258.54 316.08 259.78 314.06 261.77 313.75C263.76 313.44 265.29 314.75 266.71 315.96L269.82 318.61C270.166 317.683 270.783 316.883 271.592 316.313C272.4 315.743 273.362 315.431 274.351 315.417C275.339 315.403 276.31 315.688 277.134 316.234C277.958 316.781 278.598 317.564 278.97 318.48C280.854 316.358 283.23 314.73 285.89 313.74C286.169 313.595 286.477 313.513 286.791 313.499C287.105 313.485 287.419 313.54 287.71 313.66C288.043 313.917 288.296 314.264 288.44 314.66C289.283 316.515 289.739 318.523 289.78 320.56C289.998 320.48 290.236 320.478 290.455 320.555C290.674 320.631 290.86 320.782 290.98 320.98C291.224 321.371 291.362 321.819 291.38 322.28C291.468 322.99 291.512 323.705 291.51 324.42C291.582 325.179 291.379 325.938 290.94 326.56C290.572 326.879 290.142 327.118 289.678 327.262C289.213 327.407 288.724 327.454 288.24 327.4C288.337 327.521 288.406 327.66 288.445 327.81C288.483 327.96 288.49 328.116 288.463 328.268C288.437 328.42 288.378 328.565 288.291 328.693C288.205 328.821 288.092 328.929 287.96 329.01C287.404 329.311 286.769 329.437 286.14 329.37C283.72 329.37 281.14 329.27 279.14 327.93C278.34 327.4 277.68 326.69 276.88 326.17C274.93 324.87 272.47 324.81 270.21 324.92C268.16 324.97 266.5 326.67 264.6 327.32Z" fill="#3F3D56"/>
<path d="M264.15 326.79C264.15 326.79 243.96 329.6 241.15 341.79L245.37 341.17L248.37 346.49C248.37 346.49 251.5 334.59 260.73 331.77C269.96 328.95 273.25 328.49 273.25 328.49C273.25 328.49 279.67 330.05 285.46 348.68L288.75 344.14L294.54 345.39C294.54 345.39 290.31 330.83 278.89 326.77L264.15 326.79Z" fill="#3F3D56"/>
<path d="M326.42 375.56C326.42 375.56 310.29 372.34 305.78 365.24C301.27 358.14 270.56 352.02 274.3 359.44C278.04 366.86 305.78 391.12 305.78 391.12L317.78 408.33L333.78 404.26L340.54 391.12L326.42 375.56Z" fill="#A1616A"/>
<path opacity="0.1" d="M288.27 393.96C288.27 393.96 303.89 399.76 306.27 407.5C308.65 415.24 288.27 393.96 288.27 393.96Z" fill="black"/>
<path opacity="0.1" d="M278.69 402.97C278.69 402.97 277.27 411.03 296.85 410.38L278.69 402.97Z" fill="black"/>
<path opacity="0.1" d="M194.21 299.78L187.12 299.14C187.12 299.14 179.38 304.94 173.57 304.94C167.76 304.94 164.22 312.36 164.22 312.36C164.22 312.36 154.55 316.87 151.32 317.52C148.09 318.17 142.62 321.39 144.23 322.68C145.84 323.97 143.91 326.87 141.01 329.13C138.11 331.39 133.59 342.99 137.46 344.6C141.33 346.21 151.97 349.44 154.87 351.05C157.77 352.66 161.32 351.05 161.32 351.05C161.32 351.05 178.4 328.8 187.11 333C195.82 337.2 207.75 337.19 207.75 337.19L217.11 317.52L194.21 299.78Z" fill="black"/>
<path d="M342.59 405.88C341.957 406.974 341.092 407.915 340.055 408.638C339.018 409.36 337.835 409.846 336.59 410.06C330.281 410.798 323.888 410.209 317.82 408.33C317.82 408.33 350.3 398.01 319.02 372.92H327.4L330.2 371.86L328.92 365.18L327.08 304.94L333.85 303.33C333.85 303.33 339.3 342.99 340.61 347.83C341.92 352.67 342.88 371.37 342.88 371.37C342.88 371.37 344.17 379.11 346.11 382.98C347.5 385.89 347.17 399 342.59 405.88Z" fill="#21CE99"/>
<path opacity="0.1" d="M341.3 405.88C340.667 406.974 339.801 407.915 338.765 408.637C337.728 409.359 336.545 409.845 335.3 410.06C328.981 410.801 322.577 410.212 316.5 408.33C316.5 408.33 348.98 398.01 317.7 372.92H326.09L328.88 371.86C333.5 379.99 340.71 394.46 341.3 405.88Z" fill="black"/>
<path d="M342.59 405.88C341.957 406.974 341.092 407.915 340.055 408.638C339.018 409.36 337.835 409.846 336.59 410.06C330.281 410.798 323.888 410.209 317.82 408.33C317.82 408.33 350.3 398.01 319.02 372.92H327.4L330.2 371.86C334.77 379.99 342 394.46 342.59 405.88Z" fill="#21CE99"/>
<path opacity="0.1" d="M299.22 289.42C293.705 291.914 287.554 292.642 281.609 291.505C275.664 290.369 270.216 287.423 266.01 283.07C266.163 282.597 266.303 282.137 266.43 281.69C267.125 279.27 267.561 276.782 267.73 274.27C267.73 274.27 304.17 261.37 297.07 274.27C293.59 280.64 295.93 285.8 299.22 289.42Z" fill="black"/>
<path d="M316.42 261.41V261.69C316.42 262.69 316.36 263.59 316.26 264.52C316.16 265.45 316.03 266.29 315.86 267.16C314.59 273.48 311.276 279.206 306.429 283.455C301.581 287.704 295.47 290.24 289.039 290.671C282.607 291.102 276.213 289.404 270.842 285.84C265.471 282.276 261.422 277.044 259.32 270.95C259.13 270.38 258.95 269.81 258.79 269.23C258.085 266.683 257.728 264.053 257.73 261.41C257.73 260.73 257.73 260.06 257.81 259.41C258.335 251.824 261.784 244.739 267.431 239.646C273.078 234.554 280.481 231.853 288.081 232.112C295.68 232.372 302.882 235.571 308.168 241.037C313.455 246.502 316.413 253.806 316.42 261.41V261.41Z" fill="#A1616A"/>
<path opacity="0.1" d="M316.42 261.69C316.265 262.625 316.211 263.574 316.26 264.52C316.269 265.031 316.242 265.542 316.18 266.05C316.123 266.432 316.015 266.806 315.86 267.16C314.67 269.94 310.8 271.74 308.25 269.95C307.265 269.14 306.482 268.113 305.96 266.95C303.25 261.95 299.48 256.12 293.55 256.02C291.02 255.97 288.64 257.02 286.19 257.66C283.74 258.3 280.85 258.36 279.02 256.66C277.62 255.38 276.96 253.19 275.08 252.74C273.2 252.29 271.46 254.02 270.6 255.74C269.74 257.46 269.05 259.41 267.31 260.29C266.53 260.67 265.62 260.78 264.86 261.19C261.35 263.12 262.96 269.85 259.32 270.94L258.97 271.02L258.79 269.22C258.457 265.94 258.123 262.66 257.79 259.38C258.315 251.794 261.764 244.709 267.411 239.616C273.058 234.524 280.461 231.823 288.061 232.082C295.66 232.342 302.862 235.541 308.149 241.007C313.435 246.472 316.393 253.776 316.4 261.38L316.42 261.69Z" fill="black"/>
<path d="M264.29 217.61C260.85 219.07 257.29 221.32 256.48 224.84C256.296 226.406 256.243 227.985 256.32 229.56C256.16 232.74 254.64 235.69 253.68 238.73C252.72 241.77 252.36 245.33 254.3 247.92C254.91 248.73 255.71 249.4 256.25 250.25C256.957 251.565 257.344 253.028 257.38 254.52L258.97 270.39C263.07 269.63 261.24 262.54 264.86 260.56C265.62 260.15 266.53 260.03 267.31 259.65C269.05 258.78 269.73 256.79 270.6 255.1C271.47 253.41 273.17 251.68 275.08 252.1C276.99 252.52 277.62 254.74 279.02 256.01C280.85 257.68 283.76 257.6 286.2 257.01C288.64 256.42 291.02 255.32 293.55 255.36C299.48 255.46 303.25 261.26 305.96 266.29C306.485 267.451 307.268 268.477 308.25 269.29C311.13 271.29 315.68 268.76 316.18 265.38C316.45 263.49 315.86 261.38 316.96 259.77C318.06 258.16 320.41 257.77 322.26 256.97C326.97 254.8 328.43 248.92 327.65 243.97C327.08 240.42 325.65 236.75 326.83 233.33C327.23 232.15 327.92 231.07 328.29 229.89C329.29 226.57 327.63 222.89 324.97 220.55C322.31 218.21 318.83 216.89 315.41 215.74C306.61 212.8 297.41 209.95 288.02 209.34C283.92 209.08 278.55 207.8 275.3 210.34C271.5 213.38 269.06 215.59 264.29 217.61Z" fill="#464353"/>
<path opacity="0.1" d="M271.96 311.16C272.849 311.16 273.57 310.439 273.57 309.55C273.57 308.661 272.849 307.94 271.96 307.94C271.071 307.94 270.35 308.661 270.35 309.55C270.35 310.439 271.071 311.16 271.96 311.16Z" fill="black"/>
<path d="M271.96 310.52C272.849 310.52 273.57 309.799 273.57 308.91C273.57 308.021 272.849 307.3 271.96 307.3C271.071 307.3 270.35 308.021 270.35 308.91C270.35 309.799 271.071 310.52 271.96 310.52Z" fill="#444053"/>
<path opacity="0.1" d="M261.65 412.41C262.539 412.41 263.26 411.689 263.26 410.8C263.26 409.911 262.539 409.19 261.65 409.19C260.761 409.19 260.04 409.911 260.04 410.8C260.04 411.689 260.761 412.41 261.65 412.41Z" fill="black"/>
<path d="M261.65 411.77C262.539 411.77 263.26 411.049 263.26 410.16C263.26 409.271 262.539 408.55 261.65 408.55C260.761 408.55 260.04 409.271 260.04 410.16C260.04 411.049 260.761 411.77 261.65 411.77Z" fill="#444053"/>
<path opacity="0.1" d="M267.13 439.18C268.019 439.18 268.74 438.459 268.74 437.57C268.74 436.681 268.019 435.96 267.13 435.96C266.241 435.96 265.52 436.681 265.52 437.57C265.52 438.459 266.241 439.18 267.13 439.18Z" fill="black"/>
<path d="M267.13 438.53C268.019 438.53 268.74 437.809 268.74 436.92C268.74 436.031 268.019 435.31 267.13 435.31C266.241 435.31 265.52 436.031 265.52 436.92C265.52 437.809 266.241 438.53 267.13 438.53Z" fill="#444053"/>
<path opacity="0.1" d="M322.55 335.07C322.55 335.07 326.1 359.15 322.55 363.35C319 367.55 322.55 335.07 322.55 335.07Z" fill="black"/>
<path opacity="0.1" d="M217.11 379.75C217.11 379.75 210.33 394.34 217.11 408.33C223.89 422.32 228.11 428 225.81 436.93C223.51 445.86 217.11 379.75 217.11 379.75Z" fill="black"/>
<path opacity="0.1" d="M537.3 647.39C527.3 654.16 512.15 650.94 512.15 650.94C512.15 650.94 489.26 639.94 482.49 639.94C475.72 639.94 459.27 633.17 459.27 633.17L459.82 628.61C466.51 629.9 481.7 632.96 483.45 634.46C485.71 636.4 513.45 645.75 513.45 645.75C513.45 645.75 532.33 643.39 537.59 635.63C541.06 639.24 542.5 643.85 537.3 647.39Z" fill="black"/>
<g opacity="0.1">
<path opacity="0.1" d="M256.32 226.99C256.32 226.64 256.32 226.29 256.32 225.93C256.32 226.34 256.32 226.74 256.32 227.14C256.325 227.09 256.325 227.04 256.32 226.99V226.99Z" fill="black"/>
<path opacity="0.1" d="M322.26 254.41C320.41 255.27 318.08 255.57 316.96 257.21C315.84 258.85 316.45 260.93 316.18 262.82C315.68 266.2 311.13 268.75 308.25 266.73C307.266 265.919 306.483 264.893 305.96 263.73C303.25 258.73 299.48 252.9 293.55 252.8C291.02 252.8 288.64 253.8 286.2 254.45C283.76 255.1 280.85 255.15 279.02 253.45C277.62 252.18 276.96 249.99 275.08 249.54C273.2 249.09 271.47 250.81 270.6 252.54C269.73 254.27 269.05 256.22 267.31 257.09C266.53 257.47 265.62 257.59 264.86 258C261.25 260 263.07 267.07 258.97 267.83L257.38 251.96C257.344 250.468 256.957 249.005 256.25 247.69C255.71 246.84 254.91 246.17 254.3 245.36C253.573 244.357 253.118 243.182 252.98 241.95C252.633 244.045 253.106 246.194 254.3 247.95C254.91 248.76 255.71 249.43 256.25 250.28C256.957 251.595 257.344 253.058 257.38 254.55L258.97 270.42C263.07 269.66 261.25 262.57 264.86 260.59C265.62 260.18 266.53 260.06 267.31 259.68C269.05 258.81 269.74 256.82 270.6 255.13C271.46 253.44 273.17 251.71 275.08 252.13C276.99 252.55 277.62 254.77 279.02 256.04C280.85 257.71 283.76 257.63 286.2 257.04C288.64 256.45 291.02 255.35 293.55 255.39C299.48 255.49 303.25 261.29 305.96 266.32C306.485 267.481 307.268 268.507 308.25 269.32C311.13 271.32 315.68 268.79 316.18 265.41C316.45 263.52 315.86 261.41 316.96 259.8C318.06 258.19 320.41 257.8 322.26 257C326.57 255 328.15 249.93 327.79 245.3C327.5 249.07 325.78 252.79 322.26 254.41Z" fill="black"/>
<path opacity="0.1" d="M328.29 227.34C327.92 228.52 327.23 229.6 326.83 230.78C326.41 232.169 326.297 233.633 326.5 235.07C326.565 234.505 326.689 233.949 326.87 233.41C327.27 232.23 327.96 231.15 328.33 229.97C328.657 228.877 328.722 227.723 328.52 226.6C328.456 226.85 328.379 227.097 328.29 227.34V227.34Z" fill="black"/>
</g>
<path opacity="0.1" d="M233.55 370.71C226.13 369.09 208.72 363.95 208.72 363.95L205.61 363.33C205.61 352.5 206.19 342.02 206.39 338.46H206.46C206.46 338.46 221.3 343.29 224.84 345.87C228.38 348.45 239.35 347.81 239.35 347.81C239.35 347.81 256.44 348.81 270.63 364.58C284.82 380.35 240.97 372.34 233.55 370.71Z" fill="black"/>
<path d="M161.07 341.93C160.403 342.228 159.823 342.69 159.385 343.274C158.946 343.858 158.663 344.544 158.563 345.267C158.463 345.991 158.549 346.728 158.813 347.409C159.076 348.09 159.509 348.692 160.07 349.16C163.99 352.41 169.73 356.31 175.2 356.86C184.34 357.78 206.32 362.19 208.51 362.63L208.85 362.71C210.66 363.24 226.52 367.89 233.51 369.42C240.93 371.05 284.78 379.11 270.59 363.31C257.53 348.76 242.02 346.79 239.59 346.56C239.4 346.55 239.21 346.55 239.02 346.56C237.36 346.64 228.02 346.96 224.76 344.56C223.074 343.506 221.288 342.618 219.43 341.91C212.42 339.009 205.108 336.899 197.63 335.62L182.5 333.07C181.637 332.919 180.749 333.031 179.95 333.39L161.07 341.93Z" fill="#A1616A"/>
<path d="M192.92 299.78L185.83 299.14C185.83 299.14 178.09 304.94 172.28 304.94C166.47 304.94 162.93 312.36 162.93 312.36C162.93 312.36 153.26 316.87 150.03 317.52C146.8 318.17 141.33 321.39 142.94 322.68C144.55 323.97 142.62 326.87 139.72 329.13C136.82 331.39 132.3 342.99 136.17 344.6C140.04 346.21 150.68 349.44 153.58 351.05C156.48 352.66 160.03 351.05 160.03 351.05C160.03 351.05 177.11 328.8 185.82 333C194.53 337.2 206.5 337.19 206.5 337.19L215.86 317.52L192.92 299.78Z" fill="#21CE99"/>
<path d="M208.44 418.07V501.78H342.38V515.78H209.84V575.78H195.84V418.07H208.44Z" fill="#464353"/>
<path d="M147.05 316.25H200.05L205.63 411.13H315.31C324.821 411.039 334.02 414.518 341.09 420.88C347.443 426.68 351.39 434.651 352.15 443.22V585.53H338.2L339.58 447.63C339.599 446.194 339.452 444.761 339.14 443.36C338.28 439.6 335.87 432.74 329.42 428.89C326.594 427.261 323.381 426.425 320.12 426.47H195.89L188.89 327.41H147.05V316.25Z" fill="#464353"/>
<path d="M128.92 563.2C128.92 625.62 165.15 676.2 209.84 676.2C254.53 676.2 290.76 625.6 290.76 563.2C290.76 500.8 254.53 450.2 209.84 450.2C165.15 450.2 128.92 500.79 128.92 563.2ZM134.5 561.69C134.5 507.05 166.36 462.75 205.65 462.75C244.94 462.75 276.81 507.05 276.81 561.69C276.81 616.33 244.95 660.63 205.65 660.63C166.35 660.63 134.5 616.33 134.5 561.69Z" fill="#35323E"/>
<path d="M201.47 585.53C208.407 585.53 214.03 577.095 214.03 566.69C214.03 556.285 208.407 547.85 201.47 547.85C194.533 547.85 188.91 556.285 188.91 566.69C188.91 577.095 194.533 585.53 201.47 585.53Z" fill="#35323E"/>
<path d="M198.68 572.97C200.221 572.97 201.47 570.472 201.47 567.39C201.47 564.308 200.221 561.81 198.68 561.81C197.139 561.81 195.89 564.308 195.89 567.39C195.89 570.472 197.139 572.97 198.68 572.97Z" fill="#464353"/>
<path d="M349.36 539.49V554.83C353.74 552.1 358.55 552.83 362.8 554.67C366.183 556.214 369.185 558.484 371.592 561.318C373.999 564.152 375.754 567.482 376.73 571.07C380.11 582.77 386.73 605.79 392.61 627.43C400.98 658.07 416.33 651.07 416.33 651.07L523.06 658.75L568.41 635.75V621.75H454C454 621.75 427.49 631.52 416.33 635.75C405.17 639.98 409.33 631.56 394.62 578.92C379.91 526.28 349.36 539.49 349.36 539.49Z" fill="#464353"/>
<path opacity="0.1" d="M416.33 651.1L523.06 658.77L568.41 635.75L456.79 634.36L416.33 651.1Z" fill="black"/>
<path d="M1025.08 646.55C1057.92 646.55 1084.55 641.428 1084.55 635.11C1084.55 628.792 1057.92 623.67 1025.08 623.67C992.235 623.67 965.61 628.792 965.61 635.11C965.61 641.428 992.235 646.55 1025.08 646.55Z" fill="#21CE99"/>
<path d="M1024.09 639.31C1027.91 639.31 1031.01 635.254 1031.01 630.25C1031.01 625.246 1027.91 621.19 1024.09 621.19C1020.27 621.19 1017.17 625.246 1017.17 630.25C1017.17 635.254 1020.27 639.31 1024.09 639.31Z" fill="#3F3D56"/>
<path d="M1024.09 628.23C1027.91 628.23 1031.01 624.174 1031.01 619.17C1031.01 614.166 1027.91 610.11 1024.09 610.11C1020.27 610.11 1017.17 614.166 1017.17 619.17C1017.17 624.174 1020.27 628.23 1024.09 628.23Z" fill="#3F3D56"/>
<path d="M1024.09 617.16C1027.91 617.16 1031.01 613.104 1031.01 608.1C1031.01 603.096 1027.91 599.04 1024.09 599.04C1020.27 599.04 1017.17 603.096 1017.17 608.1C1017.17 613.104 1020.27 617.16 1024.09 617.16Z" fill="#3F3D56"/>
<path d="M1024.09 606.08C1027.91 606.08 1031.01 602.024 1031.01 597.02C1031.01 592.016 1027.91 587.96 1024.09 587.96C1020.27 587.96 1017.17 592.016 1017.17 597.02C1017.17 602.024 1020.27 606.08 1024.09 606.08Z" fill="#3F3D56"/>
<path d="M1024.09 595C1027.91 595 1031.01 590.944 1031.01 585.94C1031.01 580.936 1027.91 576.88 1024.09 576.88C1020.27 576.88 1017.17 580.936 1017.17 585.94C1017.17 590.944 1020.27 595 1024.09 595Z" fill="#3F3D56"/>
<path d="M1024.09 583.92C1027.91 583.92 1031.01 579.864 1031.01 574.86C1031.01 569.856 1027.91 565.8 1024.09 565.8C1020.27 565.8 1017.17 569.856 1017.17 574.86C1017.17 579.864 1020.27 583.92 1024.09 583.92Z" fill="#3F3D56"/>
<path d="M1024.09 572.84C1027.91 572.84 1031.01 568.784 1031.01 563.78C1031.01 558.776 1027.91 554.72 1024.09 554.72C1020.27 554.72 1017.17 558.776 1017.17 563.78C1017.17 568.784 1020.27 572.84 1024.09 572.84Z" fill="#3F3D56"/>
<path d="M1050.01 487.98C1050.95 486.772 1051.82 485.503 1052.59 484.18L1034.39 481.18L1054.07 481.32C1055.95 477.214 1056.98 472.767 1057.09 468.25C1057.2 463.733 1056.39 459.242 1054.7 455.05L1028.31 468.74L1052.65 450.84C1050.37 446.897 1047.3 443.467 1043.64 440.761C1039.97 438.056 1035.79 436.135 1031.35 435.117C1026.91 434.099 1022.31 434.006 1017.83 434.844C1013.36 435.682 1009.1 437.433 1005.33 439.988C1001.56 442.543 998.355 445.847 995.918 449.694C993.48 453.542 991.861 457.85 991.161 462.351C990.461 466.851 990.696 471.448 991.85 475.854C993.004 480.26 995.053 484.381 997.87 487.96C996.399 489.837 995.132 491.865 994.09 494.01L1017.71 506.28L992.5 497.85C990.732 503.075 990.295 508.659 991.227 514.096C992.159 519.533 994.432 524.652 997.84 528.99C993.995 533.882 991.604 539.757 990.94 545.943C990.275 552.13 991.365 558.378 994.085 563.975C996.804 569.571 1001.04 574.29 1006.32 577.591C1011.59 580.892 1017.69 582.642 1023.91 582.642C1030.13 582.642 1036.23 580.892 1041.5 577.591C1046.78 574.29 1051.02 569.571 1053.74 563.975C1056.45 558.378 1057.54 552.13 1056.88 545.943C1056.22 539.757 1053.83 533.882 1049.98 528.99C1054.57 523.143 1057.07 515.924 1057.07 508.49C1057.07 501.056 1054.57 493.837 1049.98 487.99L1050.01 487.98Z" fill="#21CE99"/>
<path opacity="0.1" d="M990.78 508.48C990.763 515.92 993.262 523.148 997.87 528.99C994.025 533.882 991.633 539.757 990.969 545.943C990.305 552.13 991.395 558.378 994.114 563.975C996.834 569.571 1001.07 574.29 1006.35 577.591C1011.62 580.892 1017.72 582.642 1023.94 582.642C1030.16 582.642 1036.26 580.892 1041.53 577.591C1046.81 574.29 1051.05 569.571 1053.77 563.975C1056.48 558.378 1057.57 552.13 1056.91 545.943C1056.25 539.757 1053.86 533.882 1050.01 528.99C1054.5 523.35 990.78 504.76 990.78 508.48Z" fill="black"/>
<path d="M93.08 645.44C115.68 645.44 134 641.916 134 637.57C134 633.224 115.68 629.7 93.08 629.7C70.4805 629.7 52.16 633.224 52.16 637.57C52.16 641.916 70.4805 645.44 93.08 645.44Z" fill="#21CE99"/>
<path d="M92.4 640.47C95.0289 640.47 97.16 637.676 97.16 634.23C97.16 630.784 95.0289 627.99 92.4 627.99C89.7711 627.99 87.64 630.784 87.64 634.23C87.64 637.676 89.7711 640.47 92.4 640.47Z" fill="#3F3D56"/>
<path d="M92.4 632.85C95.0289 632.85 97.16 630.056 97.16 626.61C97.16 623.164 95.0289 620.37 92.4 620.37C89.7711 620.37 87.64 623.164 87.64 626.61C87.64 630.056 89.7711 632.85 92.4 632.85Z" fill="#3F3D56"/>
<path d="M92.4 625.23C95.0289 625.23 97.16 622.436 97.16 618.99C97.16 615.544 95.0289 612.75 92.4 612.75C89.7711 612.75 87.64 615.544 87.64 618.99C87.64 622.436 89.7711 625.23 92.4 625.23Z" fill="#3F3D56"/>
<path d="M92.4 617.6C95.0289 617.6 97.16 614.806 97.16 611.36C97.16 607.914 95.0289 605.12 92.4 605.12C89.7711 605.12 87.64 607.914 87.64 611.36C87.64 614.806 89.7711 617.6 92.4 617.6Z" fill="#3F3D56"/>
<path d="M92.4 609.98C95.0289 609.98 97.16 607.186 97.16 603.74C97.16 600.294 95.0289 597.5 92.4 597.5C89.7711 597.5 87.64 600.294 87.64 603.74C87.64 607.186 89.7711 609.98 92.4 609.98Z" fill="#3F3D56"/>
<path d="M92.4 602.36C95.0289 602.36 97.16 599.566 97.16 596.12C97.16 592.674 95.0289 589.88 92.4 589.88C89.7711 589.88 87.64 592.674 87.64 596.12C87.64 599.566 89.7711 602.36 92.4 602.36Z" fill="#3F3D56"/>
<path d="M92.4 594.74C95.0289 594.74 97.16 591.946 97.16 588.5C97.16 585.054 95.0289 582.26 92.4 582.26C89.7711 582.26 87.64 585.054 87.64 588.5C87.64 591.946 89.7711 594.74 92.4 594.74Z" fill="#3F3D56"/>
<path d="M110.23 536.34C110.881 535.511 111.476 534.639 112.01 533.73L99.49 531.73L113.03 531.83C114.33 529.005 115.039 525.944 115.113 522.835C115.187 519.725 114.625 516.634 113.46 513.75L95.3 523.17L112.05 510.86C110.483 508.146 108.373 505.783 105.852 503.92C103.331 502.057 100.454 500.733 97.3989 500.031C94.344 499.329 91.1772 499.264 88.096 499.84C85.0149 500.415 82.0853 501.62 79.4902 503.378C76.895 505.136 74.6898 507.409 73.012 510.057C71.3343 512.705 70.22 515.67 69.7387 518.767C69.2574 521.865 69.4193 525.028 70.2144 528.06C71.0095 531.092 72.4207 533.927 74.36 536.39C73.3488 537.681 72.4773 539.075 71.76 540.55L88.01 549L70.68 543.18C69.8866 545.539 69.4813 548.011 69.48 550.5C69.4692 555.619 71.1889 560.591 74.36 564.61C71.7082 567.977 70.0577 572.022 69.5972 576.283C69.1366 580.544 69.8848 584.848 71.7559 588.704C73.6271 592.559 76.5457 595.81 80.1779 598.085C83.8102 600.36 88.0093 601.566 92.295 601.566C96.5807 601.566 100.78 600.36 104.412 598.085C108.044 595.81 110.963 592.559 112.834 588.704C114.705 584.848 115.453 580.544 114.993 576.283C114.532 572.022 112.882 567.977 110.23 564.61C113.398 560.589 115.121 555.619 115.121 550.5C115.121 545.381 113.398 540.411 110.23 536.39V536.34Z" fill="#21CE99"/>
<path opacity="0.1" d="M69.5 550.45C69.4892 555.569 71.2089 560.541 74.38 564.56C71.7282 567.927 70.0777 571.972 69.6172 576.233C69.1567 580.494 69.9048 584.798 71.7759 588.654C73.6471 592.509 76.5657 595.76 80.198 598.035C83.8302 600.31 88.0293 601.516 92.315 601.516C96.6007 601.516 100.8 600.31 104.432 598.035C108.064 595.76 110.983 592.509 112.854 588.654C114.725 584.798 115.473 580.494 115.013 576.233C114.552 571.972 112.902 567.927 110.25 564.56C113.29 560.68 69.5 547.89 69.5 550.45Z" fill="black"/>
<path d="M608.08 618.81C624.604 618.81 638 616.236 638 613.06C638 609.884 624.604 607.31 608.08 607.31C591.556 607.31 578.16 609.884 578.16 613.06C578.16 616.236 591.556 618.81 608.08 618.81Z" fill="#21CE99"/>
<path d="M607.58 615.17C609.502 615.17 611.06 613.128 611.06 610.61C611.06 608.092 609.502 606.05 607.58 606.05C605.658 606.05 604.1 608.092 604.1 610.61C604.1 613.128 605.658 615.17 607.58 615.17Z" fill="#3F3D56"/>
<path d="M607.58 609.6C609.502 609.6 611.06 607.558 611.06 605.04C611.06 602.522 609.502 600.48 607.58 600.48C605.658 600.48 604.1 602.522 604.1 605.04C604.1 607.558 605.658 609.6 607.58 609.6Z" fill="#3F3D56"/>
<path d="M607.58 604.03C609.502 604.03 611.06 601.988 611.06 599.47C611.06 596.952 609.502 594.91 607.58 594.91C605.658 594.91 604.1 596.952 604.1 599.47C604.1 601.988 605.658 604.03 607.58 604.03Z" fill="#3F3D56"/>
<path d="M607.58 598.46C609.502 598.46 611.06 596.418 611.06 593.9C611.06 591.382 609.502 589.34 607.58 589.34C605.658 589.34 604.1 591.382 604.1 593.9C604.1 596.418 605.658 598.46 607.58 598.46Z" fill="#3F3D56"/>
<path d="M607.58 592.88C609.502 592.88 611.06 590.838 611.06 588.32C611.06 585.802 609.502 583.76 607.58 583.76C605.658 583.76 604.1 585.802 604.1 588.32C604.1 590.838 605.658 592.88 607.58 592.88Z" fill="#3F3D56"/>
<path d="M607.58 587.31C609.502 587.31 611.06 585.268 611.06 582.75C611.06 580.232 609.502 578.19 607.58 578.19C605.658 578.19 604.1 580.232 604.1 582.75C604.1 585.268 605.658 587.31 607.58 587.31Z" fill="#3F3D56"/>
<path d="M607.58 581.74C609.502 581.74 611.06 579.698 611.06 577.18C611.06 574.662 609.502 572.62 607.58 572.62C605.658 572.62 604.1 574.662 604.1 577.18C604.1 579.698 605.658 581.74 607.58 581.74Z" fill="#3F3D56"/>
<path d="M620.62 539.07C621.097 538.468 621.532 537.833 621.92 537.17L612.77 535.66L622.67 535.74C623.674 533.543 624.193 531.155 624.19 528.74C624.193 526.601 623.782 524.483 622.98 522.5L609.7 529.39L621.95 520.39C620.797 518.418 619.251 516.704 617.409 515.354C615.566 514.005 613.466 513.047 611.239 512.542C609.011 512.038 606.703 511.995 604.459 512.419C602.214 512.842 600.081 513.722 598.19 515.004C596.3 516.286 594.693 517.942 593.469 519.871C592.244 521.799 591.43 523.958 591.074 526.215C590.719 528.471 590.831 530.776 591.403 532.988C591.975 535.199 592.995 537.269 594.4 539.07C593.659 540 593.019 541.005 592.49 542.07L604.37 548.24L591.71 543.99C590.821 546.62 590.601 549.43 591.071 552.166C591.54 554.902 592.685 557.477 594.4 559.66C592.465 562.12 591.261 565.076 590.926 568.188C590.591 571.3 591.138 574.444 592.506 577.26C593.874 580.076 596.006 582.45 598.659 584.111C601.313 585.772 604.38 586.653 607.51 586.653C610.64 586.653 613.707 585.772 616.361 584.111C619.014 582.45 621.146 580.076 622.514 577.26C623.882 574.444 624.429 571.3 624.094 568.188C623.759 565.076 622.555 562.12 620.62 559.66C622.933 556.717 624.19 553.083 624.19 549.34C624.19 545.597 622.933 541.963 620.62 539.02V539.07Z" fill="#21CE99"/>
<path opacity="0.1" d="M590.83 549.36C590.823 553.104 592.081 556.741 594.4 559.68C592.465 562.14 591.261 565.096 590.926 568.208C590.591 571.32 591.139 574.464 592.506 577.28C593.874 580.096 596.006 582.47 598.659 584.131C601.313 585.792 604.38 586.673 607.51 586.673C610.64 586.673 613.708 585.792 616.361 584.131C619.014 582.47 621.147 580.096 622.514 577.28C623.882 574.464 624.429 571.32 624.094 568.208C623.759 565.096 622.555 562.14 620.62 559.68C622.86 556.84 590.83 547.49 590.83 549.36Z" fill="black"/>
<path opacity="0.1" d="M467.93 108.96C476.363 108.96 483.2 102.123 483.2 93.69C483.2 85.2566 476.363 78.42 467.93 78.42C459.497 78.42 452.66 85.2566 452.66 93.69C452.66 102.123 459.497 108.96 467.93 108.96Z" fill="#21CE99"/>
<path opacity="0.1" d="M522.56 51.2C536.698 51.2 548.16 39.7385 548.16 25.6C548.16 11.4615 536.698 0 522.56 0C508.421 0 496.96 11.4615 496.96 25.6C496.96 39.7385 508.421 51.2 522.56 51.2Z" fill="#21CE99"/>
<path opacity="0.1" d="M488.68 175.42C502.819 175.42 514.28 163.958 514.28 149.82C514.28 135.682 502.819 124.22 488.68 124.22C474.542 124.22 463.08 135.682 463.08 149.82C463.08 163.958 474.542 175.42 488.68 175.42Z" fill="#21CE99"/>
<path opacity="0.1" d="M963.43 269.96C971.863 269.96 978.7 263.123 978.7 254.69C978.7 246.257 971.863 239.42 963.43 239.42C954.997 239.42 948.16 246.257 948.16 254.69C948.16 263.123 954.997 269.96 963.43 269.96Z" fill="#21CE99"/>
<path opacity="0.1" d="M908.79 212.2C922.928 212.2 934.39 200.738 934.39 186.6C934.39 172.462 922.928 161 908.79 161C894.651 161 883.19 172.462 883.19 186.6C883.19 200.738 894.651 212.2 908.79 212.2Z" fill="#21CE99"/>
<path opacity="0.1" d="M942.68 336.42C956.819 336.42 968.28 324.958 968.28 310.82C968.28 296.682 956.819 285.22 942.68 285.22C928.542 285.22 917.08 296.682 917.08 310.82C917.08 324.958 928.542 336.42 942.68 336.42Z" fill="#21CE99"/>
<path opacity="0.1" d="M100.27 291C105.047 291 108.92 287.127 108.92 282.35C108.92 277.573 105.047 273.7 100.27 273.7C95.4927 273.7 91.62 277.573 91.62 282.35C91.62 287.127 95.4927 291 100.27 291Z" fill="#21CE99"/>
<path opacity="0.1" d="M137.35 264.11C145.358 264.11 151.85 257.618 151.85 249.61C151.85 241.602 145.358 235.11 137.35 235.11C129.342 235.11 122.85 241.602 122.85 249.61C122.85 257.618 129.342 264.11 137.35 264.11Z" fill="#21CE99"/>
<path opacity="0.1" d="M67.9499 286.6C75.9581 286.6 82.4499 280.108 82.4499 272.1C82.4499 264.092 75.9581 257.6 67.9499 257.6C59.9418 257.6 53.45 264.092 53.45 272.1C53.45 280.108 59.9418 286.6 67.9499 286.6Z" fill="#21CE99"/>
<path opacity="0.1" d="M216.08 155.57C236.1 155.57 252.33 139.34 252.33 119.32C252.33 99.2997 236.1 83.07 216.08 83.07C196.06 83.07 179.83 99.2997 179.83 119.32C179.83 139.34 196.06 155.57 216.08 155.57Z" fill="#21CE99"/>
<path opacity="0.1" d="M425.08 324.24C436.634 324.24 446 314.874 446 303.32C446 291.766 436.634 282.4 425.08 282.4C413.526 282.4 404.16 291.766 404.16 303.32C404.16 314.874 413.526 324.24 425.08 324.24Z" fill="#21CE99"/>
<path opacity="0.1" d="M579.08 424.24C590.634 424.24 600 414.874 600 403.32C600 391.766 590.634 382.4 579.08 382.4C567.526 382.4 558.16 391.766 558.16 403.32C558.16 414.874 567.526 424.24 579.08 424.24Z" fill="#21CE99"/>
</g>
<defs>
<linearGradient id="paint0_linear" x1="688.51" y1="674.47" x2="688.51" y2="38.47" gradientUnits="userSpaceOnUse">
<stop stop-color="#808080" stop-opacity="0.25"/>
<stop offset="0.54" stop-color="#808080" stop-opacity="0.12"/>
<stop offset="1" stop-color="#808080" stop-opacity="0.1"/>
</linearGradient>
<linearGradient id="paint1_linear" x1="-355214" y1="329108" x2="-355214" y2="129984" gradientUnits="userSpaceOnUse">
<stop stop-color="#808080" stop-opacity="0.25"/>
<stop offset="0.54" stop-color="#808080" stop-opacity="0.12"/>
<stop offset="1" stop-color="#808080" stop-opacity="0.1"/>
</linearGradient>
<clipPath id="clip0">
<rect width="1119" height="732.13" fill="white"/>
</clipPath>
</defs>
</svg>
