<svg width="990" height="759" viewBox="0 0 990 759" fill="none" xmlns="http://www.w3.org/2000/svg">
<g clip-path="url(#clip0)">
<path opacity="0.2" d="M818 668H747V628H818V668ZM750 665H815V631H750V665Z" fill="#21CE99"/>
<path opacity="0.2" d="M889 666H818V626H889V666ZM821 663H886V629H821V663Z" fill="#21CE99"/>
<path opacity="0.2" d="M960 666H889V626H960V666ZM892 663H957V629H892V663Z" fill="#21CE99"/>
<path opacity="0.2" d="M960 626H889V586H960V626ZM892 623H957V589H892V623Z" fill="#21CE99"/>
<path opacity="0.2" d="M889 626H818V586H889V626ZM821 623H886V589H821V623Z" fill="#21CE99"/>
<path opacity="0.2" d="M89 666H18V626H89V666ZM21 663H86V629H21V663Z" fill="#21CE99"/>
<path opacity="0.2" d="M160 666H89V626H160V666ZM92 663H157V629H92V663Z" fill="#21CE99"/>
<path opacity="0.2" d="M231 666H160V626H231V666ZM163 663H228V629H163V663Z" fill="#21CE99"/>
<path opacity="0.2" d="M302 668H231V628H302V668ZM234 665H299V631H234V665Z" fill="#21CE99"/>
<path opacity="0.2" d="M231 626H160V586H231V626ZM163 623H228V589H163V623Z" fill="#21CE99"/>
<path opacity="0.2" d="M160 626H89V586H160V626ZM92 623H157V589H92V623Z" fill="#21CE99"/>
<path d="M890.28 542.36C890.28 542.36 877.14 497.73 892.74 464.88C899.374 451.145 901.374 435.628 898.44 420.66C896.992 413.563 894.896 406.614 892.18 399.9" stroke="#535461" stroke-width="2" stroke-miterlimit="10"/>
<path d="M901.9 379.11C901.9 384.58 892 400.44 892 400.44C892 400.44 882.1 384.58 882.1 379.11C882.1 376.483 883.144 373.964 885.001 372.106C886.859 370.249 889.378 369.205 892.005 369.205C894.632 369.205 897.151 370.249 899.009 372.106C900.867 373.964 901.91 376.483 901.91 379.11H901.9Z" fill="#21CE99"/>
<path d="M918.27 409.44C915.27 414.03 898.36 421.96 898.36 421.96C898.36 421.96 898.67 403.26 901.64 398.67C902.346 397.578 903.261 396.636 904.332 395.898C905.402 395.159 906.608 394.639 907.88 394.366C909.151 394.094 910.464 394.074 911.743 394.309C913.023 394.544 914.243 395.028 915.335 395.735C916.427 396.442 917.369 397.356 918.107 398.427C918.846 399.497 919.366 400.703 919.639 401.975C919.911 403.246 919.931 404.559 919.696 405.838C919.461 407.118 918.976 408.338 918.27 409.43V409.44Z" fill="#21CE99"/>
<path d="M917.55 461.22C912.67 463.68 894.05 461.98 894.05 461.98C894.05 461.98 903.75 445.98 908.64 443.53C910.986 442.347 913.705 442.145 916.201 442.967C918.696 443.789 920.762 445.569 921.945 447.915C923.128 450.261 923.33 452.98 922.508 455.476C921.686 457.971 919.906 460.037 917.56 461.22H917.55Z" fill="#21CE99"/>
<path d="M908.19 500.27C903.79 503.52 885.19 504.99 885.19 504.99C885.19 504.99 892.05 487.6 896.45 484.34C897.495 483.566 898.683 483.006 899.944 482.692C901.206 482.377 902.518 482.314 903.804 482.507C905.09 482.699 906.325 483.142 907.44 483.812C908.555 484.482 909.526 485.365 910.3 486.41C911.073 487.455 911.633 488.643 911.948 489.904C912.263 491.166 912.326 492.478 912.133 493.764C911.941 495.05 911.498 496.285 910.828 497.4C910.158 498.515 909.275 499.487 908.23 500.26L908.19 500.27Z" fill="#21CE99"/>
<path d="M877.57 423.03C881.49 426.84 899.77 430.79 899.77 430.79C899.77 430.79 895.29 412.63 891.37 408.79C890.437 407.884 889.335 407.17 888.126 406.69C886.917 406.21 885.626 405.973 884.325 405.992C883.025 406.011 881.741 406.286 880.546 406.801C879.352 407.316 878.271 408.062 877.365 408.995C876.459 409.928 875.745 411.03 875.265 412.239C874.785 413.448 874.548 414.739 874.567 416.04C874.586 417.34 874.861 418.624 875.376 419.819C875.892 421.013 876.637 422.094 877.57 423V423.03Z" fill="#21CE99"/>
<path d="M867.2 468.83C872.08 471.29 890.7 469.59 890.7 469.59C890.7 469.59 881 453.59 876.11 451.14C873.764 449.957 871.044 449.755 868.549 450.577C866.054 451.399 863.988 453.179 862.805 455.525C861.622 457.871 861.42 460.59 862.242 463.086C863.064 465.581 864.844 467.647 867.19 468.83H867.2Z" fill="#21CE99"/>
<path d="M863.23 514.74C867.63 517.99 886.23 519.46 886.23 519.46C886.23 519.46 879.41 502.11 875 498.82C873.955 498.047 872.767 497.486 871.506 497.172C870.244 496.857 868.933 496.794 867.647 496.987C866.36 497.179 865.125 497.622 864.01 498.292C862.896 498.962 861.924 499.845 861.15 500.89C860.377 501.935 859.817 503.123 859.502 504.385C859.188 505.646 859.125 506.958 859.317 508.244C859.509 509.53 859.953 510.765 860.622 511.88C861.292 512.995 862.175 513.967 863.22 514.74H863.23Z" fill="#21CE99"/>
<path opacity="0.25" d="M901.9 379.11C901.9 384.58 892 400.44 892 400.44C892 400.44 882.1 384.58 882.1 379.11C882.1 376.483 883.144 373.964 885.001 372.106C886.859 370.249 889.378 369.205 892.005 369.205C894.632 369.205 897.151 370.249 899.009 372.106C900.867 373.964 901.91 376.483 901.91 379.11H901.9Z" fill="black"/>
<path opacity="0.25" d="M918.27 409.44C915.27 414.03 898.36 421.96 898.36 421.96C898.36 421.96 898.67 403.26 901.64 398.67C902.346 397.578 903.261 396.636 904.332 395.898C905.402 395.159 906.608 394.639 907.88 394.366C909.151 394.094 910.464 394.074 911.743 394.309C913.023 394.544 914.243 395.028 915.335 395.735C916.427 396.442 917.369 397.356 918.107 398.427C918.846 399.497 919.366 400.703 919.639 401.975C919.911 403.246 919.931 404.559 919.696 405.838C919.461 407.118 918.976 408.338 918.27 409.43V409.44Z" fill="black"/>
<path opacity="0.25" d="M917.55 461.22C912.67 463.68 894.05 461.98 894.05 461.98C894.05 461.98 903.75 445.98 908.64 443.53C910.986 442.347 913.705 442.145 916.201 442.967C918.696 443.789 920.762 445.569 921.945 447.915C923.128 450.261 923.33 452.98 922.508 455.476C921.686 457.971 919.906 460.037 917.56 461.22H917.55Z" fill="black"/>
<path opacity="0.25" d="M908.19 500.27C903.79 503.52 885.19 504.99 885.19 504.99C885.19 504.99 892.05 487.6 896.45 484.34C897.495 483.566 898.683 483.006 899.944 482.692C901.206 482.377 902.518 482.314 903.804 482.507C905.09 482.699 906.325 483.142 907.44 483.812C908.555 484.482 909.526 485.365 910.3 486.41C911.073 487.455 911.633 488.643 911.948 489.904C912.263 491.166 912.326 492.478 912.133 493.764C911.941 495.05 911.498 496.285 910.828 497.4C910.158 498.515 909.275 499.487 908.23 500.26L908.19 500.27Z" fill="black"/>
<path opacity="0.25" d="M877.57 423.03C881.49 426.84 899.77 430.79 899.77 430.79C899.77 430.79 895.29 412.63 891.37 408.79C890.437 407.884 889.335 407.17 888.126 406.69C886.917 406.21 885.626 405.973 884.325 405.992C883.025 406.011 881.741 406.286 880.546 406.801C879.352 407.316 878.271 408.062 877.365 408.995C876.459 409.928 875.745 411.03 875.265 412.239C874.785 413.448 874.548 414.739 874.567 416.04C874.586 417.34 874.861 418.624 875.376 419.819C875.892 421.013 876.637 422.094 877.57 423V423.03Z" fill="black"/>
<path opacity="0.25" d="M867.2 468.83C872.08 471.29 890.7 469.59 890.7 469.59C890.7 469.59 881 453.59 876.11 451.14C873.764 449.957 871.044 449.755 868.549 450.577C866.054 451.399 863.988 453.179 862.805 455.525C861.622 457.871 861.42 460.59 862.242 463.086C863.064 465.581 864.844 467.647 867.19 468.83H867.2Z" fill="black"/>
<path opacity="0.25" d="M863.23 514.74C867.63 517.99 886.23 519.46 886.23 519.46C886.23 519.46 879.41 502.11 875 498.82C873.955 498.047 872.767 497.486 871.506 497.172C870.244 496.857 868.933 496.794 867.647 496.987C866.36 497.179 865.125 497.622 864.01 498.292C862.896 498.962 861.924 499.845 861.15 500.89C860.377 501.935 859.817 503.123 859.502 504.385C859.188 505.646 859.125 506.958 859.317 508.244C859.509 509.53 859.953 510.765 860.622 511.88C861.292 512.995 862.175 513.967 863.22 514.74H863.23Z" fill="black"/>
<path d="M168.8 542.7C168.8 542.7 155.46 497.41 171.3 464.11C178.035 450.171 180.067 434.422 177.09 419.23C175.621 412.01 173.492 404.94 170.73 398.11" stroke="#535461" stroke-width="2" stroke-miterlimit="10"/>
<path d="M180.59 377.11C180.59 382.66 170.54 398.76 170.54 398.76C170.54 398.76 160.48 382.61 160.48 377.11C160.48 374.445 161.539 371.888 163.424 370.004C165.308 368.119 167.865 367.06 170.53 367.06C173.195 367.06 175.752 368.119 177.636 370.004C179.521 371.888 180.58 374.445 180.58 377.11H180.59Z" fill="#21CE99"/>
<path d="M197.2 407.81C194.2 412.47 177 420.52 177 420.52C177 420.52 177.31 401.52 180.33 396.89C181.034 395.753 181.957 394.768 183.046 393.992C184.135 393.217 185.368 392.666 186.672 392.373C187.977 392.08 189.326 392.05 190.643 392.285C191.959 392.52 193.215 393.015 194.337 393.742C195.459 394.468 196.426 395.412 197.179 396.516C197.932 397.621 198.457 398.864 198.724 400.174C198.991 401.485 198.993 402.835 198.732 404.146C198.47 405.457 197.949 406.703 197.2 407.81Z" fill="#21CE99"/>
<path d="M196.47 460.35C191.47 462.85 172.62 461.12 172.62 461.12C172.62 461.12 182.47 444.9 187.42 442.4C189.8 441.2 192.56 440.995 195.092 441.829C197.623 442.664 199.72 444.47 200.92 446.85C202.12 449.23 202.326 451.99 201.491 454.522C200.657 457.053 198.85 459.15 196.47 460.35V460.35Z" fill="#21CE99"/>
<path d="M187 499.98C182.54 503.28 163.62 504.77 163.62 504.77C163.62 504.77 170.62 487.12 175.05 483.77C176.111 482.982 177.317 482.411 178.599 482.089C179.881 481.767 181.213 481.701 182.521 481.894C183.828 482.087 185.085 482.536 186.219 483.215C187.353 483.893 188.342 484.789 189.13 485.85C189.918 486.911 190.489 488.117 190.811 489.399C191.133 490.681 191.199 492.013 191.006 493.321C190.813 494.628 190.364 495.885 189.685 497.019C189.007 498.153 188.111 499.142 187.05 499.93L187 499.98Z" fill="#21CE99"/>
<path d="M155.89 421.59C159.89 425.46 178.42 429.46 178.42 429.46C178.42 429.46 173.88 411.04 169.9 407.17C168.958 406.23 167.838 405.486 166.606 404.983C165.373 404.479 164.053 404.225 162.722 404.236C161.391 404.246 160.075 404.522 158.851 405.045C157.627 405.568 156.52 406.33 155.592 407.285C154.665 408.24 153.937 409.37 153.45 410.609C152.963 411.848 152.727 413.171 152.755 414.502C152.784 415.833 153.077 417.145 153.617 418.361C154.156 419.578 154.933 420.676 155.9 421.59H155.89Z" fill="#21CE99"/>
<path d="M145.37 468.11C150.37 470.61 169.22 468.88 169.22 468.88C169.22 468.88 159.37 452.66 154.42 450.16C152.04 448.96 149.28 448.755 146.748 449.589C144.217 450.424 142.12 452.23 140.92 454.61C139.72 456.99 139.514 459.75 140.349 462.282C141.184 464.813 142.99 466.91 145.37 468.11V468.11Z" fill="#21CE99"/>
<path d="M141.34 514.67C145.8 517.97 164.72 519.46 164.72 519.46C164.72 519.46 157.72 501.81 153.29 498.46C151.147 496.869 148.46 496.194 145.819 496.584C143.179 496.974 140.802 498.397 139.21 500.54C137.619 502.683 136.944 505.37 137.334 508.011C137.724 510.651 139.147 513.029 141.29 514.62L141.34 514.67Z" fill="#21CE99"/>
<path opacity="0.5" d="M180.59 377.11C180.59 382.66 170.54 398.76 170.54 398.76C170.54 398.76 160.48 382.61 160.48 377.11C160.48 374.445 161.539 371.888 163.424 370.004C165.308 368.119 167.865 367.06 170.53 367.06C173.195 367.06 175.752 368.119 177.636 370.004C179.521 371.888 180.58 374.445 180.58 377.11H180.59Z" fill="white"/>
<path opacity="0.5" d="M197.2 407.81C194.2 412.47 177 420.52 177 420.52C177 420.52 177.31 401.52 180.33 396.89C181.034 395.753 181.957 394.768 183.046 393.992C184.135 393.217 185.368 392.666 186.672 392.373C187.977 392.08 189.326 392.05 190.643 392.285C191.959 392.52 193.215 393.015 194.337 393.742C195.459 394.468 196.426 395.412 197.179 396.516C197.932 397.621 198.457 398.864 198.724 400.174C198.991 401.485 198.993 402.835 198.732 404.146C198.47 405.457 197.949 406.703 197.2 407.81Z" fill="white"/>
<path opacity="0.5" d="M196.47 460.35C191.47 462.85 172.62 461.12 172.62 461.12C172.62 461.12 182.47 444.9 187.42 442.4C189.8 441.2 192.56 440.995 195.092 441.829C197.623 442.664 199.72 444.47 200.92 446.85C202.12 449.23 202.326 451.99 201.491 454.522C200.657 457.053 198.85 459.15 196.47 460.35V460.35Z" fill="white"/>
<path opacity="0.5" d="M187 499.98C182.54 503.28 163.62 504.77 163.62 504.77C163.62 504.77 170.62 487.12 175.05 483.77C176.111 482.982 177.317 482.411 178.599 482.089C179.881 481.767 181.213 481.701 182.521 481.894C183.828 482.087 185.085 482.536 186.219 483.215C187.353 483.893 188.342 484.789 189.13 485.85C189.918 486.911 190.489 488.117 190.811 489.399C191.133 490.681 191.199 492.013 191.006 493.321C190.813 494.628 190.364 495.885 189.685 497.019C189.007 498.153 188.111 499.142 187.05 499.93L187 499.98Z" fill="white"/>
<path opacity="0.5" d="M155.89 421.59C159.89 425.46 178.42 429.46 178.42 429.46C178.42 429.46 173.88 411.04 169.9 407.17C168.958 406.23 167.838 405.486 166.606 404.983C165.373 404.479 164.053 404.225 162.722 404.236C161.391 404.246 160.075 404.522 158.851 405.045C157.627 405.568 156.52 406.33 155.592 407.285C154.665 408.24 153.937 409.37 153.45 410.609C152.963 411.848 152.727 413.171 152.755 414.502C152.784 415.833 153.077 417.145 153.617 418.361C154.156 419.578 154.933 420.676 155.9 421.59H155.89Z" fill="white"/>
<path opacity="0.5" d="M145.37 468.11C150.37 470.61 169.22 468.88 169.22 468.88C169.22 468.88 159.37 452.66 154.42 450.16C152.04 448.96 149.28 448.755 146.748 449.589C144.217 450.424 142.12 452.23 140.92 454.61C139.72 456.99 139.514 459.75 140.349 462.282C141.184 464.813 142.99 466.91 145.37 468.11V468.11Z" fill="white"/>
<path opacity="0.5" d="M141.34 514.67C145.8 517.97 164.72 519.46 164.72 519.46C164.72 519.46 157.72 501.81 153.29 498.46C151.147 496.869 148.46 496.194 145.819 496.584C143.179 496.974 140.802 498.397 139.21 500.54C137.619 502.683 136.944 505.37 137.334 508.011C137.724 510.651 139.147 513.029 141.29 514.62L141.34 514.67Z" fill="white"/>
<path d="M92.6901 541.58C92.6901 541.58 82.5301 507.11 94.6001 481.66C99.7315 471.037 101.279 459.037 99.0101 447.46C97.8903 441.973 96.2702 436.601 94.1701 431.41" stroke="#535461" stroke-width="2" stroke-miterlimit="10"/>
<path d="M101.68 415.35C101.68 419.58 94.0199 431.85 94.0199 431.85C94.0199 431.85 86.3599 419.58 86.3599 415.35C86.3599 413.318 87.1669 411.37 88.6034 409.934C90.04 408.497 91.9883 407.69 94.0199 407.69C96.0514 407.69 97.9998 408.497 99.4363 409.934C100.873 411.37 101.68 413.318 101.68 415.35V415.35Z" fill="#21CE99"/>
<path d="M114.34 438.78C112.04 442.33 98.9399 448.47 98.9399 448.47C98.9399 448.47 99.1799 434.01 101.48 430.47C102.027 429.626 102.735 428.897 103.563 428.326C104.392 427.756 105.325 427.354 106.308 427.143C107.292 426.933 108.308 426.918 109.297 427.101C110.287 427.283 111.231 427.658 112.075 428.205C112.919 428.752 113.648 429.46 114.219 430.288C114.789 431.117 115.191 432.05 115.402 433.033C115.612 434.017 115.627 435.033 115.444 436.022C115.262 437.012 114.887 437.956 114.34 438.8V438.78Z" fill="#21CE99"/>
<path d="M113.79 478.82C110.01 480.72 95.6099 479.41 95.6099 479.41C95.6099 479.41 103.11 467.05 106.89 465.14C108.704 464.225 110.807 464.068 112.737 464.704C114.667 465.34 116.265 466.716 117.18 468.53C118.095 470.344 118.252 472.447 117.616 474.377C116.98 476.307 115.604 477.905 113.79 478.82V478.82Z" fill="#21CE99"/>
<path d="M106.55 509.03C103.15 511.55 88.73 512.68 88.73 512.68C88.73 512.68 94.04 499.23 97.44 496.68C99.0737 495.472 101.12 494.962 103.13 495.263C105.139 495.564 106.947 496.651 108.155 498.285C109.363 499.919 109.873 501.965 109.572 503.975C109.271 505.984 108.184 507.792 106.55 509V509.03Z" fill="#21CE99"/>
<path d="M82.8601 449.29C85.8601 452.24 100.03 455.29 100.03 455.29C100.03 455.29 96.5701 441.29 93.5301 438.29C92.8078 437.589 91.9546 437.038 91.0192 436.667C90.0838 436.296 89.0846 436.113 88.0784 436.128C87.0723 436.144 86.0791 436.357 85.1554 436.756C84.2317 437.156 83.3957 437.733 82.6951 438.455C81.9945 439.177 81.443 440.03 81.0722 440.966C80.7013 441.901 80.5183 442.901 80.5336 443.907C80.5489 444.913 80.7623 445.906 81.1615 446.83C81.5606 447.753 82.1378 448.589 82.8601 449.29V449.29Z" fill="#21CE99"/>
<path d="M74.8402 484.72C78.6202 486.62 93.0202 485.31 93.0202 485.31C93.0202 485.31 85.5202 472.95 81.7402 471.04C79.9261 470.125 77.8229 469.968 75.8931 470.604C73.9634 471.24 72.3652 472.616 71.4502 474.43C70.5352 476.244 70.3783 478.347 71.0141 480.277C71.6498 482.207 73.0261 483.805 74.8402 484.72V484.72Z" fill="#21CE99"/>
<path d="M71.7702 520.22C75.1702 522.74 89.5902 523.87 89.5902 523.87C89.5902 523.87 84.2802 510.42 80.8802 507.87C80.0713 507.272 79.1524 506.839 78.1762 506.596C77.1999 506.353 76.1853 506.304 75.1903 506.453C74.1954 506.602 73.2395 506.946 72.3773 507.464C71.5151 507.983 70.7634 508.666 70.1652 509.475C69.5671 510.284 69.1341 511.203 68.891 512.179C68.6479 513.155 68.5996 514.17 68.7486 515.165C68.8976 516.16 69.2412 517.116 69.7596 517.978C70.2781 518.84 70.9613 519.592 71.7702 520.19V520.22Z" fill="#21CE99"/>
<path opacity="0.25" d="M101.68 415.35C101.68 419.58 94.0199 431.85 94.0199 431.85C94.0199 431.85 86.3599 419.58 86.3599 415.35C86.3599 413.318 87.1669 411.37 88.6034 409.934C90.04 408.497 91.9883 407.69 94.0199 407.69C96.0514 407.69 97.9998 408.497 99.4363 409.934C100.873 411.37 101.68 413.318 101.68 415.35V415.35Z" fill="black"/>
<path opacity="0.25" d="M114.34 438.78C112.04 442.33 98.9399 448.47 98.9399 448.47C98.9399 448.47 99.1799 434.01 101.48 430.47C102.027 429.626 102.735 428.897 103.563 428.326C104.392 427.756 105.325 427.354 106.308 427.143C107.292 426.933 108.308 426.918 109.297 427.101C110.287 427.283 111.231 427.658 112.075 428.205C112.919 428.752 113.648 429.46 114.219 430.288C114.789 431.117 115.191 432.05 115.402 433.033C115.612 434.017 115.627 435.033 115.444 436.022C115.262 437.012 114.887 437.956 114.34 438.8V438.78Z" fill="black"/>
<path opacity="0.25" d="M113.79 478.82C110.01 480.72 95.6099 479.41 95.6099 479.41C95.6099 479.41 103.11 467.05 106.89 465.14C108.704 464.225 110.807 464.068 112.737 464.704C114.667 465.34 116.265 466.716 117.18 468.53C118.095 470.344 118.252 472.447 117.616 474.377C116.98 476.307 115.604 477.905 113.79 478.82V478.82Z" fill="black"/>
<path opacity="0.25" d="M106.55 509.03C103.15 511.55 88.73 512.68 88.73 512.68C88.73 512.68 94.04 499.23 97.44 496.68C99.0737 495.472 101.12 494.962 103.13 495.263C105.139 495.564 106.947 496.651 108.155 498.285C109.363 499.919 109.873 501.965 109.572 503.975C109.271 505.984 108.184 507.792 106.55 509V509.03Z" fill="black"/>
<path opacity="0.25" d="M82.8601 449.29C85.8601 452.24 100.03 455.29 100.03 455.29C100.03 455.29 96.5701 441.29 93.5301 438.29C92.8078 437.589 91.9546 437.038 91.0192 436.667C90.0838 436.296 89.0846 436.113 88.0784 436.128C87.0723 436.144 86.0791 436.357 85.1554 436.756C84.2317 437.156 83.3957 437.733 82.6951 438.455C81.9945 439.177 81.443 440.03 81.0722 440.966C80.7013 441.901 80.5183 442.901 80.5336 443.907C80.5489 444.913 80.7623 445.906 81.1615 446.83C81.5606 447.753 82.1378 448.589 82.8601 449.29V449.29Z" fill="black"/>
<path opacity="0.25" d="M74.8402 484.72C78.6202 486.62 93.0202 485.31 93.0202 485.31C93.0202 485.31 85.5202 472.95 81.7402 471.04C79.9261 470.125 77.8229 469.968 75.8931 470.604C73.9634 471.24 72.3652 472.616 71.4502 474.43C70.5352 476.244 70.3783 478.347 71.0141 480.277C71.6498 482.207 73.0261 483.805 74.8402 484.72V484.72Z" fill="black"/>
<path opacity="0.25" d="M71.7702 520.22C75.1702 522.74 89.5902 523.87 89.5902 523.87C89.5902 523.87 84.2802 510.42 80.8802 507.87C80.0713 507.272 79.1524 506.839 78.1762 506.596C77.1999 506.353 76.1853 506.304 75.1903 506.453C74.1954 506.602 73.2395 506.946 72.3773 507.464C71.5151 507.983 70.7634 508.666 70.1652 509.475C69.5671 510.284 69.1341 511.203 68.891 512.179C68.6479 513.155 68.5996 514.17 68.7486 515.165C68.8976 516.16 69.2412 517.116 69.7596 517.978C70.2781 518.84 70.9613 519.592 71.7702 520.19V520.22Z" fill="black"/>
<g opacity="0.7">
<path opacity="0.6" d="M990 80H0V585H990V80Z" fill="#21CE99"/>
<path opacity="0.25" d="M0 80V586H990V80H0ZM44 124H473V311H44V124ZM44 355H473V542H44V355ZM946 542H517V355H946V542ZM946 311H517V124H946V311Z" fill="black"/>
</g>
<g opacity="0.7">
<path opacity="0.7" d="M363.11 606.88C363.11 606.88 276.47 575.2 264.61 619.79L297.84 704.26L301.4 758.26H373.79V712.47C373.79 712.47 363.11 666.71 390.41 638.56L363.11 606.88Z" fill="url(#paint0_linear)"/>
<g opacity="0.1">
<path opacity="0.1" d="M377.62 355.5C373.94 354.28 369.51 353.19 366.51 355.62C364.77 357.03 364.02 359.3 362.67 361.08C358.18 366.97 349.13 365.87 341.98 367.98C331.47 371.08 324.98 381.49 321.26 391.69C304.8 436.69 323.15 488.16 308.82 533.86C304.6 547.31 297.7 562.24 304.52 574.61C306.79 578.74 310.52 582.18 311.62 586.74C313.16 592.93 310.19 601.05 315.38 604.82C317 605.99 319.05 606.36 320.99 606.82C332.67 609.9 341.52 618.99 350.42 627.07C359.32 635.15 370.02 642.97 382.09 642.44C385.991 642.118 389.842 641.353 393.57 640.16L453.47 623.48C459.47 621.81 465.99 619.79 469.47 614.67C471.6 611.54 472.27 607.67 472.81 603.95C474.877 589.735 475.856 575.384 475.74 561.02C475.74 556.28 475.52 551.43 473.74 547.02C471.74 541.93 467.74 537.86 464.83 533.21C459.21 524.21 457.7 513.4 456.31 502.93C454.1 486.26 451.89 469.26 454.95 452.72C456.26 445.62 458.52 438.72 460.02 431.67C462.45 420.184 462.836 408.36 461.16 396.74C459.76 387.09 456.76 377.3 450.16 370.04C445.84 365.202 439.971 362.02 433.56 361.04C425.46 360.04 421.43 364.7 414.21 366.44C403.53 369.11 387.89 358.89 377.62 355.5Z" fill="url(#paint1_linear)"/>
</g>
<path opacity="0.7" d="M377.62 353.11C373.94 351.89 369.51 350.8 366.51 353.23C364.77 354.64 364.02 356.91 362.67 358.69C358.18 364.58 349.13 363.48 341.98 365.59C331.47 368.69 324.98 379.1 321.26 389.3C304.8 434.3 323.15 485.77 308.82 531.47C304.6 544.92 297.7 559.85 304.52 572.22C306.79 576.35 310.52 579.79 311.62 584.35C313.16 590.54 310.19 598.66 315.38 602.43C317 603.6 319.05 603.97 320.99 604.43C332.67 607.51 341.52 616.6 350.42 624.68C359.32 632.76 370 640.67 382.09 640.11C385.991 639.788 389.842 639.023 393.57 637.83L453.47 621.15C459.47 619.48 465.99 617.46 469.47 612.34C471.6 609.21 472.27 605.34 472.81 601.62C474.877 587.405 475.856 573.054 475.74 558.69C475.74 553.95 475.52 549.1 473.74 544.69C471.74 539.6 467.74 535.53 464.83 530.88C459.21 521.88 457.7 511.07 456.31 500.6C454.1 483.93 451.89 466.93 454.95 450.39C456.26 443.29 458.52 436.39 460.02 429.34C462.45 417.854 462.836 406.03 461.16 394.41C459.76 384.76 456.76 374.97 450.16 367.71C445.84 362.872 439.971 359.69 433.56 358.71C425.46 357.71 421.43 362.37 414.21 364.11C403.53 366.71 387.89 356.55 377.62 353.11Z" fill="url(#paint2_linear)"/>
<path opacity="0.7" d="M360.74 264.3C360.74 264.3 361.93 308.88 347.69 307.71C333.45 306.54 388 381.62 388 381.62L434.28 356.98C434.28 356.98 407 313.58 426 286.59C445 259.6 360.74 264.3 360.74 264.3Z" fill="url(#paint3_linear)"/>
<g opacity="0.1">
<path opacity="0.1" d="M281.22 643.25C281.22 643.25 271.73 707.78 247.99 690.18C224.25 672.58 227.81 643.25 227.81 643.25C227.81 643.25 274.1 518.89 271.73 500.11C269.36 481.33 350.73 335.41 350.73 335.41L380.87 575.2C380.87 575.2 290.71 608.05 281.22 643.25Z" fill="url(#paint4_linear)"/>
</g>
<path opacity="0.7" d="M278.85 643.25C278.85 643.25 269.36 707.78 245.62 690.18C221.88 672.58 225.44 643.25 225.44 643.25C225.44 643.25 271.73 518.89 269.35 500.11C266.97 481.33 348.35 335.41 348.35 335.41L378.49 575.2C378.49 575.2 288.34 608.05 278.85 643.25Z" fill="url(#paint5_linear)"/>
<path opacity="0.7" d="M363.11 292.46C363.11 292.46 316.82 324.11 299 322.96L285.17 326.72C271.495 330.388 259.118 337.807 249.437 348.139C239.757 358.471 233.16 371.305 230.39 385.19L230.17 386.31C223.07 423.86 220.69 527.11 220.69 527.11C220.69 527.11 221.88 554.11 233.74 561.11L309.74 612.73C309.74 612.73 307.37 556.42 335.85 550.55C364.33 544.68 328.73 548.2 328.73 548.2L276.51 517.7C276.51 517.7 277.7 471.94 291.94 456.7C306.18 441.46 356.03 361.7 356.03 361.7L341.79 312.43L363.11 292.46Z" fill="url(#paint6_linear)"/>
<g opacity="0.1">
<path opacity="0.1" d="M414.14 322.96C414.14 322.96 443.29 330.59 463.7 334.32C466.88 334.888 469.881 336.199 472.46 338.145C475.038 340.091 477.122 342.618 478.54 345.52C484.7 358.23 494.09 381.22 492.47 400.39L510.27 469.61L561.27 530.61L515 551.74L462.8 494.25L505.52 603.36L426 606.88C426 606.88 402.26 430.88 408.2 401.57L414.14 322.96Z" fill="url(#paint7_linear)"/>
</g>
<path opacity="0.7" d="M416.51 322.96C416.51 322.96 445.66 330.59 466.07 334.32C469.25 334.888 472.251 336.199 474.83 338.145C477.408 340.091 479.491 342.618 480.91 345.52C487.07 358.23 496.46 381.22 494.84 400.39L512.64 469.61L563.64 530.61L517.36 551.73L465.14 494.24L507.9 603.36L428.38 606.88C428.38 606.88 404.64 430.88 410.58 401.57L416.51 322.96Z" fill="url(#paint8_linear)"/>
<path opacity="0.7" d="M359.21 288.72L375.57 368.13L348.87 381.62L334.24 310.09L359.21 288.72Z" fill="url(#paint9_linear)"/>
<path opacity="0.7" d="M404.05 374L416.51 322.96L432.54 352.88L424.23 377.52L404.05 374Z" fill="url(#paint10_linear)"/>
<path opacity="0.1" d="M449.15 389.25C449.15 389.25 449.15 469.03 459.83 474.89Z" fill="url(#paint11_linear)"/>
<path opacity="0.1" d="M296.05 409.19C296.05 409.19 271.42 487.76 278.39 495.99Z" fill="url(#paint12_linear)"/>
<path opacity="0.1" d="M291.31 517.11C291.31 517.11 338.79 547.8 345.31 548.29Z" fill="url(#paint13_linear)"/>
<g opacity="0.1">
<path opacity="0.1" d="M361.92 268.99C361.92 268.99 362.1 275.86 361.46 284.13C365.693 293.951 372.716 302.313 381.657 308.179C390.599 314.045 401.066 317.158 411.76 317.13C414.691 317.128 417.616 316.894 420.51 316.43C420.2 307.65 421.89 298.84 427.19 291.32C446.18 264.3 361.92 268.99 361.92 268.99Z" fill="url(#paint14_linear)"/>
</g>
<path opacity="0.7" d="M410.58 312.41C440.729 312.41 465.17 288.247 465.17 258.44C465.17 228.633 440.729 204.47 410.58 204.47C380.431 204.47 355.99 228.633 355.99 258.44C355.99 288.247 380.431 312.41 410.58 312.41Z" fill="url(#paint15_linear)"/>
<g opacity="0.1">
<path opacity="0.1" d="M445.22 235.75C451.83 236.63 460.22 234.45 461.53 227.97C463.14 219.79 452.07 214.47 450.36 206.3C449.72 203.24 450.48 200.04 450.11 196.93C449.37 190.67 444.25 185.85 439.04 182.21C422.498 170.757 402.459 165.476 382.42 167.29C379.94 167.52 377.33 167.92 375.42 169.49C373.24 171.26 372.42 174.14 370.91 176.49C365.79 184.67 354.29 185.63 346.04 190.73C336.39 196.73 331.61 208.4 331.18 219.64C330.75 230.88 333.99 241.91 337.18 252.71C339.91 261.89 342.77 271.32 348.76 278.84C354.75 286.36 364.69 291.61 374.1 289.35C369.79 286.28 372.92 279.15 377.59 276.65C382.26 274.15 388.06 273.72 392.05 270.27C396.04 266.82 397.24 261.17 398.54 256.03C400.18 249.55 402.54 242.97 407.34 238.24C416.75 228.98 433.7 234.22 445.22 235.75Z" fill="url(#paint16_linear)"/>
</g>
<path opacity="0.7" d="M444 234.58C450.61 235.46 459 233.28 460.31 226.8C461.92 218.62 450.85 213.3 449.14 205.13C448.5 202.07 449.26 198.87 448.89 195.76C448.15 189.5 443.03 184.68 437.82 181.04C421.29 169.592 401.266 164.309 381.24 166.11C378.76 166.34 376.15 166.74 374.24 168.31C372.06 170.08 371.24 172.96 369.73 175.31C364.61 183.49 353.11 184.45 344.86 189.55C335.21 195.55 330.43 207.22 330 218.46C329.57 229.7 332.81 240.73 336 251.53C338.73 260.71 341.59 270.14 347.58 277.66C353.57 285.18 363.51 290.43 372.92 288.17C368.61 285.1 371.74 277.97 376.41 275.47C381.08 272.97 386.88 272.54 390.87 269.09C394.86 265.64 396.06 259.99 397.36 254.85C399 248.37 401.36 241.79 406.16 237.06C415.56 227.81 432.51 233.04 444 234.58Z" fill="url(#paint17_linear)"/>
<g opacity="0.1">
<path opacity="0.1" d="M401.14 265.72C400.34 271.3 398.56 280.96 395.21 287.06C390.78 294.998 386.991 303.278 383.88 311.82V311.82C383.88 311.82 405.74 328.55 416.88 339.98C420.309 343.57 424.698 346.1 429.523 347.268C434.349 348.436 439.408 348.194 444.1 346.57C449.89 344.49 454.96 340.47 456.31 332.93C458.43 321.04 455.91 312.07 453.53 306.76C452.383 304.251 451.782 301.527 451.768 298.769C451.755 296.01 452.328 293.28 453.45 290.76C454.27 288.96 455.23 287.55 456.3 287.2C456.3 287.2 434.94 282.51 433.75 288.37C432.56 294.23 415.95 300.1 412.39 289.54L411.39 266.26C411.328 264.941 410.759 263.696 409.801 262.787C408.843 261.877 407.571 261.373 406.25 261.38V261.38C405.019 261.368 403.824 261.8 402.886 262.597C401.947 263.394 401.327 264.503 401.14 265.72V265.72Z" fill="url(#paint18_linear)"/>
</g>
<path opacity="0.7" d="M401.14 266.9C400.34 272.48 398.56 282.14 395.21 288.24C390.78 296.178 386.991 304.458 383.88 313V313C383.88 313 405.74 329.73 416.88 341.16C420.309 344.75 424.698 347.28 429.523 348.448C434.349 349.616 439.408 349.374 444.1 347.75C449.89 345.67 454.96 341.65 456.31 334.11C458.43 322.22 455.91 313.25 453.53 307.94C452.383 305.431 451.782 302.707 451.768 299.949C451.755 297.19 452.328 294.46 453.45 291.94C454.27 290.14 455.23 288.73 456.3 288.38C456.3 288.38 434.94 283.69 433.75 289.55C432.56 295.41 415.95 301.28 412.39 290.72L411.39 267.44C411.328 266.121 410.759 264.876 409.801 263.967C408.843 263.057 407.571 262.553 406.25 262.56V262.56C405.019 262.548 403.824 262.98 402.886 263.777C401.947 264.574 401.327 265.683 401.14 266.9V266.9Z" fill="url(#paint19_linear)"/>
</g>
<path d="M364.27 606.11C364.27 606.11 281.1 575.35 269.71 618.64L301.61 700.64L305 753.11H374.5V708.66C374.5 708.66 364.25 664.23 390.5 636.88L364.27 606.11Z" fill="#535461"/>
<path opacity="0.1" d="M378.2 362C374.67 360.82 370.41 359.76 367.54 362.12C365.87 363.49 365.15 365.69 363.85 367.42C359.54 373.14 350.85 372.07 343.99 374.12C333.9 377.12 327.68 387.24 324.1 397.12C308.3 440.81 325.91 490.81 312.16 535.18C308.16 548.24 301.49 562.74 308.03 574.75C310.21 578.75 313.76 582.1 314.85 586.53C316.33 592.53 313.48 600.43 318.46 604.09C320.01 605.23 321.98 605.58 323.84 606.09C335.05 609.09 343.55 617.91 352.09 625.76C360.63 633.61 370.91 641.2 382.49 640.69C386.229 640.377 389.92 639.635 393.49 638.48L450.99 622.28C456.76 620.65 462.99 618.69 466.36 613.72C468.36 610.72 469.05 606.94 469.57 603.31C471.553 589.504 472.493 575.568 472.38 561.62C472.38 557.02 472.17 552.31 470.48 548.03C468.48 543.09 464.72 539.14 461.92 534.61C456.53 525.89 455.07 515.37 453.74 505.2C451.62 489.01 449.5 472.5 452.43 456.44C453.69 449.55 455.86 442.85 457.3 436C459.635 424.843 460.007 413.365 458.4 402.08C457.06 392.71 454.17 383.2 447.85 376.15C443.722 371.463 438.082 368.37 431.91 367.41C424.13 366.41 420.26 370.97 413.33 372.66C403.08 375.17 388.06 365.3 378.2 362Z" fill="black"/>
<path d="M378.2 359.72C374.67 358.54 370.41 357.48 367.54 359.84C365.87 361.21 365.15 363.41 363.85 365.14C359.54 370.86 350.85 369.79 343.99 371.84C333.9 374.84 327.68 384.96 324.1 394.84C308.3 438.53 325.91 488.53 312.16 532.9C308.16 545.96 301.49 560.46 308.03 572.47C310.21 576.47 313.76 579.82 314.85 584.25C316.33 590.25 313.48 598.15 318.46 601.81C320.01 602.95 321.98 603.3 323.84 603.81C335.05 606.81 343.55 615.63 352.09 623.48C360.63 631.33 370.91 638.92 382.49 638.41C386.229 638.097 389.92 637.355 393.49 636.2L451 620.01C456.77 618.38 463 616.42 466.37 611.45C468.37 608.45 469.06 604.67 469.58 601.04C471.564 587.234 472.503 573.298 472.39 559.35C472.39 554.75 472.18 550.04 470.49 545.76C468.49 540.82 464.73 536.87 461.93 532.34C456.54 523.62 455.08 513.1 453.75 502.93C451.63 486.74 449.51 470.23 452.44 454.17C453.7 447.28 455.87 440.58 457.31 433.73C459.645 422.573 460.017 411.095 458.41 399.81C457.07 390.44 454.18 380.93 447.86 373.88C443.744 369.187 438.115 366.085 431.95 365.11C424.17 364.11 420.3 368.67 413.37 370.36C403.08 372.9 388.06 363.02 378.2 359.72Z" fill="#E0E0E0"/>
<path d="M362 273.44C362 273.44 363.14 316.73 349.47 315.59C335.8 314.45 388.21 387.37 388.21 387.37L432.64 363.44C432.64 363.44 406.44 321.29 424.64 295.08C442.84 268.87 362 273.44 362 273.44Z" fill="#B17C7C"/>
<path opacity="0.1" d="M285.66 641.44C285.66 641.44 276.55 704.1 253.76 687.01C230.97 669.92 234.39 641.44 234.39 641.44C234.39 641.44 278.82 520.67 276.54 502.44C274.26 484.21 352.42 342.49 352.42 342.49L381.35 575.35C381.35 575.35 294.77 607.26 285.66 641.44Z" fill="black"/>
<path d="M283.38 641.44C283.38 641.44 274.27 704.1 251.48 687.01C228.69 669.92 232.11 641.44 232.11 641.44C232.11 641.44 276.54 520.67 274.26 502.44C271.98 484.21 350.14 342.49 350.14 342.49L379.07 575.35C379.07 575.35 292.49 607.26 283.38 641.44Z" fill="#1A1E24"/>
<path d="M364.27 300.78C364.27 300.78 319.84 331.54 302.75 330.4L289.47 334.05C276.284 337.674 264.373 344.911 255.081 354.943C245.789 364.976 239.485 377.405 236.88 390.83L236.67 391.92C229.83 428.38 227.56 528.64 227.56 528.64C227.56 528.64 228.7 554.84 240.09 561.64L313 611.82C313 611.82 310.72 557.13 338.07 551.44C365.42 545.75 331.23 549.16 331.23 549.16L281.1 519.53C281.1 519.53 282.24 475.1 295.91 460.29C309.58 445.48 357.43 368.01 357.43 368.01L343.76 320.11L364.27 300.78Z" fill="#1A1E24"/>
<path opacity="0.1" d="M413.26 330.41C413.26 330.41 441.26 337.82 460.84 341.41C463.904 341.971 466.791 343.25 469.266 345.141C471.741 347.032 473.733 349.482 475.08 352.29C480.99 364.64 490 386.95 488.45 405.57L505.54 472.79L554.54 532.03L510.1 552.57L460 496.75L501 602.75L424.66 606.11C424.66 606.11 401.87 435.21 407.57 406.73L413.26 330.41Z" fill="black"/>
<path d="M415.54 330.41C415.54 330.41 443.54 337.82 463.12 341.41C466.184 341.971 469.071 343.25 471.546 345.141C474.021 347.032 476.013 349.482 477.36 352.29C483.27 364.64 492.28 386.95 490.73 405.57L507.82 472.79L556.82 532.03L512.39 552.54L462.26 496.71L503.26 602.71L426.93 606.11C426.93 606.11 404.14 435.21 409.84 406.73L415.54 330.41Z" fill="#1A1E24"/>
<path d="M360.53 297.16L376.24 374.27L350.6 387.37L336.56 317.91L360.53 297.16Z" fill="#E0E0E0"/>
<path d="M403.58 379.97L415.54 330.41L430.92 359.46L422.95 383.39L403.58 379.97Z" fill="#E0E0E0"/>
<path opacity="0.1" d="M446.87 394.78C446.87 394.78 446.87 472.25 457.12 477.95Z" fill="black"/>
<path opacity="0.1" d="M299.9 414.11C299.9 414.11 276.25 490.41 282.9 498.4Z" fill="black"/>
<path opacity="0.1" d="M295.34 518.96C295.34 518.96 340.92 548.76 347.18 549.24Z" fill="black"/>
<path opacity="0.1" d="M363.13 278C363.13 278 363.31 284.67 362.69 292.7C367.263 303.518 375.337 312.487 385.617 318.168C395.897 323.849 407.787 325.914 419.38 324.03C419.08 315.5 420.71 306.95 425.79 299.64C444 273.44 363.13 278 363.13 278Z" fill="black"/>
<path d="M409.84 320.16C438.785 320.16 462.25 296.695 462.25 267.75C462.25 238.805 438.785 215.34 409.84 215.34C380.895 215.34 357.43 238.805 357.43 267.75C357.43 296.695 380.895 320.16 409.84 320.16Z" fill="#B17C7C"/>
<path opacity="0.1" d="M443.09 245.72C449.44 246.57 457.53 244.45 458.75 238.17C460.3 230.22 449.67 225.06 448.03 217.17C447.41 214.17 448.15 211.09 447.79 208.08C447.08 202 442.16 197.32 437.16 193.79C421.327 182.685 402.069 177.554 382.81 179.31C380.43 179.54 377.92 179.92 376.08 181.44C373.99 183.16 373.18 185.95 371.75 188.26C366.83 196.2 355.75 197.14 347.88 202.09C338.61 207.88 334.03 219.25 333.61 230.17C333.19 241.09 336.31 251.8 339.39 262.28C342.01 271.2 344.76 280.35 350.51 287.65C356.26 294.95 365.81 300.05 374.83 297.85C370.69 294.85 373.7 287.94 378.18 285.52C382.66 283.1 388.18 282.68 392.07 279.32C395.96 275.96 397.07 270.48 398.3 265.49C399.88 259.19 402.16 252.81 406.75 248.21C415.77 239.11 432 244.23 443.09 245.72Z" fill="black"/>
<path d="M442 244.58C448.35 245.43 456.44 243.31 457.66 237.03C459.21 229.08 448.58 223.92 446.94 216.03C446.32 213.03 447.06 209.95 446.7 206.94C445.94 200.81 441 196.11 436 192.6C420.177 181.499 400.93 176.365 381.68 178.11C379.3 178.34 376.79 178.72 374.95 180.24C372.86 181.96 372.05 184.75 370.62 187.06C365.7 195 354.62 195.94 346.75 200.89C337.48 206.68 332.9 218.05 332.48 228.97C332.06 239.89 335.18 250.6 338.26 261.08C340.88 270 343.63 279.15 349.38 286.45C355.13 293.75 364.68 298.85 373.7 296.65C369.56 293.65 372.57 286.74 377.05 284.32C381.53 281.9 387.05 281.48 390.94 278.12C394.83 274.76 395.94 269.28 397.17 264.29C398.75 257.99 401.03 251.61 405.62 247.01C414.63 238 430.9 243.11 442 244.58Z" fill="black"/>
<path opacity="0.1" d="M400.78 274.82C400.01 280.24 398.3 289.62 395.08 295.54C390.826 303.24 387.188 311.265 384.2 319.54C384.2 319.54 405.2 335.79 415.85 346.89C419.12 350.37 423.328 352.827 427.966 353.963C432.604 355.099 437.472 354.865 441.98 353.29C447.54 351.29 452.41 347.36 453.7 340.05C455.7 328.5 453.32 319.79 451.04 314.63C449.947 312.19 449.379 309.548 449.372 306.874C449.365 304.201 449.92 301.555 451 299.11C451.79 297.36 452.71 296 453.74 295.65C453.74 295.65 433.23 291.09 432.09 296.79C430.95 302.49 415 308.18 411.58 297.93L410.64 275.32C410.589 274.045 410.045 272.839 409.124 271.955C408.204 271.072 406.976 270.579 405.7 270.58V270.58C404.506 270.571 403.348 270.995 402.443 271.775C401.538 272.555 400.947 273.637 400.78 274.82Z" fill="black"/>
<path d="M400.78 275.96C400.01 281.38 398.3 290.76 395.08 296.68C390.826 304.38 387.188 312.405 384.2 320.68C384.2 320.68 405.2 336.93 415.85 348.03C419.12 351.51 423.328 353.967 427.966 355.103C432.604 356.239 437.472 356.005 441.98 354.43C447.54 352.43 452.41 348.5 453.7 341.19C455.7 329.64 453.32 320.93 451.04 315.77C449.937 313.327 449.36 310.678 449.348 307.997C449.336 305.316 449.889 302.663 450.97 300.21C451.76 298.46 452.68 297.1 453.71 296.75C453.71 296.75 433.2 292.19 432.06 297.89C430.92 303.59 415 309.33 411.55 299.11L410.61 276.5C410.558 275.225 410.015 274.019 409.094 273.135C408.174 272.252 406.946 271.759 405.67 271.76V271.76C404.487 271.757 403.341 272.179 402.444 272.95C401.546 273.721 400.955 274.79 400.78 275.96V275.96Z" fill="black"/>
<path d="M808 600.11C808 600.11 787.41 579.5 779.84 552.11H781.61L780.76 549.73H781.61L778.93 542.11C786.52 534.65 792.13 527.42 793.04 523.31C794.58 516.39 796.11 478.95 797.04 452.93L797.86 453.13C799.86 449.71 800.28 445.4 800.14 441.49C800.216 437.098 799.65 432.718 798.46 428.49L794.75 391.34C794.393 387.922 793.345 384.613 791.668 381.613C789.992 378.613 787.724 375.986 785 373.89L747.4 344.72C749.379 342.051 751.892 339.824 754.78 338.18C756.93 337.04 759.43 336.26 760.88 334.31C763.5 330.78 761.27 325.52 763.06 321.5C764.4 318.5 767.7 316.82 769.63 314.13C773.58 308.62 770.72 301.01 767.77 294.91L750.63 259.48C745.88 249.67 741.09 239.78 734.45 231.14C714.12 204.66 675 191.49 643.11 202.97C634.02 206.24 625.65 212.52 621.77 221.36C620.42 224.44 619.61 227.8 617.65 230.53C613.28 236.62 604.75 237.77 598.65 242.15C590.86 247.78 587.97 258.38 589.06 267.93C590.15 277.48 594.53 286.3 598.85 294.93C603.39 303.93 608.08 313.2 615.53 320.02C619.01 323.21 623.27 326.17 624.38 330.76C625.33 334.7 623.65 338.76 624 342.84C624.146 344.537 624.643 346.185 625.46 347.68C608.63 349.79 596.69 363.77 591.34 384.57C591.01 385.86 590.88 386.57 590.88 386.57L588.51 408.11C588.46 409.04 588.51 409.94 588.51 410.83C588.295 415.677 589.328 420.497 591.51 424.83V500.46L519.51 546.04C508.71 550.84 511.11 589.23 532.71 596.42C554.31 603.61 573.52 558.11 573.52 558.11C586.67 557.23 608.79 539.69 620.68 526.11C622.287 528.704 624.424 530.929 626.95 532.64C618.37 551.98 601.4 591.99 604.11 600.11C605.74 605.01 647.88 605.46 693.43 604.5C694.595 605.147 695.817 605.686 697.08 606.11C701.94 607.73 706.68 606.67 711.08 604.06C760.36 602.65 808 600.11 808 600.11ZM747.19 453.46C748.19 450.69 751.47 449.18 755.86 448.46V477.63L747.19 453.46ZM743 350.96L743.14 350.75L743 350.96Z" fill="url(#paint20_linear)"/>
<path d="M634.86 417C634.86 417 632.58 497.89 630.3 508.15C628.02 518.41 595 549.11 577.89 550.3C577.89 550.3 559.66 593.59 539.15 586.76C518.64 579.93 516.36 543.47 526.62 538.91L595 495.61V409.02L634.86 417Z" fill="#FDB797"/>
<path d="M633.15 516.11C633.15 516.11 603.53 579.91 606.95 590.17C610.37 600.43 800.63 590.17 800.63 590.17C800.63 590.17 765.31 554.85 772.15 516.11H633.15Z" fill="black"/>
<path d="M655.94 326.99C655.94 326.99 660.5 371.42 652.52 381.68C644.54 391.94 684.42 397.68 687.84 397.68C691.26 397.68 727.72 385.15 734.55 381.68C741.38 378.21 747.08 353.2 747.08 353.2C747.08 353.2 712.9 360.04 702.65 320.2L655.94 326.99Z" fill="#B17C7C"/>
<path d="M644 213.01C635.37 216.12 627.41 222.08 623.73 230.48C622.45 233.4 621.68 236.59 619.82 239.19C615.67 244.97 607.57 246.06 601.82 250.19C594.42 255.54 591.68 265.6 592.71 274.68C593.74 283.76 597.9 292.13 602 300.29C606.31 308.86 610.77 317.64 617.84 324.12C621.14 327.12 625.19 329.96 626.24 334.32C627.14 338.06 625.55 341.97 625.88 345.8C626.7 355.27 638.02 359.68 647.47 360.73C651.58 361.19 656.28 361.21 659.18 358.26C660.66 356.74 661.41 354.68 662.34 352.78C664.49 348.428 667.804 344.757 671.914 342.175C676.024 339.592 680.769 338.199 685.622 338.149C690.476 338.099 695.249 339.395 699.41 341.893C703.572 344.391 706.961 347.993 709.2 352.3C711.42 356.56 712.71 361.74 716.74 364.3C722.91 368.3 731.17 363.61 735.74 357.83C740.31 352.05 743.59 344.83 750.08 341.36C752.08 340.27 754.5 339.54 755.88 337.68C758.37 334.33 756.25 329.33 757.95 325.52C759.23 322.65 762.36 321.08 764.19 318.52C767.94 313.29 765.19 306.06 762.42 300.27L746.14 266.62C741.63 257.3 737.08 247.91 730.78 239.7C711.43 214.62 674.28 202.11 644 213.01Z" fill="black"/>
<path opacity="0.1" d="M685.56 389.65C685.56 389.65 729.99 389.65 741.39 348.65L778.79 377.65C781.373 379.652 783.52 382.159 785.102 385.018C786.684 387.877 787.666 391.029 787.99 394.28L791.52 429.56C791.52 429.56 795.52 442.66 790.95 450.64C790.95 450.64 743.67 438.64 742.53 452.35L775.53 544.63C775.53 544.63 724.26 545.77 710.59 536.63C710.59 536.63 654.76 548.02 641.09 535.49C627.42 522.96 613.75 524.1 625.09 495.61C625.09 495.61 602.3 472.82 612.56 440.92C622.82 409.02 613.13 441.49 613.13 441.49C613.13 441.49 591 430.67 592.14 410.11L594.42 389.6C594.42 389.6 594.54 388.92 594.86 387.7C601.81 360.7 620.47 345.7 646.71 355.26C654.38 358.04 662.22 354.85 662.22 354.85C662.22 354.85 653.66 391.93 685.56 389.65Z" fill="black"/>
<path d="M685.56 387.37C685.56 387.37 729.99 387.37 741.39 346.37L778.79 375.37C781.373 377.372 783.52 379.879 785.102 382.738C786.684 385.597 787.666 388.749 787.99 392L791.52 427.28C791.52 427.28 795.52 440.38 790.95 448.36C790.95 448.36 743.67 436.36 742.53 450.07L775.53 542.35C775.53 542.35 724.26 543.49 710.59 534.35C710.59 534.35 654.76 545.74 641.09 533.21C627.42 520.68 613.75 521.82 625.09 493.33C625.09 493.33 602.3 470.54 612.56 438.64C622.82 406.74 613.13 439.21 613.13 439.21C613.13 439.21 591 428.39 592.14 407.88L594.42 387.37C594.42 387.37 594.54 386.69 594.86 385.47C601.81 358.47 620.47 343.47 646.71 353.03C654.38 355.81 662.22 352.62 662.22 352.62C662.22 352.62 653.66 389.65 685.56 387.37Z" fill="#21CE99"/>
<path d="M790.95 426.11C790.95 426.11 788.67 507 786.39 517.26C784.11 527.52 751.07 558.26 733.98 559.41C733.98 559.41 715.75 602.7 695.24 595.87C674.73 589.04 672.45 552.58 682.71 548.02L751.07 504.73V418.11L790.95 426.11Z" fill="#B17C7C"/>
<path opacity="0.1" d="M742 428.96C742 428.96 768.2 446.74 791 445.26C791 445.26 793.28 414.72 786.44 413.01C779.6 411.3 749.93 413.01 742 428.96Z" fill="black"/>
<path d="M742 427.82C742 427.82 768.2 445.6 791 444.12C791 444.12 793.28 413.58 786.44 411.87C779.6 410.16 749.93 411.87 742 427.82Z" fill="#21CE99"/>
<path opacity="0.1" d="M704.93 322.43L658.22 329.27C658.22 329.27 659.27 339.55 659.48 351.36C668.561 355.19 678.538 356.383 688.266 354.801C697.994 353.22 707.079 348.929 714.48 342.42C710.54 337.61 707.17 331.11 704.93 322.43Z" fill="black"/>
<path d="M677.59 353.2C706.535 353.2 730 329.735 730 300.79C730 271.845 706.535 248.38 677.59 248.38C648.645 248.38 625.18 271.845 625.18 300.79C625.18 329.735 648.645 353.2 677.59 353.2Z" fill="#B17C7C"/>
<path opacity="0.1" d="M691.4 290.71C689.167 291.549 686.778 291.891 684.4 291.71C675.133 291.65 665.87 291.317 656.61 290.71C649.61 290.24 642.11 289.41 636.7 284.92C629.42 278.92 628.27 267.55 632.03 258.87C635.79 250.19 643.46 243.79 651.56 238.87C656.135 235.984 661.089 233.75 666.28 232.23C681.28 228.15 697.92 233.16 709.85 243.16C721.78 253.16 729.39 267.6 733.42 282.64C734.81 287.84 736.6 294.04 741.75 295.64C738.32 301.34 729.95 302.25 723.95 299.39C715.09 295.18 710.55 279.06 702.6 276.52C693.73 273.67 698.89 287.27 691.4 290.71Z" fill="black"/>
<path d="M691.4 289.57C689.167 290.409 686.778 290.751 684.4 290.57C675.133 290.51 665.87 290.177 656.61 289.57C649.61 289.1 642.11 288.27 636.7 283.78C629.42 277.78 628.27 266.41 632.03 257.73C635.79 249.05 643.46 242.65 651.56 237.73C656.133 234.852 661.084 232.624 666.27 231.11C681.27 227.03 697.91 232.04 709.84 242.04C721.77 252.04 729.38 266.48 733.41 281.52C734.8 286.72 736.59 292.92 741.74 294.52C738.31 300.22 729.94 301.13 723.94 298.27C715.08 294.06 710.54 277.94 702.59 275.4C693.73 272.53 698.89 286.11 691.4 289.57Z" fill="black"/>
<path opacity="0.1" d="M624.61 492.76C641.698 488.194 659.312 485.895 677 485.92Z" fill="black"/>
<path opacity="0.1" d="M742 431.24C742 431.24 724.91 443.77 729.47 450.61Z" fill="black"/>
<g opacity="0.7">
<path opacity="0.7" d="M859.31 555.42H299.9V604.34H332.46V613.88V758.22H827.91V613.88V604.34H859.31V555.42Z" fill="url(#paint21_linear)"/>
</g>
<path d="M822.85 583.91H337.5V758.23H822.85V583.91Z" fill="#E0E0E0"/>
<path opacity="0.1" d="M822.85 593.02H337.5V620.36H822.85V593.02Z" fill="black"/>
<path d="M853.61 564.54H305.6V611.25H853.61V564.54Z" fill="#E0E0E0"/>
<path d="M482.46 553.04H390.64C387.05 553.04 384.14 555.95 384.14 559.54V561.35C384.14 564.94 387.05 567.85 390.64 567.85H482.46C486.05 567.85 488.96 564.94 488.96 561.35V559.54C488.96 555.95 486.05 553.04 482.46 553.04Z" fill="#535461"/>
<g opacity="0.7">
<path opacity="0.7" d="M680.24 387.91H476.16C460.574 387.91 447.94 400.545 447.94 416.13V539.82C447.94 555.405 460.574 568.04 476.16 568.04H680.24C695.825 568.04 708.46 555.405 708.46 539.82V416.13C708.46 400.545 695.825 387.91 680.24 387.91Z" fill="url(#paint22_linear)"/>
</g>
<path d="M672.53 391.23H479.42C464.597 391.23 452.58 403.247 452.58 418.07V541.19C452.58 556.013 464.597 568.03 479.42 568.03H672.53C687.353 568.03 699.37 556.013 699.37 541.19V418.07C699.37 403.247 687.353 391.23 672.53 391.23Z" fill="#3E3F49"/>
<path d="M675.95 391.23H482.84C468.017 391.23 456 403.247 456 418.07V541.19C456 556.013 468.017 568.03 482.84 568.03H675.95C690.773 568.03 702.79 556.013 702.79 541.19V418.07C702.79 403.247 690.773 391.23 675.95 391.23Z" fill="#535461"/>
<path d="M590.92 486.4C595.327 486.4 598.9 482.827 598.9 478.42C598.9 474.013 595.327 470.44 590.92 470.44C586.513 470.44 582.94 474.013 582.94 478.42C582.94 482.827 586.513 486.4 590.92 486.4Z" fill="#E0E0E0"/>
<path opacity="0.1" d="M264.58 587.32C264.58 587.32 271.32 597.21 291.31 600.24Z" fill="black"/>
<path opacity="0.2" d="M443 80H372V40H443V80ZM375 77H440V43H375V77Z" fill="#21CE99"/>
<path opacity="0.2" d="M514 80H443V40H514V80ZM446 77H511V43H446V77Z" fill="#21CE99"/>
<path opacity="0.2" d="M585 80H514V40H585V80ZM517 77H582V43H517V77Z" fill="#21CE99"/>
<path opacity="0.2" d="M656 80H585V40H656V80ZM588 77H653V43H588V77Z" fill="#21CE99"/>
<path opacity="0.2" d="M585 40H514V0H585V40ZM517 37H582V3H517V37Z" fill="#21CE99"/>
<path opacity="0.2" d="M514 40H443V0H514V40ZM446 37H511V3H446V37Z" fill="#21CE99"/>
<path opacity="0.2" d="M180 80H109V40H180V80ZM112 77H177V43H112V77Z" fill="#21CE99"/>
<path opacity="0.2" d="M251 80H180V40H251V80ZM183 77H248V43H183V77Z" fill="#21CE99"/>
<path opacity="0.2" d="M251 40H180V0H251V40ZM183 37H248V3H183V37Z" fill="#21CE99"/>
<path opacity="0.2" d="M800 80H729V40H800V80ZM732 77H797V43H732V77Z" fill="#21CE99"/>
<path opacity="0.2" d="M871 80H800V40H871V80ZM803 77H868V43H803V77Z" fill="#21CE99"/>
<path opacity="0.2" d="M871 40H800V0H871V40ZM803 37H868V3H803V37Z" fill="#21CE99"/>
</g>
<defs>
<linearGradient id="paint0_linear" x1="264.6" y1="677.09" x2="390.41" y2="677.09" gradientUnits="userSpaceOnUse">
<stop stop-color="#808080" stop-opacity="0.25"/>
<stop offset="0.54" stop-color="#808080" stop-opacity="0.12"/>
<stop offset="1" stop-color="#808080" stop-opacity="0.1"/>
</linearGradient>
<linearGradient id="paint1_linear" x1="71101.9" y1="164462" x2="101417" y2="164462" gradientUnits="userSpaceOnUse">
<stop stop-color="#808080" stop-opacity="0.25"/>
<stop offset="0.54" stop-color="#808080" stop-opacity="0.12"/>
<stop offset="1" stop-color="#808080" stop-opacity="0.1"/>
</linearGradient>
<linearGradient id="paint2_linear" x1="71101.9" y1="163817" x2="101417" y2="163817" gradientUnits="userSpaceOnUse">
<stop stop-color="#808080" stop-opacity="0.25"/>
<stop offset="0.54" stop-color="#808080" stop-opacity="0.12"/>
<stop offset="1" stop-color="#808080" stop-opacity="0.1"/>
</linearGradient>
<linearGradient id="paint3_linear" x1="40405.4" y1="46575.2" x2="48323.9" y2="46575.2" gradientUnits="userSpaceOnUse">
<stop stop-color="#808080" stop-opacity="0.25"/>
<stop offset="0.54" stop-color="#808080" stop-opacity="0.12"/>
<stop offset="1" stop-color="#808080" stop-opacity="0.1"/>
</linearGradient>
<linearGradient id="paint4_linear" x1="51201.5" y1="209727" x2="74693.1" y2="209727" gradientUnits="userSpaceOnUse">
<stop stop-color="#808080" stop-opacity="0.25"/>
<stop offset="0.54" stop-color="#808080" stop-opacity="0.12"/>
<stop offset="1" stop-color="#808080" stop-opacity="0.1"/>
</linearGradient>
<linearGradient id="paint5_linear" x1="50832.6" y1="209727" x2="74322.7" y2="209727" gradientUnits="userSpaceOnUse">
<stop stop-color="#808080" stop-opacity="0.25"/>
<stop offset="0.54" stop-color="#808080" stop-opacity="0.12"/>
<stop offset="1" stop-color="#808080" stop-opacity="0.1"/>
</linearGradient>
<linearGradient id="paint6_linear" x1="46605.5" y1="167951" x2="66888.9" y2="167951" gradientUnits="userSpaceOnUse">
<stop stop-color="#808080" stop-opacity="0.25"/>
<stop offset="0.54" stop-color="#808080" stop-opacity="0.12"/>
<stop offset="1" stop-color="#808080" stop-opacity="0.1"/>
</linearGradient>
<linearGradient id="paint7_linear" x1="79306.1" y1="152450" x2="103033" y2="152450" gradientUnits="userSpaceOnUse">
<stop stop-color="#808080" stop-opacity="0.25"/>
<stop offset="0.54" stop-color="#808080" stop-opacity="0.12"/>
<stop offset="1" stop-color="#808080" stop-opacity="0.1"/>
</linearGradient>
<linearGradient id="paint8_linear" x1="79669.9" y1="152450" x2="103396" y2="152450" gradientUnits="userSpaceOnUse">
<stop stop-color="#808080" stop-opacity="0.25"/>
<stop offset="0.54" stop-color="#808080" stop-opacity="0.12"/>
<stop offset="1" stop-color="#808080" stop-opacity="0.1"/>
</linearGradient>
<linearGradient id="paint9_linear" x1="14148.4" y1="31426" x2="15856.6" y2="31426" gradientUnits="userSpaceOnUse">
<stop stop-color="#808080" stop-opacity="0.25"/>
<stop offset="0.54" stop-color="#808080" stop-opacity="0.12"/>
<stop offset="1" stop-color="#808080" stop-opacity="0.1"/>
</linearGradient>
<linearGradient id="paint10_linear" x1="11915.4" y1="19432.1" x2="12727.1" y2="19432.1" gradientUnits="userSpaceOnUse">
<stop stop-color="#808080" stop-opacity="0.25"/>
<stop offset="0.54" stop-color="#808080" stop-opacity="0.12"/>
<stop offset="1" stop-color="#808080" stop-opacity="0.1"/>
</linearGradient>
<linearGradient id="paint11_linear" x1="6367.47" y1="43462.8" x2="6481.53" y2="43462.8" gradientUnits="userSpaceOnUse">
<stop stop-color="#808080" stop-opacity="0.25"/>
<stop offset="0.54" stop-color="#808080" stop-opacity="0.12"/>
<stop offset="1" stop-color="#808080" stop-opacity="0.1"/>
</linearGradient>
<linearGradient id="paint12_linear" x1="7500.69" y1="45847.3" x2="7857.95" y2="45847.3" gradientUnits="userSpaceOnUse">
<stop stop-color="#808080" stop-opacity="0.25"/>
<stop offset="0.54" stop-color="#808080" stop-opacity="0.12"/>
<stop offset="1" stop-color="#808080" stop-opacity="0.1"/>
</linearGradient>
<linearGradient id="paint13_linear" x1="21692.1" y1="19337.7" x2="24608.1" y2="19337.7" gradientUnits="userSpaceOnUse">
<stop stop-color="#808080" stop-opacity="0.25"/>
<stop offset="0.54" stop-color="#808080" stop-opacity="0.12"/>
<stop offset="1" stop-color="#808080" stop-opacity="0.1"/>
</linearGradient>
<linearGradient id="paint14_linear" x1="32322.8" y1="17894.4" x2="37016.9" y2="17894.4" gradientUnits="userSpaceOnUse">
<stop stop-color="#808080" stop-opacity="0.25"/>
<stop offset="0.54" stop-color="#808080" stop-opacity="0.12"/>
<stop offset="1" stop-color="#808080" stop-opacity="0.1"/>
</linearGradient>
<linearGradient id="paint15_linear" x1="39223" y1="28100.5" x2="51143.3" y2="28100.5" gradientUnits="userSpaceOnUse">
<stop stop-color="#808080" stop-opacity="0.25"/>
<stop offset="0.54" stop-color="#808080" stop-opacity="0.12"/>
<stop offset="1" stop-color="#808080" stop-opacity="0.1"/>
</linearGradient>
<linearGradient id="paint16_linear" x1="57267.1" y1="36965.1" x2="74311.4" y2="36965.1" gradientUnits="userSpaceOnUse">
<stop stop-color="#808080" stop-opacity="0.25"/>
<stop offset="0.54" stop-color="#808080" stop-opacity="0.12"/>
<stop offset="1" stop-color="#808080" stop-opacity="0.1"/>
</linearGradient>
<linearGradient id="paint17_linear" x1="57093.1" y1="36817.6" x2="74132.3" y2="36817.6" gradientUnits="userSpaceOnUse">
<stop stop-color="#808080" stop-opacity="0.25"/>
<stop offset="0.54" stop-color="#808080" stop-opacity="0.12"/>
<stop offset="1" stop-color="#808080" stop-opacity="0.1"/>
</linearGradient>
<linearGradient id="paint18_linear" x1="36183" y1="32793.4" x2="41542.5" y2="32793.4" gradientUnits="userSpaceOnUse">
<stop stop-color="#808080" stop-opacity="0.25"/>
<stop offset="0.54" stop-color="#808080" stop-opacity="0.12"/>
<stop offset="1" stop-color="#808080" stop-opacity="0.1"/>
</linearGradient>
<linearGradient id="paint19_linear" x1="36183" y1="32895.9" x2="41542.5" y2="32895.9" gradientUnits="userSpaceOnUse">
<stop stop-color="#808080" stop-opacity="0.25"/>
<stop offset="0.54" stop-color="#808080" stop-opacity="0.12"/>
<stop offset="1" stop-color="#808080" stop-opacity="0.1"/>
</linearGradient>
<linearGradient id="paint20_linear" x1="226192" y1="276768" x2="226192" y2="110253" gradientUnits="userSpaceOnUse">
<stop stop-color="#808080" stop-opacity="0.25"/>
<stop offset="0.54" stop-color="#808080" stop-opacity="0.12"/>
<stop offset="1" stop-color="#808080" stop-opacity="0.1"/>
</linearGradient>
<linearGradient id="paint21_linear" x1="324534" y1="154322" x2="324534" y2="113195" gradientUnits="userSpaceOnUse">
<stop stop-color="#808080" stop-opacity="0.25"/>
<stop offset="0.54" stop-color="#808080" stop-opacity="0.12"/>
<stop offset="1" stop-color="#808080" stop-opacity="0.1"/>
</linearGradient>
<linearGradient id="paint22_linear" x1="151081" y1="102709" x2="151081" y2="70262.1" gradientUnits="userSpaceOnUse">
<stop stop-color="#808080" stop-opacity="0.25"/>
<stop offset="0.54" stop-color="#808080" stop-opacity="0.12"/>
<stop offset="1" stop-color="#808080" stop-opacity="0.1"/>
</linearGradient>
<clipPath id="clip0">
<rect width="990" height="758.22" fill="white"/>
</clipPath>
</defs>
</svg>
