<svg width="965" height="723" viewBox="0 0 965 723" fill="none" xmlns="http://www.w3.org/2000/svg">
<g clip-path="url(#clip0)">
<path d="M123 538.883C190.931 538.883 246 483.814 246 415.883C246 347.952 190.931 292.883 123 292.883C55.069 292.883 0 347.952 0 415.883C0 483.814 55.069 538.883 123 538.883Z" fill="#F2F2F2"/>
<path d="M143 520.883C210.931 520.883 266 465.814 266 397.883C266 329.952 210.931 274.883 143 274.883C75.069 274.883 20 329.952 20 397.883C20 465.814 75.069 520.883 143 520.883Z" fill="#21CE99"/>
<path d="M330.27 652.558H171.858V654.433H330.27V652.558Z" fill="#3F3D56"/>
<path d="M251 654.883C166.636 654.883 98 586.247 98 501.883C98 417.518 166.636 348.883 251 348.883C335.364 348.883 404 417.518 404 501.883C404 586.247 335.364 654.883 251 654.883ZM251 350.883C167.738 350.883 100 418.621 100 501.883C100 585.144 167.738 652.883 251 652.883C334.262 652.883 402 585.144 402 501.883C402 418.621 334.262 350.883 251 350.883Z" fill="#3F3D56"/>
<path d="M687.902 169.224H683.989V62.0368C683.989 53.89 682.385 45.823 679.267 38.2963C676.149 30.7697 671.58 23.9308 665.819 18.1701C660.058 12.4094 653.22 7.83984 645.693 4.72221C638.166 1.60458 630.099 -2.88905e-05 621.952 4.26425e-10H394.863C386.716 -3.02037e-05 378.649 1.60458 371.122 4.72221C363.596 7.83984 356.757 12.4094 350.996 18.1701C345.236 23.9307 340.666 30.7696 337.548 38.2963C334.431 45.823 332.826 53.89 332.826 62.0368V650.072C332.826 658.218 334.431 666.285 337.548 673.812C340.666 681.339 345.236 688.178 350.996 693.938C356.757 699.699 363.596 704.269 371.122 707.386C378.649 710.504 386.716 712.108 394.863 712.108H621.952C630.099 712.108 638.166 710.504 645.693 707.386C653.22 704.269 660.059 699.699 665.819 693.938C671.58 688.178 676.15 681.339 679.267 673.812C682.385 666.285 683.989 658.218 683.989 650.072V245.521H687.902L687.902 169.224Z" fill="#F1F0F8"/>
<path d="M964.745 710.187H292.268V712.584H964.745V710.187Z" fill="#3F3D56"/>
<path d="M622.988 17.6071H593.346C594.709 20.9492 595.229 24.5753 594.861 28.1658C594.493 31.7564 593.247 35.2013 591.234 38.1971C589.22 41.1929 586.501 43.6475 583.316 45.3449C580.13 47.0422 576.576 47.9301 572.967 47.9304H442.87C439.261 47.9301 435.707 47.0422 432.521 45.3449C429.336 43.6475 426.617 41.1929 424.604 38.1971C422.59 35.2013 421.345 31.7564 420.976 28.1658C420.608 24.5753 421.128 20.9492 422.492 17.6071H394.805C388.721 17.6071 382.697 18.8054 377.076 21.1336C371.455 23.4618 366.348 26.8743 362.046 31.1763C357.744 35.4783 354.332 40.5855 352.003 46.2063C349.675 51.8271 348.477 57.8515 348.477 63.9354V651.107C348.477 657.191 349.675 663.216 352.003 668.837C354.332 674.457 357.744 679.565 362.046 683.867C366.348 688.169 371.455 691.581 377.076 693.909C382.697 696.237 388.721 697.436 394.805 697.436H622.988C629.072 697.436 635.097 696.237 640.718 693.909C646.338 691.581 651.446 688.169 655.748 683.867C660.05 679.565 663.462 674.457 665.79 668.837C668.119 663.216 669.317 657.191 669.317 651.107V63.9354C669.317 57.8515 668.119 51.8271 665.79 46.2063C663.462 40.5855 660.05 35.4783 655.748 31.1763C651.446 26.8743 646.338 23.4618 640.718 21.1336C635.097 18.8054 629.072 17.6071 622.988 17.6071ZM618.008 290C617.999 293.18 616.732 296.227 614.483 298.475C612.235 300.723 609.188 301.991 606.008 302H548.008C544.829 301.991 541.782 300.723 539.533 298.475C537.285 296.227 536.018 293.18 536.008 290V287C536.018 283.82 537.285 280.773 539.533 278.525C541.782 276.277 544.829 275.009 548.008 275H606.008C609.188 275.009 612.235 276.277 614.483 278.525C616.732 280.773 617.999 283.82 618.008 287V290ZM624.508 237C624.499 240.18 623.232 243.227 620.983 245.475C618.735 247.723 615.688 248.991 612.508 249H404.508C401.329 248.991 398.282 247.723 396.033 245.475C393.785 243.227 392.518 240.18 392.508 237V234C392.518 230.82 393.785 227.773 396.033 225.525C398.282 223.277 401.329 222.009 404.508 222H612.508C615.688 222.009 618.735 223.277 620.983 225.525C623.232 227.773 624.499 230.82 624.508 234V237ZM624.508 184C624.499 187.18 623.232 190.227 620.983 192.475C618.735 194.723 615.688 195.991 612.508 196H404.508C401.329 195.991 398.282 194.723 396.033 192.475C393.785 190.227 392.518 187.18 392.508 184V181C392.518 177.82 393.785 174.773 396.033 172.525C398.282 170.277 401.329 169.009 404.508 169H612.508C615.688 169.009 618.735 170.277 620.983 172.525C623.232 174.773 624.499 177.82 624.508 181V184ZM624.508 131C624.499 134.18 623.232 137.227 620.983 139.475C618.735 141.723 615.688 142.991 612.508 143H404.508C401.329 142.991 398.282 141.723 396.033 139.475C393.785 137.227 392.518 134.18 392.508 131V128C392.518 124.82 393.785 121.773 396.033 119.525C398.282 117.277 401.329 116.009 404.508 116H612.508C615.688 116.009 618.735 117.277 620.983 119.525C623.232 121.773 624.499 124.82 624.508 128V131Z" fill="white"/>
<path d="M410.008 243C413.874 243 417.008 239.866 417.008 236C417.008 232.134 413.874 229 410.008 229C406.142 229 403.008 232.134 403.008 236C403.008 239.866 406.142 243 410.008 243Z" fill="#21CE99"/>
<path d="M433.008 243C436.874 243 440.008 239.866 440.008 236C440.008 232.134 436.874 229 433.008 229C429.142 229 426.008 232.134 426.008 236C426.008 239.866 429.142 243 433.008 243Z" fill="#21CE99"/>
<path d="M456.008 243C459.874 243 463.008 239.866 463.008 236C463.008 232.134 459.874 229 456.008 229C452.142 229 449.008 232.134 449.008 236C449.008 239.866 452.142 243 456.008 243Z" fill="#21CE99"/>
<path d="M479.008 243C482.874 243 486.008 239.866 486.008 236C486.008 232.134 482.874 229 479.008 229C475.142 229 472.008 232.134 472.008 236C472.008 239.866 475.142 243 479.008 243Z" fill="#21CE99"/>
<path d="M554.008 296C557.874 296 561.008 292.866 561.008 289C561.008 285.134 557.874 282 554.008 282C550.142 282 547.008 285.134 547.008 289C547.008 292.866 550.142 296 554.008 296Z" fill="#21CE99"/>
<path d="M577.008 296C580.874 296 584.008 292.866 584.008 289C584.008 285.134 580.874 282 577.008 282C573.142 282 570.008 285.134 570.008 289C570.008 292.866 573.142 296 577.008 296Z" fill="#21CE99"/>
<path d="M600.008 296C603.874 296 607.008 292.866 607.008 289C607.008 285.134 603.874 282 600.008 282C596.142 282 593.008 285.134 593.008 289C593.008 292.866 596.142 296 600.008 296Z" fill="#21CE99"/>
<path d="M395.924 413.011C388.652 408.638 379.883 408.972 376.549 409.306C377.819 412.405 381.628 420.311 388.9 424.687C396.191 429.071 404.948 428.727 408.277 428.395C407.008 425.297 403.198 417.388 395.924 413.011Z" fill="white"/>
<path d="M430.099 499.795H384.645C381.932 499.795 379.331 500.873 377.413 502.791C375.495 504.709 374.417 507.31 374.417 510.023C374.417 512.735 375.495 515.337 377.413 517.254C379.331 519.172 381.932 520.25 384.645 520.25H430.099C432.812 520.25 435.413 519.172 437.331 517.254C439.249 515.337 440.326 512.735 440.326 510.023C440.326 507.31 439.249 504.709 437.331 502.791C435.413 500.873 432.812 499.795 430.099 499.795H430.099Z" fill="white"/>
<path d="M635.933 391.841H381.083C378.119 391.841 375.183 392.425 372.444 393.559C369.705 394.694 367.217 396.357 365.12 398.453C363.024 400.549 361.361 403.038 360.227 405.777C359.092 408.516 358.508 411.451 358.508 414.416V538.584C358.508 544.571 360.887 550.313 365.12 554.547C369.354 558.781 375.096 561.159 381.083 561.159H635.933C641.92 561.159 647.663 558.781 651.896 554.547C656.13 550.313 658.508 544.571 658.508 538.584V414.416C658.508 411.451 657.924 408.516 656.79 405.777C655.655 403.038 653.992 400.549 651.896 398.453C649.8 396.357 647.311 394.694 644.572 393.559C641.833 392.425 638.898 391.841 635.933 391.841V391.841ZM374.778 407.241C375.281 407.15 387.215 405.119 397.096 411.065C406.977 417.01 410.774 428.505 410.93 428.991L411.33 430.231L410.047 430.458C408.218 430.744 406.369 430.88 404.517 430.865C400.029 430.865 393.526 430.122 387.729 426.633C377.848 420.689 374.052 409.194 373.895 408.708L373.496 407.468L374.778 407.241ZM430.099 522.523H384.645C381.329 522.523 378.15 521.206 375.806 518.862C373.462 516.517 372.145 513.338 372.145 510.023C372.145 506.708 373.462 503.528 375.806 501.184C378.15 498.84 381.329 497.523 384.645 497.523H430.099C433.414 497.523 436.594 498.84 438.938 501.184C441.282 503.528 442.599 506.708 442.599 510.023C442.599 513.338 441.282 516.517 438.938 518.862C436.594 521.206 433.414 522.523 430.099 522.523H430.099ZM636.917 520.25C636.907 523.863 635.467 527.326 632.912 529.881C630.357 532.436 626.894 533.876 623.281 533.886H589.19C585.577 533.876 582.114 532.436 579.559 529.881C577.004 527.326 575.564 523.863 575.554 520.25V499.795C575.564 496.182 577.004 492.72 579.559 490.165C582.114 487.61 585.577 486.17 589.19 486.159H623.281C626.894 486.17 630.357 487.61 632.912 490.165C635.467 492.72 636.907 496.182 636.917 499.795V520.25Z" fill="#21CE99"/>
<path d="M809.008 60H837.008V32H809.008V60Z" fill="#F2F2F2"/>
<path d="M803.008 67H831.008V39H803.008V67Z" fill="#21CE99"/>
<path d="M776.008 49H822.008V95H776.008V49ZM820.008 51H778.008V93H820.008V51Z" fill="#3F3D56"/>
<path d="M290.008 263H262.008V291H290.008V263Z" fill="#F2F2F2"/>
<path d="M296.008 256H268.008V284H296.008V256Z" fill="#21CE99"/>
<path d="M323.008 274H277.008V228H323.008V274ZM279.008 272H321.008V230H279.008V272Z" fill="#3F3D56"/>
<path d="M738.028 421.848C738.028 421.848 720.582 458.194 732.213 459.648C743.844 461.102 746.751 426.937 746.751 426.937L738.028 421.848Z" fill="#B17C7C"/>
<path d="M804.178 654.464L792.548 675.075L813.628 688.266L818.662 663.928L804.178 654.464Z" fill="#B17C7C"/>
<path d="M799.212 677.938C799.212 677.938 792.825 667.541 790.516 669.281C788.206 671.022 778.679 678.563 778.679 678.563L766.269 690.449C766.269 690.449 724.342 694.882 750.983 709.572C777.625 724.262 792.347 712.082 792.347 712.082C792.347 712.082 829.661 714.022 829.059 703.612C828.457 693.201 816.423 676.731 816.423 676.731C816.423 676.731 801.256 686.899 799.212 677.938Z" fill="#2F2E41"/>
<path opacity="0.1" d="M799.212 677.938C799.212 677.938 792.825 667.541 790.516 669.281C788.206 671.022 778.679 678.563 778.679 678.563L766.269 690.449C766.269 690.449 724.342 694.882 750.983 709.572C777.625 724.262 792.347 712.082 792.347 712.082C792.347 712.082 829.661 714.022 829.059 703.612C828.457 693.201 816.423 676.731 816.423 676.731C816.423 676.731 801.256 686.899 799.212 677.938Z" fill="black"/>
<path d="M855.79 421.485L844.886 553.421C844.886 553.421 844.523 632.293 832.892 647.558C821.261 662.823 820.898 670.456 820.898 670.456L796.909 658.098C796.909 658.098 804.905 657.372 801.271 652.283C797.636 647.195 786.732 652.283 796.909 645.014C807.086 637.745 809.267 637.507 806.723 634.355C805.154 632.355 804.038 630.04 803.452 627.568L809.994 546.152L797.636 404.402L855.79 421.485Z" fill="#2F2E41"/>
<path opacity="0.1" d="M855.79 421.485L844.886 553.421C844.886 553.421 844.523 632.293 832.892 647.558C821.261 662.823 820.898 670.456 820.898 670.456L796.909 658.098C796.909 658.098 804.905 657.372 801.271 652.283C797.636 647.195 786.732 652.283 796.909 645.014C807.086 637.745 809.267 637.507 806.723 634.355C805.154 632.355 804.038 630.04 803.452 627.568L809.994 546.152L797.636 404.402L855.79 421.485Z" fill="black"/>
<path d="M825.986 654.464L836.163 681.36L865.24 670.456L847.067 651.556L825.986 654.464Z" fill="#B17C7C"/>
<path d="M840.425 669.797C840.425 669.797 829.56 663.007 828.202 665.723C826.844 668.439 821.411 679.983 821.411 679.983L815.299 696.959C815.299 696.959 777.951 720.727 809.867 722.085C841.783 723.443 849.931 705.108 849.931 705.108C849.931 705.108 885.922 689.49 880.489 679.983C875.057 670.476 856.043 660.616 856.043 660.616C856.043 660.616 846.536 677.267 840.425 669.797Z" fill="#2F2E41"/>
<path d="M763.471 421.848L757.655 543.245C757.655 543.245 786.005 623.933 810.721 637.018C810.721 637.018 810.721 653.01 816.536 655.918C818.269 656.812 819.805 658.045 821.054 659.544C822.302 661.042 823.238 662.775 823.805 664.641L855.79 656.645C855.79 656.645 847.794 648.648 850.701 645.014C853.609 641.379 841.252 633.383 841.252 633.383L809.267 555.602C809.267 555.602 804.178 553.421 802.725 546.152C801.271 538.883 798.363 538.883 805.632 537.429C812.902 535.975 812.901 528.706 812.901 528.706L836.89 418.214L763.471 421.848Z" fill="#2F2E41"/>
<path d="M789.64 231.394C805.699 231.394 818.717 218.376 818.717 202.317C818.717 186.259 805.699 173.24 789.64 173.24C773.581 173.24 760.563 186.259 760.563 202.317C760.563 218.376 773.581 231.394 789.64 231.394Z" fill="#B17C7C"/>
<path d="M815.446 204.135C815.446 204.135 817.627 241.208 820.534 244.842C823.442 248.477 790.003 247.75 790.003 247.75C790.003 247.75 792.184 216.492 790.003 213.585C787.823 210.677 815.446 204.135 815.446 204.135Z" fill="#B17C7C"/>
<path d="M825.259 233.575C825.259 233.575 797.636 230.667 787.459 239.39C784.208 242.166 780.725 244.658 777.049 246.838C773.978 248.68 771.42 251.264 769.609 254.354C767.799 257.443 766.794 260.938 766.688 264.517L761.29 429.845C761.29 429.845 843.432 422.575 858.698 429.845C858.698 429.845 859.425 413.125 860.878 410.944C861.938 409.355 863.771 345.953 864.686 311.707C865.313 292.365 858.48 273.522 845.601 259.078C841.195 254.201 836.272 250.113 831.075 248.114C831.075 248.114 832.528 234.302 825.259 233.575Z" fill="#21CE99"/>
<path d="M780.917 248.114C776.825 249.19 773.142 251.452 770.331 254.615C767.521 257.778 765.707 261.701 765.118 265.891L754.748 339.706L740.209 398.587C740.209 398.587 732.94 405.129 735.848 408.764C738.755 412.398 732.213 427.664 732.213 427.664L750.386 433.479C750.386 433.479 752.567 418.214 756.201 417.487C759.396 416.848 795.153 321.328 803.771 298.188C804.96 294.997 805.632 293.183 805.632 293.183C805.632 293.183 804.178 244.479 780.917 248.114Z" fill="#21CE99"/>
<path opacity="0.1" d="M805.269 292.819L761.29 411.794C761.29 411.794 803.815 331.346 805.269 292.819Z" fill="black"/>
<path d="M804.83 210.885C802.371 210.739 799.97 211.57 797.528 211.894C788.791 213.054 779.702 206.714 777.773 198.114C777.619 196.969 777.277 195.857 776.763 194.822C775.418 192.627 772.356 192.208 769.832 192.713C767.307 193.218 764.914 194.399 762.343 194.534C758.374 194.743 754.563 192.299 752.448 188.934C750.448 185.462 749.598 181.447 750.019 177.463L751.922 179.46C752.695 177.824 752.993 176.004 752.783 174.207C753.792 173.938 754.852 173.933 755.863 174.192C756.874 174.451 757.802 174.964 758.557 175.684C760.235 175.863 758.969 172.572 760.215 171.435C760.822 171.062 761.544 170.927 762.244 171.055C765.814 171.09 768.702 168.359 771.514 166.161C776.388 162.362 782.088 159.762 788.152 158.572C792.183 157.786 796.469 157.66 800.292 159.161C803.377 160.546 806.163 162.522 808.49 164.976C814.475 170.731 819.774 177.493 822.264 185.413C824.288 191.901 824.345 198.842 822.429 205.362C821.425 208.749 818.402 220.345 813.975 220.615C808.414 220.954 811.753 211.298 804.83 210.885Z" fill="#2F2E41"/>
<path d="M587.275 504.648H586.186V497.424L584 498.227V497.242L587.105 496.076H587.275V504.648Z" fill="black"/>
<path d="M595.801 501.01C595.801 502.279 595.584 503.223 595.15 503.84C594.717 504.457 594.039 504.766 593.117 504.766C592.207 504.766 591.533 504.465 591.096 503.863C590.658 503.258 590.432 502.355 590.416 501.156V499.709C590.416 498.455 590.633 497.523 591.066 496.914C591.5 496.305 592.18 496 593.105 496C594.023 496 594.699 496.295 595.133 496.885C595.566 497.471 595.789 498.377 595.801 499.604V501.01ZM594.717 499.527C594.717 498.609 594.588 497.941 594.33 497.523C594.072 497.102 593.664 496.891 593.105 496.891C592.551 496.891 592.146 497.1 591.893 497.518C591.639 497.936 591.508 498.578 591.5 499.445V501.18C591.5 502.102 591.633 502.783 591.898 503.225C592.168 503.662 592.574 503.881 593.117 503.881C593.652 503.881 594.049 503.674 594.307 503.26C594.568 502.846 594.705 502.193 594.717 501.303V499.527Z" fill="black"/>
<path d="M602.539 501.01C602.539 502.279 602.322 503.223 601.889 503.84C601.455 504.457 600.777 504.766 599.855 504.766C598.945 504.766 598.271 504.465 597.834 503.863C597.396 503.258 597.17 502.355 597.154 501.156V499.709C597.154 498.455 597.371 497.523 597.805 496.914C598.238 496.305 598.918 496 599.844 496C600.762 496 601.438 496.295 601.871 496.885C602.305 497.471 602.527 498.377 602.539 499.604V501.01ZM601.455 499.527C601.455 498.609 601.326 497.941 601.068 497.523C600.811 497.102 600.402 496.891 599.844 496.891C599.289 496.891 598.885 497.1 598.631 497.518C598.377 497.936 598.246 498.578 598.238 499.445V501.18C598.238 502.102 598.371 502.783 598.637 503.225C598.906 503.662 599.312 503.881 599.855 503.881C600.391 503.881 600.787 503.674 601.045 503.26C601.307 502.846 601.443 502.193 601.455 501.303V499.527Z" fill="black"/>
<path d="M587.275 524.648H586.186V517.424L584 518.227V517.242L587.105 516.076H587.275V524.648Z" fill="black"/>
<path d="M595.801 521.01C595.801 522.279 595.584 523.223 595.15 523.84C594.717 524.457 594.039 524.766 593.117 524.766C592.207 524.766 591.533 524.465 591.096 523.863C590.658 523.258 590.432 522.355 590.416 521.156V519.709C590.416 518.455 590.633 517.523 591.066 516.914C591.5 516.305 592.18 516 593.105 516C594.023 516 594.699 516.295 595.133 516.885C595.566 517.471 595.789 518.377 595.801 519.604V521.01ZM594.717 519.527C594.717 518.609 594.588 517.941 594.33 517.523C594.072 517.102 593.664 516.891 593.105 516.891C592.551 516.891 592.146 517.1 591.893 517.518C591.639 517.936 591.508 518.578 591.5 519.445V521.18C591.5 522.102 591.633 522.783 591.898 523.225C592.168 523.662 592.574 523.881 593.117 523.881C593.652 523.881 594.049 523.674 594.307 523.26C594.568 522.846 594.705 522.193 594.717 521.303V519.527Z" fill="black"/>
<path d="M602.539 521.01C602.539 522.279 602.322 523.223 601.889 523.84C601.455 524.457 600.777 524.766 599.855 524.766C598.945 524.766 598.271 524.465 597.834 523.863C597.396 523.258 597.17 522.355 597.154 521.156V519.709C597.154 518.455 597.371 517.523 597.805 516.914C598.238 516.305 598.918 516 599.844 516C600.762 516 601.438 516.295 601.871 516.885C602.305 517.471 602.527 518.377 602.539 519.604V521.01ZM601.455 519.527C601.455 518.609 601.326 517.941 601.068 517.523C600.811 517.102 600.402 516.891 599.844 516.891C599.289 516.891 598.885 517.1 598.631 517.518C598.377 517.936 598.246 518.578 598.238 519.445V521.18C598.238 522.102 598.371 522.783 598.637 523.225C598.906 523.662 599.312 523.881 599.855 523.881C600.391 523.881 600.787 523.674 601.045 523.26C601.307 522.846 601.443 522.193 601.455 521.303V519.527Z" fill="black"/>
<path d="M612.83 497.891V502.725C612.827 503.395 612.615 503.944 612.195 504.37C611.779 504.797 611.212 505.036 610.496 505.088L610.247 505.098C609.469 505.098 608.849 504.888 608.387 504.468C607.924 504.048 607.69 503.47 607.684 502.734V497.891H608.611V502.705C608.611 503.219 608.753 503.62 609.036 503.906C609.319 504.189 609.723 504.331 610.247 504.331C610.778 504.331 611.183 504.189 611.463 503.906C611.746 503.623 611.888 503.224 611.888 502.71V497.891H612.83Z" fill="#2F2E41"/>
<path d="M616.404 501.831C615.6 501.6 615.014 501.317 614.646 500.981C614.282 500.643 614.1 500.226 614.1 499.731C614.1 499.172 614.323 498.709 614.769 498.345C615.218 497.977 615.8 497.793 616.517 497.793C617.005 497.793 617.439 497.887 617.82 498.076C618.204 498.265 618.501 498.525 618.709 498.857C618.921 499.189 619.026 499.552 619.026 499.946H618.084C618.084 499.517 617.947 499.18 617.674 498.936C617.4 498.688 617.015 498.564 616.517 498.564C616.054 498.564 615.693 498.667 615.433 498.872C615.175 499.074 615.047 499.355 615.047 499.717C615.047 500.007 615.169 500.252 615.413 500.454C615.66 500.653 616.079 500.835 616.668 501.001C617.26 501.167 617.723 501.351 618.055 501.553C618.39 501.751 618.637 501.984 618.797 502.251C618.96 502.518 619.041 502.832 619.041 503.193C619.041 503.77 618.816 504.232 618.367 504.58C617.918 504.925 617.317 505.098 616.565 505.098C616.077 505.098 615.621 505.005 615.198 504.819C614.775 504.631 614.448 504.373 614.217 504.048C613.989 503.722 613.875 503.353 613.875 502.939H614.817C614.817 503.369 614.975 503.709 615.291 503.96C615.61 504.207 616.035 504.331 616.565 504.331C617.06 504.331 617.439 504.23 617.703 504.028C617.967 503.826 618.099 503.551 618.099 503.203C618.099 502.855 617.977 502.586 617.732 502.397C617.488 502.205 617.046 502.017 616.404 501.831Z" fill="#2F2E41"/>
<path d="M620.247 505V497.891H622.254C622.872 497.891 623.419 498.027 623.895 498.301C624.37 498.574 624.736 498.963 624.993 499.468C625.254 499.972 625.385 500.552 625.389 501.206V501.66C625.389 502.331 625.258 502.918 624.998 503.423C624.741 503.927 624.371 504.315 623.89 504.585C623.411 504.855 622.853 504.993 622.215 505H620.247ZM621.185 498.662V504.233H622.171C622.894 504.233 623.455 504.009 623.855 503.56C624.259 503.11 624.461 502.471 624.461 501.641V501.226C624.461 500.418 624.271 499.792 623.89 499.346C623.512 498.896 622.975 498.669 622.278 498.662H621.185Z" fill="#2F2E41"/>
<path d="M613.055 522.744C612.967 523.496 612.688 524.077 612.22 524.487C611.754 524.894 611.134 525.098 610.359 525.098C609.52 525.098 608.846 524.797 608.338 524.194C607.833 523.592 607.581 522.786 607.581 521.777V521.094C607.581 520.433 607.698 519.852 607.933 519.351C608.17 518.849 608.506 518.465 608.938 518.198C609.371 517.928 609.873 517.793 610.442 517.793C611.198 517.793 611.803 518.005 612.259 518.428C612.715 518.848 612.98 519.43 613.055 520.176H612.112C612.031 519.609 611.854 519.199 611.58 518.945C611.31 518.691 610.931 518.564 610.442 518.564C609.843 518.564 609.373 518.786 609.031 519.229C608.693 519.671 608.523 520.301 608.523 521.118V521.807C608.523 522.578 608.685 523.192 609.007 523.647C609.329 524.103 609.78 524.331 610.359 524.331C610.88 524.331 611.279 524.214 611.556 523.979C611.836 523.742 612.021 523.33 612.112 522.744H613.055Z" fill="#2F2E41"/>
<path d="M614.339 525V517.891H616.346C616.964 517.891 617.511 518.027 617.986 518.301C618.462 518.574 618.828 518.963 619.085 519.468C619.345 519.972 619.477 520.552 619.48 521.206V521.66C619.48 522.331 619.35 522.918 619.09 523.423C618.833 523.927 618.463 524.315 617.981 524.585C617.503 524.855 616.945 524.993 616.307 525H614.339ZM615.276 518.662V524.233H616.263C616.985 524.233 617.547 524.009 617.947 523.56C618.351 523.11 618.553 522.471 618.553 521.641V521.226C618.553 520.418 618.362 519.792 617.981 519.346C617.604 518.896 617.067 518.669 616.37 518.662H615.276Z" fill="#2F2E41"/>
<path d="M624.822 521.86H621.839V525H620.901V517.891H625.306V518.662H621.839V521.094H624.822V521.86Z" fill="#2F2E41"/>
</g>
<defs>
<clipPath id="clip0">
<rect width="964.745" height="722.157" fill="white"/>
</clipPath>
</defs>
</svg>
